{
.formatVersion = 3;
axes = (
{
name = Weight;
tag = wght;
}
);
classes = (
{
code = "Alphatonos uni1F08 uni1F0C uni1F0A uni1F0E uni1F09 uni1F0D uni1F0B uni1F0F uni1FBB uni1FBA uni1FB9 uni1FB8 uni1F88 uni1F8C uni1F8A uni1F8E uni1F89 uni1F8D uni1F8B uni1F8F Epsilontonos uni1F18 uni1F1C uni1F1A uni1F19 uni1F1D uni1F1B uni1FC9 uni1FC8 Etatonos uni1F28 uni1F2C uni1F2A uni1F2E uni1F29 uni1F2D uni1F2B uni1F2F uni1FCB uni1FCA uni1F98 uni1F9C uni1F9A uni1F9E uni1F99 uni1F9D uni1F9B uni1F9F Iotatonos uni1F38 uni1F3C uni1F3A uni1F3E uni1F39 uni1F3D uni1F3B uni1F3F uni1FDB uni1FDA uni1FD9 uni1FD8 Omicrontonos uni1F48 uni1F4C uni1F4A uni1F49 uni1F4D uni1F4B uni1FF9 uni1FF8 uni1FEC Upsilontonos uni1F59 uni1F5D uni1F5B uni1F5F uni1FEB uni1FEA uni1FE9 uni1FE8 Omegatonos uni1F68 uni1F6C uni1F6A uni1F6E uni1F69 uni1F6D uni1F6B uni1F6F uni1FFB uni1FFA uni1FA8 uni1FAC uni1FAA uni1FAE uni1FA9 uni1FAD uni1FAB uni1FAF uni03D3";
name = calt;
},
{
code = "Alpha Alpha Alpha Alpha Alpha Alpha Alpha Alpha Alpha Alpha Alpha Alpha Alpha uni1FBC uni1FBC uni1FBC uni1FBC uni1FBC uni1FBC uni1FBC uni1FBC Epsilon Epsilon Epsilon Epsilon Epsilon Epsilon Epsilon Epsilon Epsilon Eta Eta Eta Eta Eta Eta Eta Eta Eta Eta Eta uni1FCC uni1FCC uni1FCC uni1FCC uni1FCC uni1FCC uni1FCC uni1FCC Iota Iota Iota Iota Iota Iota Iota Iota Iota Iota Iota Iota Iota Omicron Omicron Omicron Omicron Omicron Omicron Omicron Omicron Omicron Rho Upsilon Upsilon Upsilon Upsilon Upsilon Upsilon Upsilon Upsilon Upsilon uni03A9 uni03A9 uni03A9 uni03A9 uni03A9 uni03A9 uni03A9 uni03A9 uni03A9 uni03A9 uni03A9 uni1FFC uni1FFC uni1FFC uni1FFC uni1FFC uni1FFC uni1FFC uni1FFC uni03D2";
name = calt2;
},
{
code = "Alphatonos Epsilontonos Omicrontonos Upsilontonos uni1F0A uni1F0B uni1F0C uni1F0D uni1F0E uni1F0F uni1F1A uni1F1B uni1F1C uni1F1D uni1F4A uni1F4B uni1F4C uni1F4D uni1F5B uni1F5D uni1F5F uni1FBA uni1FBB uni1FC8 uni1FC9 uni1FEA uni1FEB uni1FF8 uni1FF9";
name = calt3;
},
{

glyphs = (
{
glyphname = .notdef;
layers = (
{
layerId = "E33FAED1-6CF3-4816-84CB-8FA701D54EAB";
shapes = (
{
closed = 1;
nodes = (
(229,1109,l),
(304,1169,o),
(395,1214,o),
(524,1214,cs),
(711,1214,o),
(820,1111,o),
(820,956,cs),
(820,744,o),
(643,723,o),
(623,639,cs),
(601,548,l),
(427,548,l),
(409,657,ls),
(385,802,o),
(584,810,o),
(584,941,cs),
(584,982,o),
(557,1010,o),
(501,1010,cs),
(410,1010,o),
(388,971,o),
(348,971,cs),
(324,971,o),
(307,981,o),
(296,1001,c)
);
},
{
closed = 1;
nodes = (
(368,383,o),
(427,443,o),
(506,443,cs),
(582,443,o),
(642,383,o),
(642,307,cs),
(642,231,o),
(582,171,o),
(506,171,cs),
(427,171,o),
(368,231,o),
(368,307,cs)
);
},
{
closed = 1;
nodes = (
(40,1398,l),
(1023,1398,l),
(1023,0,l),
(40,0,l)
);
},
{
closed = 1;
nodes = (
(105,69,l),
(949,69,l),
(949,1329,l),
(105,1329,l)
);
}
);
width = 1038;
},
{
layerId = "30810D6C-99CD-409A-82EF-98D1F10F6C9D";
shapes = (
{
closed = 1;
nodes = (
(241,1101,l),
(305,1157,o),
(390,1204,o),
(507,1204,cs),
(670,1204,o),
(779,1110,o),
(779,965,cs),
(779,755,o),
(587,730,o),
(571,642,cs),
(554,542,l),
(435,542,l),
(422,655,ls),
(406,787,o),
(616,802,o),
(616,955,cs),
(616,1019,o),
(565,1060,o),
(493,1060,cs),
(390,1060,o),
(353,1005,o),
(324,1005,cs),
(307,1005,o),
(295,1012,o),
(287,1026,cs)
);
},
{
closed = 1;
nodes = (
(382,343,o),
(428,391,o),
(489,391,cs),
(548,391,o),
(595,343,o),
(595,283,cs),
(595,223,o),
(548,176,o),
(489,176,cs),
(428,176,o),
(382,223,o),
(382,283,cs)
);
},
{
closed = 1;
nodes = (
(43,1383,l),
(985,1383,l),
(985,0,l),
(43,0,l)
);
},
{
closed = 1;
nodes = (
(93,53,l),
(930,53,l),
(930,1330,l),
(93,1330,l)
);
}
);
width = 1038;
}
);
},
{
glyphname = uni0000;
layers = (
{
layerId = "E33FAED1-6CF3-4816-84CB-8FA701D54EAB";
shapes = (
{
closed = 1;
nodes = (
(-56,-314,o),
(-48,-306,o),
(-37,-306,cs),
(-28,-306,o),
(-24,-311,o),
(-24,-321,cs),
(-24,-332,o),
(-30,-341,o),
(-41,-341,cs),
(-50,-341,o),
(-56,-333,o),
(-56,-325,cs)
);
}
);
width = 0;
},
{
layerId = "30810D6C-99CD-409A-82EF-98D1F10F6C9D";
shapes = (
{
closed = 1;
nodes = (
(-57,-322,o),
(-48,-314,o),
(-39,-314,cs),
(-31,-314,o),
(-25,-321,o),
(-25,-329,cs),
(-25,-340,o),
(-33,-349,o),
(-42,-349,cs),
(-51,-349,o),
(-57,-341,o),
(-57,-333,cs)
);
}
);
width = 0;
}
);
unicode = 0;
},
{
glyphname = A;
layers = (
{
layerId = "E33FAED1-6CF3-4816-84CB-8FA701D54EAB";
shapes = (
{
closed = 1;
nodes = (
(1196,0,l),
(1000,0,ls),
(957,0,o),
(933,23,o),
(925,56,cs),
(865,324,l),
(345,324,l),
(219,57,l),
(204,28,o),
(170,0,o),
(129,0,cs),
(-69,0,l),
(597,1328,l),
(856,1328,l)
);
},
{
closed = 1;
nodes = (
(428,501,l),
(825,501,l),
(728,934,ls),
(719,975,o),
(708,1032,o),
(699,1097,c),
(675,1032,o),
(651,975,o),
(632,932,c)
);
}
);
width = 1241;
},
{
layerId = "30810D6C-99CD-409A-82EF-98D1F10F6C9D";
shapes = (
{
closed = 1;
nodes = (
(1131,0,l),
(995,0,ls),
(963,0,o),
(947,15,o),
(940,42,cs),
(862,361,l),
(298,361,l),
(141,42,ls),
(130,19,o),
(106,0,o),
(77,0,cs),
(-60,0,l),
(607,1314,l),
(786,1314,l)
);
},
{
closed = 1;
nodes = (
(361,488,l),
(831,488,l),
(700,1026,l),
(693,1058,o),
(684,1101,o),
(677,1149,c),
(658,1101,o),
(641,1057,o),
(626,1025,c)
);
}
);
width = 1185;
}
);
leftKerningGroup = A2;
rightKerningGroup = A;
unicode = 65;
},
{
glyphname = Aogonek;
layers = (
{
layerId = "E33FAED1-6CF3-4816-84CB-8FA701D54EAB";
shapes = (
{
closed = 1;
nodes = (
(1142,-175,o),
(1149,-180,o),
(1152,-191,cs),
(1176,-282,l),
(1133,-310,o),
(1068,-331,o),
(1000,-331,cs),
(887,-331,o),
(830,-277,o),
(830,-204,cs),
(830,-128,o),
(879,-58,o),
(978,2,c),
(949,9,o),
(932,29,o),
(925,56,c),
(865,324,l),
(345,324,l),
(219,57,l),
(204,28,o),
(170,0,o),
(129,0,cs),
(-69,0,l),
(597,1328,l),
(856,1328,l),
(1196,0,l),
(1119,0,l),
(1067,-29,o),
(1019,-76,o),
(1019,-136,cs),
(1019,-167,o),
(1037,-189,o),
(1068,-189,cs),
(1110,-189,o),
(1119,-175,o),
(1131,-175,cs)
);
},
{
closed = 1;
nodes = (
(428,501,l),
(825,501,l),
(728,934,ls),
(719,975,o),
(708,1032,o),
(699,1097,c),
(675,1032,o),
(651,975,o),
(632,932,c)
);
}
);
width = 1241;
},
{
layerId = "30810D6C-99CD-409A-82EF-98D1F10F6C9D";
shapes = (
{
closed = 1;
nodes = (
(1200,-202,o),
(1206,-206,o),
(1208,-214,cs),
(1226,-277,l),
(1186,-306,o),
(1125,-327,o),
(1064,-327,cs),
(965,-327,o),
(910,-279,o),
(910,-204,cs),
(910,-124,o),
(968,-52,o),
(1052,0,c),
(995,0,ls),
(963,0,o),
(947,15,o),
(940,42,cs),
(862,361,l),
(298,361,l),
(141,42,ls),
(130,19,o),
(106,0,o),
(77,0,cs),
(-60,0,l),
(607,1314,l),
(786,1314,l),
(1129,8,l),
(1164,3,l),
(1111,-26,o),
(1042,-83,o),
(1042,-157,cs),
(1042,-198,o),
(1069,-225,o),
(1110,-225,cs),
(1164,-225,o),
(1181,-202,o),
(1191,-202,cs)
);
},
{
closed = 1;
nodes = (
(361,488,l),
(831,488,l),
(700,1026,l),
(693,1058,o),
(684,1101,o),
(677,1149,c),
(658,1101,o),
(641,1057,o),
(626,1025,c)
);
}
);
width = 1185;
}
);
leftKerningGroup = A2;
rightKerningGroup = A;
unicode = 260;
},
{
glyphname = AE;
layers = (
{
layerId = "E33FAED1-6CF3-4816-84CB-8FA701D54EAB";
shapes = (
{
closed = 1;
nodes = (
(682,1328,l),
(1626,1328,l),
(1602,1127,l),
(1013,1127,l),
(1014,765,l),
(1439,765,l),
(1417,571,l),
(1014,571,l),
(1015,201,l),
(1487,201,l),
(1462,0,l),
(775,0,l),
(774,324,l),
(348,324,l),
(202,58,ls),
(185,27,o),
(150,0,o),
(107,0,cs),
(-90,0,l)
);
},
{
closed = 1;
nodes = (
(446,501,l),
(774,501,l),
(773,1120,l),
(750,1064,o),
(728,1015,o),
(705,972,cs)
);
}
);
width = 1588;
},
{
layerId = "30810D6C-99CD-409A-82EF-98D1F10F6C9D";
shapes = (
{
closed = 1;
nodes = (
(1566,1172,l),
(935,1172,l),
(935,731,l),
(1401,731,l),
(1384,593,l),
(935,593,l),
(935,142,l),
(1440,142,l),
(1421,0,l),
(768,0,l),
(768,361,l),
(310,361,l),
(124,42,ls),
(111,19,o),
(86,0,o),
(55,0,cs),
(-82,0,l),
(705,1314,l),
(1583,1314,l)
);
},
{
closed = 1;
nodes = (
(384,488,l),
(768,488,l),
(768,1166,l),
(751,1124,o),
(733,1085,o),
(712,1050,cs)
);
}
);
width = 1563;
}
);
leftKerningGroup = AE;
rightKerningGroup = E;
unicode = 198;
},
{
glyphname = B;
layers = (
{
layerId = "E33FAED1-6CF3-4816-84CB-8FA701D54EAB";
shapes = (
{
closed = 1;
nodes = (
(65,0,l),
(227,1328,l),
(674,1328,ls),
(984,1328,o),
(1110,1209,o),
(1110,1022,cs),
(1110,874,o),
(1030,745,o),
(846,684,c),
(997,645,o),
(1072,560,o),
(1072,429,cs),
(1072,186,o),
(878,0,o),
(554,0,cs)
);
},
{
closed = 1;
nodes = (
(389,580,l),
(342,196,l),
(573,196,ls),
(748,196,o),
(822,291,o),
(822,426,cs),
(822,521,o),
(763,580,o),
(620,580,cs)
);
},
{
closed = 1;
nodes = (
(410,754,l),
(590,754,ls),
(759,754,o),
(853,822,o),
(853,979,cs),
(853,1088,o),
(789,1134,o),
(653,1134,cs),
(457,1134,l)
);
}
);
width = 1148;
},
{
layerId = "30810D6C-99CD-409A-82EF-98D1F10F6C9D";
shapes = (
{
closed = 1;
nodes = (
(90,0,l),
(252,1314,l),
(649,1314,ls),
(929,1314,o),
(1050,1200,o),
(1050,1019,cs),
(1050,863,o),
(957,731,o),
(773,675,c),
(934,640,o),
(1017,551,o),
(1017,412,cs),
(1017,171,o),
(833,0,o),
(532,0,cs)
);
},
{
closed = 1;
nodes = (
(340,600,l),
(284,138,l),
(546,138,ls),
(743,138,o),
(843,244,o),
(843,410,cs),
(843,527,o),
(763,600,o),
(602,600,cs)
);
},
{
closed = 1;
nodes = (
(355,723,l),
(570,723,ls),
(771,723,o),
(872,832,o),
(872,989,cs),
(872,1116,o),
(796,1177,o),
(633,1177,cs),
(411,1177,l)
);
}
);
width = 1114;
}
);
rightKerningGroup = B;
unicode = 66;
},
{
glyphname = C;
layers = (
{
layerId = "E33FAED1-6CF3-4816-84CB-8FA701D54EAB";
shapes = (
{
closed = 1;
nodes = (
(811,200,o),
(843,316,o),
(896,316,cs),
(913,316,o),
(924,308,o),
(929,301,cs),
(1017,192,l),
(904,59,o),
(753,-14,o),
(558,-14,cs),
(239,-14,o),
(59,231,o),
(59,561,cs),
(59,1021,o),
(366,1343,o),
(750,1343,cs),
(940,1343,o),
(1058,1269,o),
(1136,1159,c),
(1047,1053,ls),
(1034,1038,o),
(1019,1024,o),
(992,1024,cs),
(937,1024,o),
(917,1127,o),
(735,1127,cs),
(500,1127,o),
(318,916,o),
(318,582,cs),
(318,343,o),
(438,200,o),
(601,200,cs)
);
}
);
width = 1062;
},
{
layerId = "30810D6C-99CD-409A-82EF-98D1F10F6C9D";
shapes = (
{
closed = 1;
nodes = (
(819,137,o),
(878,269,o),
(918,269,cs),
(929,269,o),
(937,266,o),
(940,259,c),
(1003,183,l),
(894,58,o),
(751,-14,o),
(562,-14,cs),
(263,-14,o),
(86,219,o),
(86,551,cs),
(86,1011,o),
(379,1329,o),
(748,1329,cs),
(925,1329,o),
(1034,1263,o),
(1115,1155,c),
(1055,1082,l),
(1044,1070,o),
(1034,1061,o),
(1015,1061,cs),
(971,1061,o),
(936,1176,o),
(738,1176,cs),
(473,1176,o),
(266,940,o),
(266,566,cs),
(266,299,o),
(402,137,o),
(592,137,cs)
);
}
);
width = 1070;
}
);
leftKerningGroup = C2;
rightKerningGroup = C;
unicode = 67;
},
{
glyphname = Ccedilla;
layers = (
{
layerId = "E33FAED1-6CF3-4816-84CB-8FA701D54EAB";
shapes = (
{
closed = 1;
nodes = (
(438,-214,o),
(452,-229,o),
(484,-229,cs),
(521,-229,o),
(540,-206,o),
(540,-183,cs),
(540,-151,o),
(506,-138,o),
(422,-127,c),
(469,-7,l),
(205,33,o),
(59,263,o),
(59,561,cs),
(59,1021,o),
(366,1343,o),
(750,1343,cs),
(940,1343,o),
(1058,1269,o),
(1136,1159,c),
(1047,1053,ls),
(1034,1038,o),
(1019,1024,o),
(992,1024,cs),
(937,1024,o),
(917,1127,o),
(735,1127,cs),
(500,1127,o),
(318,916,o),
(318,582,cs),
(318,343,o),
(438,200,o),
(601,200,cs),
(811,200,o),
(843,316,o),
(896,316,cs),
(913,316,o),
(924,308,o),
(929,301,cs),
(1017,192,l),
(917,72,o),
(786,2,o),
(621,-11,c),
(606,-50,l),
(699,-75,o),
(732,-120,o),
(732,-175,cs),
(732,-273,o),
(628,-333,o),
(488,-333,cs),
(439,-333,o),
(399,-327,o),
(358,-312,c),
(391,-236,l),
(398,-223,o),
(405,-214,o),
(420,-214,cs)
);
}
);
width = 1062;
},
{
layerId = "30810D6C-99CD-409A-82EF-98D1F10F6C9D";
shapes = (
{
closed = 1;
nodes = (
(423,-237,o),
(439,-260,o),
(488,-260,cs),
(539,-260,o),
(568,-231,o),
(568,-194,cs),
(568,-150,o),
(521,-136,o),
(436,-124,c),
(482,-8,l),
(231,29,o),
(86,251,o),
(86,551,cs),
(86,1011,o),
(379,1329,o),
(748,1329,cs),
(925,1329,o),
(1034,1263,o),
(1115,1155,c),
(1055,1082,l),
(1044,1070,o),
(1034,1061,o),
(1015,1061,cs),
(971,1061,o),
(936,1176,o),
(738,1176,cs),
(473,1176,o),
(266,940,o),
(266,566,cs),
(266,299,o),
(402,137,o),
(592,137,cs),
(819,137,o),
(878,269,o),
(918,269,cs),
(929,269,o),
(937,266,o),
(940,259,c),
(1003,183,l),
(899,64,o),
(764,-6,o),
(588,-13,c),
(567,-66,l),
(660,-89,o),
(702,-128,o),
(702,-188,cs),
(702,-280,o),
(612,-336,o),
(488,-336,cs),
(440,-336,o),
(396,-324,o),
(361,-305,c),
(384,-253,ls),
(389,-242,o),
(395,-237,o),
(407,-237,cs)
);
}
);
width = 1070;
}
);
leftKerningGroup = C2;
rightKerningGroup = C;
unicode = 199;
},
{
glyphname = D;
layers = (
{
layerId = "E33FAED1-6CF3-4816-84CB-8FA701D54EAB";
shapes = (
{
closed = 1;
nodes = (
(1273,531,o),
(1197,343,o),
(1067,211,cs),
(937,78,o),
(755,0,o),
(544,0,cs),
(62,0,l),
(225,1328,l),
(708,1328,ls),
(883,1328,o),
(1024,1267,o),
(1122,1164,cs),
(1220,1061,o),
(1273,917,o),
(1273,750,cs)
);
},
{
closed = 1;
nodes = (
(1013,860,o),
(983,956,o),
(927,1024,cs),
(870,1091,o),
(787,1128,o),
(683,1128,cs),
(457,1128,l),
(341,201,l),
(568,201,ls),
(703,201,o),
(814,253,o),
(892,347,cs),
(970,441,o),
(1013,575,o),
(1013,743,cs)
);
}
);
width = 1291;
},
{
layerId = "30810D6C-99CD-409A-82EF-98D1F10F6C9D";
shapes = (
{
closed = 1;
nodes = (
(1222,527,o),
(1149,339,o),
(1028,207,cs),
(907,75,o),
(734,0,o),
(537,0,cs),
(86,0,l),
(248,1314,l),
(699,1314,ls),
(860,1314,o),
(990,1256,o),
(1081,1157,cs),
(1172,1058,o),
(1222,916,o),
(1222,751,cs)
);
},
{
closed = 1;
nodes = (
(1041,878,o),
(1008,985,o),
(946,1058,cs),
(884,1131,o),
(794,1172,o),
(682,1172,cs),
(408,1172,l),
(281,142,l),
(554,142,ls),
(698,142,o),
(821,199,o),
(906,303,cs),
(991,407,o),
(1041,558,o),
(1041,747,cs)
);
}
);
width = 1260;
}
);
rightKerningGroup = D;
unicode = 68;
},
{
glyphname = Eth;
layers = (
{
layerId = "E33FAED1-6CF3-4816-84CB-8FA701D54EAB";
shapes = (
{
closed = 1;
nodes = (
(83,739,l),
(223,739,l),
(296,1328,l),
(759,1328,ls),
(1095,1328,o),
(1300,1086,o),
(1300,754,cs),
(1300,314,o),
(1003,0,o),
(596,0,cs),
(133,0,l),
(206,596,l),
(63,596,l)
);
},
{
closed = 1;
nodes = (
(1041,979,o),
(930,1128,o),
(734,1128,cs),
(525,1128,l),
(478,739,l),
(769,739,l),
(752,596,l),
(461,596,l),
(414,201,l),
(622,201,ls),
(875,201,o),
(1041,410,o),
(1041,747,cs)
);
}
);
width = 1309;
},
{
layerId = "30810D6C-99CD-409A-82EF-98D1F10F6C9D";
shapes = (
{
alignment = -1;
pos = (63,0);
ref = _2781;
},
{
alignment = -1;
ref = Dcroat;
}
);
width = 1279;
}
);
rightKerningGroup = D;
unicode = 208;
},
{
glyphname = E;
layers = (
{
layerId = "E33FAED1-6CF3-4816-84CB-8FA701D54EAB";
shapes = (
{
closed = 1;
nodes = (
(1032,1328,l),
(1009,1127,l),
(458,1127,l),
(413,765,l),
(844,765,l),
(820,572,l),
(390,572,l),
(344,201,l),
(894,201,l),
(870,0,l),
(64,0,l),
(227,1328,l)
);
}
);
width = 999;
},
{
layerId = "30810D6C-99CD-409A-82EF-98D1F10F6C9D";
shapes = (
{
closed = 1;
nodes = (
(999,1172,l),
(412,1172,l),
(358,732,l),
(832,732,l),
(815,594,l),
(341,594,l),
(286,142,l),
(874,142,l),
(857,0,l),
(90,0,l),
(252,1314,l),
(1017,1314,l)
);
}
);
width = 1000;
}
);
rightKerningGroup = E;
unicode = 69;
},
{
glyphname = Eogonek;
layers = (
{
layerId = "E33FAED1-6CF3-4816-84CB-8FA701D54EAB";
shapes = (
{
closed = 1;
nodes = (
(806,-175,o),
(813,-180,o),
(816,-191,cs),
(840,-282,l),
(797,-310,o),
(732,-331,o),
(664,-331,cs),
(551,-331,o),
(494,-277,o),
(494,-204,cs),
(494,-129,o),
(543,-59,o),
(639,0,c),
(64,0,l),
(227,1328,l),
(1032,1328,l),
(1009,1127,l),
(458,1127,l),
(413,765,l),
(844,765,l),
(820,572,l),
(390,572,l),
(344,201,l),
(894,201,l),
(870,0,l),
(783,0,l),
(731,-29,o),
(683,-76,o),
(683,-136,cs),
(683,-167,o),
(701,-189,o),
(732,-189,cs),
(774,-189,o),
(783,-175,o),
(795,-175,cs)
);
}
);
width = 999;
},
{
layerId = "30810D6C-99CD-409A-82EF-98D1F10F6C9D";
shapes = (
{
closed = 1;
nodes = (
(808,-202,o),
(814,-206,o),
(816,-214,cs),
(834,-277,l),
(794,-306,o),
(733,-327,o),
(672,-327,cs),
(573,-327,o),
(518,-279,o),
(518,-204,cs),
(518,-124,o),
(576,-52,o),
(660,0,c),
(90,0,l),
(252,1314,l),
(1017,1314,l),
(999,1172,l),
(412,1172,l),
(358,732,l),
(832,732,l),
(815,594,l),
(341,594,l),
(286,142,l),
(874,142,l),
(857,0,l),
(766,0,l),
(713,-29,o),
(650,-86,o),
(650,-157,cs),
(650,-198,o),
(677,-225,o),
(718,-225,cs),
(772,-225,o),
(789,-202,o),
(799,-202,cs)
);
}
);
width = 1000;
}
);
rightKerningGroup = E;
unicode = 280;
},
{
glyphname = F;
layers = (
{
layerId = "E33FAED1-6CF3-4816-84CB-8FA701D54EAB";
shapes = (
{
closed = 1;
nodes = (
(973,1127,l),
(451,1127,l),
(403,739,l),
(841,739,l),
(815,537,l),
(378,537,l),
(312,0,l),
(57,0,l),
(220,1328,l),
(997,1328,l)
);
}
);
width = 940;
},
{
layerId = "30810D6C-99CD-409A-82EF-98D1F10F6C9D";
shapes = (
{
closed = 1;
nodes = (
(970,1172,l),
(406,1172,l),
(349,708,l),
(831,708,l),
(812,565,l),
(332,565,l),
(263,0,l),
(85,0,l),
(247,1314,l),
(988,1314,l)
);
}
);
width = 941;
}
);
rightKerningGroup = F;
unicode = 70;
},
{
glyphname = G;
layers = (
{
layerId = "E33FAED1-6CF3-4816-84CB-8FA701D54EAB";
shapes = (
{
closed = 1;
nodes = (
(802,186,o),
(879,206,o),
(954,241,c),
(983,480,l),
(825,480,ls),
(794,480,o),
(775,497,o),
(778,524,cs),
(794,668,l),
(1235,668,l),
(1170,128,l),
(1026,29,o),
(865,-14,o),
(652,-14,cs),
(302,-14,o),
(68,239,o),
(68,582,cs),
(68,1025,o),
(393,1343,o),
(824,1343,cs),
(1056,1343,o),
(1196,1260,o),
(1292,1161,c),
(1211,1055,ls),
(1184,1020,o),
(1145,1009,o),
(1106,1036,c),
(1029,1084,o),
(961,1127,o),
(807,1127,cs),
(525,1127,o),
(327,910,o),
(327,590,cs),
(327,338,o),
(474,186,o),
(694,186,cs)
);
}
);
width = 1305;
},
{
layerId = "30810D6C-99CD-409A-82EF-98D1F10F6C9D";
shapes = (
{
closed = 1;
nodes = (
(809,127,o),
(899,156,o),
(990,204,c),
(1027,497,l),
(835,497,ls),
(812,497,o),
(797,511,o),
(800,530,c),
(810,630,l),
(1203,630,l),
(1140,127,l),
(1002,34,o),
(853,-14,o),
(644,-14,cs),
(311,-14,o),
(94,227,o),
(94,567,cs),
(94,1018,o),
(400,1329,o),
(817,1329,cs),
(1030,1329,o),
(1160,1256,o),
(1253,1158,c),
(1198,1084,ls),
(1178,1057,o),
(1154,1052,o),
(1125,1069,cs),
(1070,1103,o),
(997,1176,o),
(806,1176,cs),
(492,1176,o),
(274,940,o),
(274,573,cs),
(274,297,o),
(432,127,o),
(672,127,cs)
);
}
);
width = 1292;
}
);
leftKerningGroup = G2;
rightKerningGroup = G;
unicode = 71;
},
{
glyphname = H;
layers = (
{
layerId = "E33FAED1-6CF3-4816-84CB-8FA701D54EAB";
shapes = (
{
closed = 1;
nodes = (
(1120,0,l),
(864,0,l),
(936,579,l),
(386,579,l),
(315,0,l),
(60,0,l),
(223,1328,l),
(479,1328,l),
(408,757,l),
(958,757,l),
(1029,1328,l),
(1283,1328,l)
);
}
);
width = 1292;
},
{
layerId = "30810D6C-99CD-409A-82EF-98D1F10F6C9D";
shapes = (
{
closed = 1;
nodes = (
(1077,0,l),
(899,0,l),
(973,599,l),
(338,599,l),
(265,0,l),
(87,0,l),
(249,1314,l),
(426,1314,l),
(354,726,l),
(988,726,l),
(1061,1314,l),
(1238,1314,l)
);
}
);
width = 1276;
}
);
rightKerningGroup = H;
unicode = 72;
},
{
glyphname = Hbar;
layers = (
{
layerId = "E33FAED1-6CF3-4816-84CB-8FA701D54EAB";
shapes = (
{
closed = 1;
nodes = (
(1285,1097,l),
(1405,1097,l),
(1388,949,l),
(1267,949,l),
(1151,0,l),
(895,0,l),
(967,579,l),
(417,579,l),
(346,0,l),
(91,0,l),
(207,949,l),
(86,949,l),
(103,1097,l),
(225,1097,l),
(254,1328,l),
(510,1328,l),
(481,1097,l),
(1031,1097,l),
(1060,1328,l),
(1314,1328,l)
);
},
{
closed = 1;
nodes = (
(439,757,l),
(989,757,l),
(1013,949,l),
(463,949,l)
);
}
);
width = 1347;
},
{
layerId = "30810D6C-99CD-409A-82EF-98D1F10F6C9D";
shapes = (
{
closed = 1;
nodes = (
(1243,1057,l),
(1385,1057,l),
(1374,951,l),
(1230,951,l),
(1114,0,l),
(936,0,l),
(1010,599,l),
(375,599,l),
(302,0,l),
(124,0,l),
(241,951,l),
(99,951,l),
(111,1057,l),
(254,1057,l),
(286,1314,l),
(463,1314,l),
(431,1057,l),
(1066,1057,l),
(1098,1314,l),
(1275,1314,l)
);
},
{
closed = 1;
nodes = (
(391,726,l),
(1025,726,l),
(1053,951,l),
(418,951,l)
);
}
);
width = 1344;
}
);
unicode = 294;
},
{
glyphname = I;
layers = (
{
layerId = "E33FAED1-6CF3-4816-84CB-8FA701D54EAB";
shapes = (
{
closed = 1;
nodes = (
(345,0,l),
(90,0,l),
(252,1328,l),
(507,1328,l)
);
}
);
width = 546;
},
{
layerId = "30810D6C-99CD-409A-82EF-98D1F10F6C9D";
shapes = (
{
closed = 1;
nodes = (
(293,0,l),
(115,0,l),
(276,1314,l),
(453,1314,l)
);
}
);
width = 516;
}
);
unicode = 73;
},
{
glyphname = Iogonek;
layers = (
{
layerId = "E33FAED1-6CF3-4816-84CB-8FA701D54EAB";
shapes = (
{
closed = 1;
nodes = (
(330,-175,o),
(337,-180,o),
(340,-191,cs),
(364,-282,l),
(321,-310,o),
(256,-331,o),
(188,-331,cs),
(75,-331,o),
(18,-277,o),
(18,-204,cs),
(18,-129,o),
(67,-59,o),
(163,0,c),
(90,0,l),
(252,1328,l),
(507,1328,l),
(345,0,l),
(307,0,l),
(255,-29,o),
(207,-76,o),
(207,-136,cs),
(207,-167,o),
(225,-189,o),
(256,-189,cs),
(298,-189,o),
(307,-175,o),
(319,-175,cs)
);
}
);
width = 546;
},
{
layerId = "30810D6C-99CD-409A-82EF-98D1F10F6C9D";
shapes = (
{
closed = 1;
nodes = (
(306,-202,o),
(312,-206,o),
(314,-214,cs),
(332,-277,l),
(292,-306,o),
(231,-327,o),
(170,-327,cs),
(71,-327,o),
(16,-279,o),
(16,-204,cs),
(16,-124,o),
(74,-52,o),
(158,0,c),
(115,0,l),
(276,1314,l),
(453,1314,l),
(293,0,l),
(264,0,l),
(211,-29,o),
(148,-86,o),
(148,-157,cs),
(148,-198,o),
(175,-225,o),
(216,-225,cs),
(270,-225,o),
(287,-202,o),
(297,-202,cs)
);
}
);
width = 516;
}
);
unicode = 302;
},
{
glyphname = J;
layers = (
{
layerId = "E33FAED1-6CF3-4816-84CB-8FA701D54EAB";
shapes = (
{
closed = 1;
nodes = (
(587,465,l),
(550,171,o),
(403,-15,o),
(142,-15,cs),
(85,-15,o),
(27,-7,o),
(-32,9,c),
(-12,158,ls),
(-9,185,o),
(4,205,o),
(39,205,cs),
(66,205,o),
(99,193,o),
(144,193,cs),
(241,193,o),
(310,269,o),
(333,460,cs),
(437,1328,l),
(692,1328,l)
);
}
);
width = 678;
},
{
layerId = "30810D6C-99CD-409A-82EF-98D1F10F6C9D";
shapes = (
{
closed = 1;
nodes = (
(541,437,ls),
(505,146,o),
(368,-15,o),
(147,-15,cs),
(91,-15,o),
(41,-8,o),
(-11,11,c),
(3,114,ls),
(6,133,o),
(16,148,o),
(41,148,cs),
(64,148,o),
(94,133,o),
(150,133,cs),
(257,133,o),
(338,211,o),
(365,433,cs),
(473,1314,l),
(648,1314,l)
);
}
);
width = 653;
}
);
leftKerningGroup = J2;
rightKerningGroup = J;
unicode = 74;
},
{
glyphname = K;
layers = (
{
layerId = "E33FAED1-6CF3-4816-84CB-8FA701D54EAB";
shapes = (
{
closed = 1;
nodes = (
(398,772,l),
(442,772,ls),
(483,772,o),
(510,783,o),
(533,814,c),
(862,1276,l),
(894,1316,o),
(929,1328,o),
(980,1328,cs),
(1198,1328,l),
(780,776,l),
(752,741,o),
(726,719,o),
(695,704,c),
(734,689,o),
(761,664,o),
(782,621,c),
(1064,0,l),
(839,0,ls),
(780,0,o),
(762,20,o),
(746,49,c),
(527,537,ls),
(512,570,o),
(487,582,o),
(439,582,cs),
(374,582,l),
(302,0,l),
(51,0,l),
(213,1329,l),
(467,1329,l)
);
}
);
width = 1120;
},
{
layerId = "30810D6C-99CD-409A-82EF-98D1F10F6C9D";
shapes = (
{
closed = 1;
nodes = (
(352,738,l),
(406,738,ls),
(445,738,o),
(467,748,o),
(490,776,cs),
(891,1275,l),
(918,1306,o),
(944,1314,o),
(981,1314,cs),
(1131,1314,l),
(663,746,ls),
(639,718,o),
(615,699,o),
(590,688,c),
(621,676,o),
(642,657,o),
(661,624,c),
(998,0,l),
(845,0,ls),
(801,0,o),
(788,14,o),
(775,37,cs),
(485,560,ls),
(468,591,o),
(450,602,o),
(402,602,cs),
(335,602,l),
(261,0,l),
(86,0,l),
(247,1315,l),
(423,1315,l)
);
}
);
width = 1064;
}
);
rightKerningGroup = K;
unicode = 75;
},
{
glyphname = L;
layers = (
{
layerId = "E33FAED1-6CF3-4816-84CB-8FA701D54EAB";
shapes = (
{
closed = 1;
nodes = (
(336,209,l),
(804,209,l),
(780,0,l),
(57,0,l),
(220,1328,l),
(474,1328,l)
);
}
);
width = 866;
},
{
layerId = "30810D6C-99CD-409A-82EF-98D1F10F6C9D";
shapes = (
{
closed = 1;
nodes = (
(281,148,l),
(792,148,l),
(774,0,l),
(86,0,l),
(248,1314,l),
(424,1314,l)
);
}
);
width = 861;
}
);
rightKerningGroup = L;
unicode = 76;
},
{
glyphname = Lslash;
layers = (
{
layerId = "E33FAED1-6CF3-4816-84CB-8FA701D54EAB";
shapes = (
{
closed = 1;
nodes = (
(445,806,l),
(743,967,l),
(720,796,ls),
(717,771,o),
(703,757,o),
(684,746,cs),
(420,598,l),
(372,209,l),
(840,209,l),
(816,0,l),
(93,0,l),
(151,472,l),
(6,400,l),
(29,573,ls),
(32,594,o),
(43,610,o),
(61,619,cs),
(176,679,l),
(256,1328,l),
(510,1328,l)
);
}
);
width = 886;
},
{
layerId = "30810D6C-99CD-409A-82EF-98D1F10F6C9D";
shapes = (
{
closed = 1;
nodes = (
(400,746,l),
(715,917,l),
(700,800,ls),
(698,782,o),
(689,768,o),
(672,759,cs),
(382,599,l),
(327,148,l),
(838,148,l),
(820,0,l),
(132,0,l),
(195,509,l),
(24,421,l),
(39,541,ls),
(41,556,o),
(50,569,o),
(66,578,cs),
(213,655,l),
(294,1314,l),
(470,1314,l)
);
}
);
width = 880;
}
);
unicode = 321;
},
{
glyphname = Lcaron;
layers = (
{
layerId = "E33FAED1-6CF3-4816-84CB-8FA701D54EAB";
shapes = (
{
closed = 1;
nodes = (
(293,209,l),
(761,209,l),
(737,0,l),
(14,0,l),
(177,1328,l),
(431,1328,l)
);
},
{
closed = 1;
nodes = (
(822,1365,ls),
(853,1365,o),
(857,1350,o),
(857,1337,cs),
(857,1326,o),
(855,1314,o),
(839,1279,cs),
(823,1244,o),
(793,1188,o),
(740,1089,cs),
(720,1052,o),
(695,1047,o),
(656,1047,cs),
(573,1047,l),
(667,1365,l)
);
}
);
width = 881;
},
{
layerId = "30810D6C-99CD-409A-82EF-98D1F10F6C9D";
shapes = (
{
closed = 1;
nodes = (
(219,148,l),
(730,148,l),
(712,0,l),
(24,0,l),
(186,1314,l),
(362,1314,l)
);
},
{
closed = 1;
nodes = (
(767,1352,ls),
(788,1352,o),
(793,1340,o),
(793,1327,cs),
(793,1315,o),
(790,1301,o),
(776,1266,cs),
(762,1230,o),
(736,1175,o),
(692,1086,c),
(677,1058,o),
(661,1053,o),
(630,1053,cs),
(574,1053,l),
(660,1352,l)
);
}
);
width = 866;
}
);
unicode = 317;
},
{
glyphname = M;
layers = (
{
layerId = "E33FAED1-6CF3-4816-84CB-8FA701D54EAB";
shapes = (
{
closed = 1;
nodes = (
(852,546,l),
(864,511,o),
(874,477,o),
(883,441,c),
(900,478,o),
(918,513,o),
(937,545,c),
(1469,1285,l),
(1493,1322,o),
(1510,1328,o),
(1553,1328,cs),
(1746,1328,l),
(1583,0,l),
(1360,0,l),
(1471,839,l),
(1475,878,o),
(1484,929,o),
(1495,978,c),
(968,213,l),
(946,177,o),
(914,159,o),
(873,159,cs),
(838,159,ls),
(798,159,o),
(769,177,o),
(754,213,c),
(417,973,l),
(417,926,o),
(415,879,o),
(412,843,c),
(303,0,l),
(80,0,l),
(242,1328,l),
(432,1328,ls),
(476,1328,o),
(492,1322,o),
(515,1288,c)
);
}
);
width = 1790;
},
{
layerId = "30810D6C-99CD-409A-82EF-98D1F10F6C9D";
shapes = (
{
closed = 1;
nodes = (
(839,462,l),
(848,438,o),
(855,415,o),
(862,388,c),
(873,414,o),
(886,439,o),
(901,463,c),
(1488,1282,l),
(1507,1310,o),
(1518,1314,o),
(1550,1314,cs),
(1679,1314,l),
(1518,0,l),
(1362,0,l),
(1487,964,l),
(1490,992,o),
(1497,1029,o),
(1505,1064,c),
(923,230,l),
(907,204,o),
(884,191,o),
(855,191,cs),
(830,191,ls),
(800,191,o),
(780,204,o),
(769,230,c),
(388,1063,l),
(387,1028,o),
(386,995,o),
(383,968,cs),
(262,0,l),
(107,0,l),
(268,1314,l),
(396,1314,ls),
(428,1314,o),
(437,1308,o),
(456,1283,c)
);
}
);
width = 1751;
}
);
unicode = 77;
},
{
glyphname = N;
layers = (
{
layerId = "E33FAED1-6CF3-4816-84CB-8FA701D54EAB";
shapes = (
{
closed = 1;
nodes = (
(363,1328,ls),
(407,1328,o),
(420,1323,o),
(441,1288,cs),
(988,401,l),
(991,441,o),
(994,478,o),
(998,509,cs),
(1100,1328,l),
(1324,1328,l),
(1161,0,l),
(1030,0,ls),
(991,0,o),
(968,12,o),
(948,44,cs),
(401,930,l),
(398,897,o),
(397,868,o),
(394,841,cs),
(290,0,l),
(66,0,l),
(229,1328,l)
);
}
);
width = 1344;
},
{
layerId = "30810D6C-99CD-409A-82EF-98D1F10F6C9D";
shapes = (
{
closed = 1;
nodes = (
(345,1314,ls),
(376,1314,o),
(386,1311,o),
(401,1284,c),
(993,287,l),
(996,315,o),
(997,341,o),
(1000,364,cs),
(1118,1314,l),
(1274,1314,l),
(1113,0,l),
(1024,0,ls),
(996,0,o),
(979,10,o),
(964,34,cs),
(371,1031,l),
(370,1008,o),
(369,985,o),
(366,966,c),
(247,0,l),
(92,0,l),
(254,1314,l)
);
}
);
width = 1320;
}
);
unicode = 78;
},
{
glyphname = Eng;
layers = (
{
layerId = "E33FAED1-6CF3-4816-84CB-8FA701D54EAB";
shapes = (
{
closed = 1;
nodes = (
(1171,111,l),
(1166,64,l),
(1165,63,l),
(1162,38,ls),
(1138,-174,o),
(1029,-327,o),
(793,-327,cs),
(729,-327,o),
(687,-315,o),
(632,-290,c),
(670,-190,l),
(683,-153,o),
(702,-145,o),
(725,-145,cs),
(744,-145,o),
(757,-156,o),
(793,-156,cs),
(877,-156,o),
(920,-103,o),
(935,12,cs),
(940,53,l),
(421,916,l),
(420,876,o),
(417,837,o),
(413,805,cs),
(314,0,l),
(91,0,l),
(254,1328,l),
(386,1328,ls),
(430,1328,o),
(445,1321,o),
(466,1286,cs),
(991,414,l),
(992,457,o),
(995,497,o),
(1000,532,c),
(1099,1328,l),
(1321,1328,l),
(1191,272,l),
(1193,272,l)
);
}
);
width = 1305;
},
{
layerId = "30810D6C-99CD-409A-82EF-98D1F10F6C9D";
shapes = (
{
closed = 1;
nodes = (
(369,1314,ls),
(400,1314,o),
(410,1309,o),
(425,1282,cs),
(997,292,l),
(998,323,o),
(1001,352,o),
(1004,379,cs),
(1119,1314,l),
(1273,1314,l),
(1118,43,l),
(1117,43,l),
(1113,5,ls),
(1089,-194,o),
(990,-328,o),
(790,-328,cs),
(734,-328,o),
(694,-318,o),
(646,-295,c),
(673,-226,ls),
(684,-199,o),
(698,-193,o),
(713,-193,cs),
(728,-193,o),
(747,-207,o),
(790,-207,cs),
(884,-207,o),
(939,-142,o),
(955,-13,cs),
(961,38,l),
(394,1021,l),
(393,992,o),
(391,964,o),
(388,941,cs),
(271,0,l),
(117,0,l),
(279,1314,l)
);
}
);
width = 1284;
}
);
unicode = 330;
},
{
glyphname = O;
layers = (
{
layerId = "E33FAED1-6CF3-4816-84CB-8FA701D54EAB";
shapes = (
{
closed = 1;
nodes = (
(1353,314,o),
(1043,-14,o),
(625,-14,cs),
(278,-14,o),
(64,241,o),
(64,577,cs),
(64,1015,o),
(374,1343,o),
(793,1343,cs),
(1139,1343,o),
(1353,1086,o),
(1353,750,cs)
);
},
{
closed = 1;
nodes = (
(1093,980,o),
(969,1135,o),
(762,1135,cs),
(495,1135,o),
(323,915,o),
(323,583,cs),
(323,347,o),
(445,194,o),
(653,194,cs),
(921,194,o),
(1093,413,o),
(1093,745,cs)
);
}
);
width = 1369;
},
{
layerId = "30810D6C-99CD-409A-82EF-98D1F10F6C9D";
shapes = (
{
closed = 1;
nodes = (
(1303,304,o),
(1008,-14,o),
(613,-14,cs),
(290,-14,o),
(90,228,o),
(90,563,cs),
(90,1008,o),
(386,1329,o),
(779,1329,cs),
(1102,1329,o),
(1303,1084,o),
(1303,751,cs)
);
},
{
closed = 1;
nodes = (
(1121,1011,o),
(984,1182,o),
(757,1182,cs),
(472,1182,o),
(270,940,o),
(270,567,cs),
(270,303,o),
(408,133,o),
(633,133,cs),
(920,133,o),
(1121,371,o),
(1121,747,cs)
);
}
);
width = 1340;
}
);
leftKerningGroup = O2;
rightKerningGroup = O;
unicode = 79;
},
{
glyphname = Oslash;
layers = (
{
layerId = "E33FAED1-6CF3-4816-84CB-8FA701D54EAB";
shapes = (
{
closed = 1;
nodes = (
(1375,314,o),
(1065,-14,o),
(647,-14,cs),
(530,-14,o),
(428,15,o),
(344,66,c),
(263,-34,ls),
(222,-85,o),
(165,-103,o),
(118,-103,cs),
(18,-103,l),
(232,160,l),
(137,267,o),
(86,410,o),
(86,577,cs),
(86,1015,o),
(396,1343,o),
(815,1343,cs),
(936,1343,o),
(1039,1313,o),
(1124,1257,c),
(1178,1324,ls),
(1215,1370,o),
(1234,1387,o),
(1289,1387,cs),
(1418,1387,l),
(1234,1161,l),
(1326,1056,o),
(1375,913,o),
(1375,750,cs)
);
},
{
closed = 1;
nodes = (
(345,494,o),
(361,419,o),
(393,358,c),
(976,1076,l),
(925,1115,o),
(860,1135,o),
(784,1135,cs),
(517,1135,o),
(345,915,o),
(345,583,cs)
);
},
{
closed = 1;
nodes = (
(1115,828,o),
(1099,900,o),
(1070,960,c),
(490,246,l),
(541,211,o),
(602,194,o),
(675,194,cs),
(943,194,o),
(1115,413,o),
(1115,745,cs)
);
}
);
width = 1387;
},
{
layerId = "30810D6C-99CD-409A-82EF-98D1F10F6C9D";
shapes = (
{
closed = 1;
nodes = (
(1305,304,o),
(1010,-14,o),
(615,-14,cs),
(496,-14,o),
(396,18,o),
(315,74,c),
(217,-49,l),
(186,-86,o),
(148,-100,o),
(113,-100,cs),
(42,-100,l),
(237,144,l),
(144,247,o),
(92,391,o),
(92,563,cs),
(92,1008,o),
(388,1329,o),
(781,1329,cs),
(909,1329,o),
(1016,1292,o),
(1100,1224,c),
(1182,1326,ls),
(1209,1361,o),
(1223,1373,o),
(1263,1373,cs),
(1354,1373,l),
(1176,1150,l),
(1260,1049,o),
(1305,911,o),
(1305,751,cs)
);
},
{
closed = 1;
nodes = (
(272,450,o),
(298,354,o),
(346,281,c),
(996,1094,l),
(936,1151,o),
(855,1182,o),
(759,1182,cs),
(474,1182,o),
(272,940,o),
(272,567,cs)
);
},
{
closed = 1;
nodes = (
(1123,851,o),
(1102,938,o),
(1063,1009,c),
(418,203,l),
(477,156,o),
(549,133,o),
(635,133,cs),
(922,133,o),
(1123,371,o),
(1123,747,cs)
);
}
);
width = 1347;
}
);
unicode = 216;
},
{
glyphname = OE;
layers = (
{
layerId = "E33FAED1-6CF3-4816-84CB-8FA701D54EAB";
shapes = (
{
closed = 1;
nodes = (
(1832,1328,l),
(1807,1127,l),
(1288,1127,l),
(1245,765,l),
(1648,765,l),
(1624,571,l),
(1221,571,l),
(1176,201,l),
(1693,201,l),
(1669,0,l),
(927,0,l),
(945,149,l),
(838,45,o),
(702,-14,o),
(545,-14,cs),
(243,-14,o),
(61,235,o),
(61,564,cs),
(61,1008,o),
(338,1343,o),
(710,1343,cs),
(870,1343,o),
(989,1273,o),
(1069,1157,c),
(1090,1328,l)
);
},
{
closed = 1;
nodes = (
(985,983,o),
(888,1142,o),
(712,1142,cs),
(475,1142,o),
(320,907,o),
(320,571,cs),
(320,343,o),
(417,187,o),
(595,187,cs),
(832,187,o),
(985,418,o),
(985,756,cs)
);
}
);
width = 1790;
},
{
layerId = "30810D6C-99CD-409A-82EF-98D1F10F6C9D";
shapes = (
{
closed = 1;
nodes = (
(1785,1172,l),
(1238,1172,l),
(1184,731,l),
(1623,731,l),
(1606,593,l),
(1167,593,l),
(1112,142,l),
(1659,142,l),
(1640,0,l),
(937,0,l),
(961,197,l),
(856,64,o),
(709,-13,o),
(536,-13,cs),
(258,-13,o),
(87,223,o),
(87,551,cs),
(87,1003,o),
(351,1329,o),
(699,1329,cs),
(874,1329,o),
(1000,1236,o),
(1071,1088,c),
(1099,1314,l),
(1802,1314,l)
);
},
{
closed = 1;
nodes = (
(1003,1015,o),
(893,1187,o),
(701,1187,cs),
(446,1187,o),
(267,933,o),
(267,556,cs),
(267,298,o),
(379,129,o),
(572,129,cs),
(827,129,o),
(1003,379,o),
(1003,758,cs)
);
}
);
width = 1775;
}
);
leftKerningGroup = O2;
rightKerningGroup = E;
unicode = 338;
},
{
glyphname = P;
layers = (
{
layerId = "E33FAED1-6CF3-4816-84CB-8FA701D54EAB";
shapes = (
{
closed = 1;
nodes = (
(376,464,l),
(319,0,l),
(68,0,l),
(230,1328,l),
(650,1328,ls),
(961,1328,o),
(1095,1172,o),
(1095,958,cs),
(1095,673,o),
(915,464,o),
(544,464,cs)
);
},
{
closed = 1;
nodes = (
(460,1134,l),
(401,661,l),
(568,661,ls),
(757,661,o),
(840,774,o),
(840,938,cs),
(840,1056,o),
(773,1134,o),
(626,1134,cs)
);
}
);
width = 1090;
},
{
layerId = "30810D6C-99CD-409A-82EF-98D1F10F6C9D";
shapes = (
{
closed = 1;
nodes = (
(341,492,l),
(281,0,l),
(106,0,l),
(267,1314,l),
(638,1314,ls),
(924,1314,o),
(1056,1175,o),
(1056,964,cs),
(1056,689,o),
(869,492,o),
(536,492,cs)
);
},
{
closed = 1;
nodes = (
(426,1177,l),
(358,630,l),
(553,630,ls),
(764,630,o),
(879,764,o),
(879,948,cs),
(879,1089,o),
(796,1177,o),
(621,1177,cs)
);
}
);
width = 1058;
}
);
rightKerningGroup = P;
unicode = 80;
},
{
glyphname = Thorn;
layers = (
{
layerId = "E33FAED1-6CF3-4816-84CB-8FA701D54EAB";
shapes = (
{
closed = 1;
nodes = (
(512,1101,l),
(680,1101,ls),
(833,1101,o),
(945,1061,o),
(1018,996,cs),
(1091,931,o),
(1125,837,o),
(1125,732,cs),
(1125,589,o),
(1079,466,o),
(987,379,cs),
(895,291,o),
(758,239,o),
(574,239,cs),
(405,239,l),
(376,0,l),
(125,0,l),
(286,1328,l),
(540,1328,l)
);
},
{
closed = 1;
nodes = (
(487,905,l),
(429,435,l),
(597,435,ls),
(693,435,o),
(761,464,o),
(806,513,cs),
(850,561,o),
(871,631,o),
(871,712,cs),
(871,829,o),
(802,905,o),
(655,905,cs)
);
}
);
width = 1090;
},
{
layerId = "30810D6C-99CD-409A-82EF-98D1F10F6C9D";
shapes = (
{
closed = 1;
nodes = (
(470,1070,l),
(665,1070,ls),
(808,1070,o),
(913,1035,o),
(982,975,cs),
(1050,914,o),
(1084,827,o),
(1084,722,cs),
(1084,583,o),
(1037,466,o),
(949,383,cs),
(860,299,o),
(730,250,o),
(565,250,cs),
(369,250,l),
(338,0,l),
(163,0,l),
(324,1314,l),
(500,1314,l)
);
},
{
closed = 1;
nodes = (
(453,932,l),
(386,388,l),
(582,388,ls),
(687,388,o),
(768,422,o),
(823,478,cs),
(878,534,o),
(907,614,o),
(907,706,cs),
(907,847,o),
(824,932,o),
(647,932,cs)
);
}
);
width = 1058;
}
);
unicode = 222;
},
{
glyphname = Q;
layers = (
{
layerId = "E33FAED1-6CF3-4816-84CB-8FA701D54EAB";
shapes = (
{
closed = 1;
nodes = (
(1375,606,o),
(1342,475,o),
(1282,363,cs),
(1222,250,o),
(1135,157,o),
(1030,92,c),
(1294,-259,l),
(1087,-259,ls),
(1027,-259,o),
(981,-245,o),
(949,-200,c),
(800,1,l),
(751,-8,o),
(700,-14,o),
(647,-14,cs),
(474,-14,o),
(333,50,o),
(237,156,cs),
(140,262,o),
(86,409,o),
(86,577,cs),
(86,796,o),
(164,988,o),
(294,1125,cs),
(424,1261,o),
(606,1343,o),
(815,1343,cs),
(988,1343,o),
(1128,1279,o),
(1225,1173,cs),
(1321,1067,o),
(1375,918,o),
(1375,750,cs)
);
},
{
closed = 1;
nodes = (
(1115,862,o),
(1084,960,o),
(1027,1028,cs),
(970,1096,o),
(888,1135,o),
(784,1135,cs),
(651,1135,o),
(541,1080,o),
(465,984,cs),
(388,887,o),
(345,748,o),
(345,583,cs),
(345,464,o),
(376,368,o),
(432,300,cs),
(488,232,o),
(571,194,o),
(675,194,cs),
(808,194,o),
(919,249,o),
(996,345,cs),
(1072,441,o),
(1115,578,o),
(1115,745,cs)
);
}
);
width = 1387;
},
{
layerId = "30810D6C-99CD-409A-82EF-98D1F10F6C9D";
shapes = (
{
closed = 1;
nodes = (
(1311,603,o),
(1278,469,o),
(1221,357,cs),
(1164,244,o),
(1081,152,o),
(980,88,c),
(1249,-272,l),
(1106,-272,ls),
(1063,-272,o),
(1031,-261,o),
(1008,-230,cs),
(827,17,l),
(762,-3,o),
(693,-14,o),
(621,-14,cs),
(460,-14,o),
(329,46,o),
(239,149,cs),
(149,252,o),
(98,395,o),
(98,563,cs),
(98,786,o),
(172,977,o),
(295,1113,cs),
(418,1249,o),
(591,1329,o),
(787,1329,cs),
(948,1329,o),
(1079,1268,o),
(1170,1165,cs),
(1261,1062,o),
(1311,918,o),
(1311,751,cs)
);
},
{
closed = 1;
nodes = (
(1129,879,o),
(1095,988,o),
(1032,1064,cs),
(969,1139,o),
(878,1182,o),
(765,1182,cs),
(622,1182,o),
(501,1122,o),
(415,1015,cs),
(329,907,o),
(278,754,o),
(278,567,cs),
(278,435,o),
(312,327,o),
(375,251,cs),
(438,175,o),
(529,133,o),
(641,133,cs),
(785,133,o),
(907,192,o),
(993,299,cs),
(1079,406,o),
(1129,559,o),
(1129,747,cs)
);
}
);
width = 1360;
}
);
leftKerningGroup = O2;
unicode = 81;
},
{
glyphname = R;
layers = (
{
layerId = "E33FAED1-6CF3-4816-84CB-8FA701D54EAB";
shapes = (
{
closed = 1;
nodes = (
(385,516,l),
(321,0,l),
(70,0,l),
(232,1328,l),
(626,1328,ls),
(946,1328,o),
(1080,1188,o),
(1080,993,cs),
(1080,791,o),
(960,629,o),
(757,565,c),
(787,548,o),
(811,522,o),
(828,488,cs),
(1073,0,l),
(846,0,ls),
(803,0,o),
(774,19,o),
(759,50,cs),
(561,470,ls),
(546,502,o),
(527,516,o),
(480,516,cs)
);
},
{
closed = 1;
nodes = (
(461,1134,l),
(407,695,l),
(547,695,ls),
(742,695,o),
(827,811,o),
(827,955,cs),
(827,1068,o),
(756,1134,o),
(603,1134,cs)
);
}
);
width = 1153;
},
{
layerId = "30810D6C-99CD-409A-82EF-98D1F10F6C9D";
shapes = (
{
closed = 1;
nodes = (
(348,550,l),
(281,0,l),
(106,0,l),
(267,1314,l),
(621,1314,ls),
(907,1314,o),
(1036,1191,o),
(1036,999,cs),
(1036,789,o),
(902,628,o),
(687,578,c),
(708,563,o),
(725,545,o),
(738,522,cs),
(1027,0,l),
(870,0,ls),
(839,0,o),
(817,13,o),
(803,38,cs),
(551,508,l),
(536,539,o),
(519,550,o),
(472,550,cs)
);
},
{
closed = 1;
nodes = (
(425,1177,l),
(364,677,l),
(535,677,ls),
(747,677,o),
(861,801,o),
(861,972,cs),
(861,1105,o),
(775,1177,o),
(604,1177,cs)
);
}
);
width = 1112;
}
);
rightKerningGroup = R;
unicode = 82;
},
{
glyphname = S;
layers = (
{
layerId = "E33FAED1-6CF3-4816-84CB-8FA701D54EAB";
shapes = (
{
closed = 1;
nodes = (
(897,1083,l),
(878,1058,o),
(864,1047,o),
(837,1047,cs),
(789,1047,o),
(734,1139,o),
(590,1139,cs),
(451,1139,o),
(375,1060,o),
(375,956,cs),
(375,737,o),
(903,806,o),
(903,460,cs),
(903,202,o),
(709,-14,o),
(397,-14,cs),
(233,-14,o),
(76,55,o),
(-12,159,c),
(78,277,ls),
(91,294,o),
(116,309,o),
(139,309,cs),
(200,309,o),
(254,187,o),
(427,187,cs),
(574,187,o),
(659,266,o),
(659,399,cs),
(659,640,o),
(135,524,o),
(135,903,cs),
(135,1132,o),
(316,1341,o),
(613,1341,cs),
(766,1341,o),
(897,1278,o),
(972,1189,c)
);
}
);
width = 953;
},
{
layerId = "30810D6C-99CD-409A-82EF-98D1F10F6C9D";
shapes = (
{
closed = 1;
nodes = (
(873,1109,ls),
(860,1090,o),
(849,1082,o),
(830,1082,cs),
(788,1082,o),
(743,1183,o),
(582,1183,cs),
(420,1183,o),
(328,1081,o),
(328,954,cs),
(328,698,o),
(859,748,o),
(859,442,cs),
(859,194,o),
(677,-14,o),
(385,-14,cs),
(224,-14,o),
(94,53,o),
(11,158,c),
(73,241,ls),
(84,256,o),
(100,264,o),
(116,264,cs),
(165,264,o),
(216,131,o),
(407,131,cs),
(581,131,o),
(689,240,o),
(689,400,cs),
(689,668,o),
(161,538,o),
(161,917,cs),
(161,1132,o),
(326,1327,o),
(599,1327,cs),
(738,1327,o),
(852,1272,o),
(925,1183,c)
);
}
);
width = 926;
}
);
leftKerningGroup = S2;
rightKerningGroup = S;
unicode = 83;
},
{
glyphname = Scedilla;
layers = (
{
layerId = "E33FAED1-6CF3-4816-84CB-8FA701D54EAB";
shapes = (
{
closed = 1;
nodes = (
(303,-214,o),
(317,-229,o),
(349,-229,cs),
(386,-229,o),
(405,-206,o),
(405,-183,cs),
(405,-151,o),
(371,-138,o),
(287,-127,c),
(332,-10,l),
(191,5,o),
(65,67,o),
(-12,159,c),
(78,277,ls),
(91,294,o),
(116,309,o),
(139,309,cs),
(200,309,o),
(254,187,o),
(427,187,cs),
(574,187,o),
(659,266,o),
(659,399,cs),
(659,640,o),
(135,524,o),
(135,903,cs),
(135,1132,o),
(316,1341,o),
(613,1341,cs),
(766,1341,o),
(897,1278,o),
(972,1189,c),
(897,1083,l),
(878,1058,o),
(864,1047,o),
(837,1047,cs),
(789,1047,o),
(734,1139,o),
(590,1139,cs),
(451,1139,o),
(375,1060,o),
(375,956,cs),
(375,737,o),
(903,806,o),
(903,460,cs),
(903,228,o),
(746,30,o),
(487,-7,c),
(471,-50,l),
(564,-75,o),
(597,-120,o),
(597,-175,cs),
(597,-273,o),
(493,-333,o),
(353,-333,cs),
(304,-333,o),
(264,-327,o),
(223,-312,c),
(256,-236,l),
(263,-223,o),
(270,-214,o),
(285,-214,cs)
);
}
);
width = 953;
},
{
layerId = "30810D6C-99CD-409A-82EF-98D1F10F6C9D";
shapes = (
{
closed = 1;
nodes = (
(290,-237,o),
(306,-260,o),
(355,-260,cs),
(406,-260,o),
(435,-231,o),
(435,-194,cs),
(435,-150,o),
(388,-136,o),
(303,-124,c),
(347,-13,l),
(202,-2,o),
(87,61,o),
(11,158,c),
(73,241,ls),
(84,256,o),
(100,264,o),
(116,264,cs),
(165,264,o),
(216,131,o),
(407,131,cs),
(581,131,o),
(689,240,o),
(689,400,cs),
(689,668,o),
(161,538,o),
(161,917,cs),
(161,1132,o),
(326,1327,o),
(599,1327,cs),
(738,1327,o),
(852,1272,o),
(925,1183,c),
(873,1109,ls),
(860,1090,o),
(849,1082,o),
(830,1082,cs),
(788,1082,o),
(743,1183,o),
(582,1183,cs),
(420,1183,o),
(328,1081,o),
(328,954,cs),
(328,698,o),
(859,748,o),
(859,442,cs),
(859,215,o),
(706,20,o),
(456,-9,c),
(434,-66,l),
(527,-89,o),
(569,-128,o),
(569,-188,cs),
(569,-280,o),
(479,-336,o),
(355,-336,cs),
(307,-336,o),
(263,-324,o),
(228,-305,c),
(251,-253,ls),
(256,-242,o),
(262,-237,o),
(274,-237,cs)
);
}
);
width = 926;
}
);
leftKerningGroup = S2;
rightKerningGroup = S;
unicode = 350;
},
{
glyphname = T;
layers = (
{
layerId = "E33FAED1-6CF3-4816-84CB-8FA701D54EAB";
shapes = (
{
closed = 1;
nodes = (
(1102,1328,l),
(1076,1121,l),
(715,1121,l),
(578,0,l),
(326,0,l),
(462,1121,l),
(102,1121,l),
(127,1328,l)
);
}
);
width = 1014;
},
{
layerId = "30810D6C-99CD-409A-82EF-98D1F10F6C9D";
shapes = (
{
closed = 1;
nodes = (
(1080,1314,l),
(1062,1167,l),
(675,1167,l),
(532,0,l),
(357,0,l),
(499,1167,l),
(112,1167,l),
(129,1314,l)
);
}
);
width = 998;
}
);
leftKerningGroup = T2;
rightKerningGroup = T;
unicode = 84;
},
{
glyphname = Tbar;
layers = (
{
layerId = "E33FAED1-6CF3-4816-84CB-8FA701D54EAB";
shapes = (
{
closed = 1;
nodes = (
(1076,1121,l),
(715,1121,l),
(674,782,l),
(932,782,l),
(914,639,l),
(656,639,l),
(578,0,l),
(326,0,l),
(404,639,l),
(140,639,l),
(157,782,l),
(421,782,l),
(463,1121,l),
(102,1121,l),
(127,1328,l),
(1102,1328,l)
);
}
);
width = 1014;
},
{
layerId = "30810D6C-99CD-409A-82EF-98D1F10F6C9D";
shapes = (
{
closed = 1;
nodes = (
(1062,1167,l),
(675,1167,l),
(627,781,l),
(901,781,l),
(890,678,l),
(615,678,l),
(532,0,l),
(357,0,l),
(439,678,l),
(166,678,l),
(178,781,l),
(452,781,l),
(499,1167,l),
(112,1167,l),
(129,1314,l),
(1080,1314,l)
);
}
);
width = 998;
}
);
unicode = 358;
},
{
glyphname = U;
layers = (
{
layerId = "E33FAED1-6CF3-4816-84CB-8FA701D54EAB";
shapes = (
{
closed = 1;
nodes = (
(727,203,o),
(806,236,o),
(865,294,cs),
(924,352,o),
(962,433,o),
(974,533,cs),
(1072,1328,l),
(1325,1328,l),
(1227,533,ls),
(1207,374,o),
(1138,239,o),
(1031,141,cs),
(924,43,o),
(779,-15,o),
(607,-15,cs),
(436,-15,o),
(305,43,o),
(221,141,cs),
(137,239,o),
(101,374,o),
(121,533,cs),
(218,1328,l),
(470,1328,l),
(373,533,ls),
(361,433,o),
(377,352,o),
(421,294,cs),
(465,236,o),
(536,203,o),
(632,203,cs)
);
}
);
width = 1337;
},
{
layerId = "30810D6C-99CD-409A-82EF-98D1F10F6C9D";
shapes = (
{
closed = 1;
nodes = (
(722,138,o),
(811,177,o),
(878,244,cs),
(945,311,o),
(988,405,o),
(1001,514,cs),
(1100,1314,l),
(1277,1314,l),
(1178,514,ls),
(1159,363,o),
(1094,231,o),
(994,136,cs),
(893,41,o),
(757,-15,o),
(597,-15,cs),
(438,-15,o),
(317,41,o),
(240,136,cs),
(163,231,o),
(129,363,o),
(148,514,cs),
(245,1314,l),
(421,1314,l),
(324,515,ls),
(309,406,o),
(330,312,o),
(379,245,cs),
(428,177,o),
(508,138,o),
(615,138,cs)
);
}
);
width = 1314;
}
);
leftKerningGroup = U2;
rightKerningGroup = U;
unicode = 85;
},
{
glyphname = Uogonek;
layers = (
{
layerId = "E33FAED1-6CF3-4816-84CB-8FA701D54EAB";
shapes = (
{
closed = 1;
nodes = (
(749,-175,o),
(756,-180,o),
(759,-191,cs),
(783,-282,l),
(740,-310,o),
(675,-331,o),
(607,-331,cs),
(494,-331,o),
(437,-277,o),
(437,-204,cs),
(437,-136,o),
(477,-69,o),
(560,-13,c),
(248,6,o),
(84,232,o),
(121,533,cs),
(218,1328,l),
(470,1328,l),
(373,533,ls),
(349,334,o),
(439,203,o),
(632,203,cs),
(821,203,o),
(950,334,o),
(974,533,cs),
(1072,1328,l),
(1325,1328,l),
(1227,533,ls),
(1192,250,o),
(998,37,o),
(716,-6,c),
(668,-37,o),
(626,-80,o),
(626,-136,cs),
(626,-167,o),
(644,-189,o),
(675,-189,cs),
(717,-189,o),
(726,-175,o),
(738,-175,cs)
);
}
);
width = 1337;
},
{
layerId = "30810D6C-99CD-409A-82EF-98D1F10F6C9D";
shapes = (
{
closed = 1;
nodes = (
(741,-202,o),
(747,-206,o),
(749,-214,cs),
(767,-277,l),
(727,-306,o),
(666,-327,o),
(605,-327,cs),
(506,-327,o),
(451,-279,o),
(451,-204,cs),
(451,-131,o),
(500,-65,o),
(572,-14,c),
(272,-3,o),
(111,220,o),
(148,514,c),
(245,1314,l),
(421,1314,l),
(324,515,l),
(295,297,o),
(402,138,o),
(615,138,cs),
(828,138,o),
(974,295,o),
(1001,514,cs),
(1100,1314,l),
(1277,1314,l),
(1178,514,l),
(1143,240,o),
(956,28,o),
(684,-9,c),
(635,-42,o),
(583,-91,o),
(583,-157,cs),
(583,-198,o),
(610,-225,o),
(651,-225,cs),
(705,-225,o),
(722,-202,o),
(732,-202,cs)
);
}
);
width = 1314;
}
);
leftKerningGroup = U2;
rightKerningGroup = U;
unicode = 370;
},
{
glyphname = V;
layers = (
{
layerId = "E33FAED1-6CF3-4816-84CB-8FA701D54EAB";
shapes = (
{
closed = 1;
nodes = (
(110,1328,l),
(313,1328,ls),
(357,1328,o),
(383,1304,o),
(390,1272,cs),
(558,471,ls),
(569,416,o),
(581,352,o),
(589,283,c),
(612,352,o),
(637,417,o),
(662,473,cs),
(1021,1271,ls),
(1034,1299,o),
(1070,1328,o),
(1113,1328,cs),
(1317,1328,l),
(665,0,l),
(436,0,l)
);
}
);
width = 1211;
},
{
layerId = "30810D6C-99CD-409A-82EF-98D1F10F6C9D";
shapes = (
{
closed = 1;
nodes = (
(113,1314,l),
(254,1314,ls),
(285,1314,o),
(304,1296,o),
(309,1273,cs),
(528,341,ls),
(537,301,o),
(546,252,o),
(553,201,c),
(569,252,o),
(587,298,o),
(608,341,cs),
(1054,1272,l),
(1065,1293,o),
(1090,1314,o),
(1119,1314,cs),
(1261,1314,l),
(606,0,l),
(447,0,l)
);
}
);
width = 1162;
}
);
leftKerningGroup = V2;
rightKerningGroup = V;
unicode = 86;
},
{
glyphname = W;
layers = (
{
layerId = "E33FAED1-6CF3-4816-84CB-8FA701D54EAB";
shapes = (
{
closed = 1;
nodes = (
(116,1328,l),
(314,1328,ls),
(359,1328,o),
(386,1307,o),
(391,1272,cs),
(512,484,ls),
(519,443,o),
(523,394,o),
(527,342,c),
(543,394,o),
(559,443,o),
(576,484,cs),
(915,1271,ls),
(927,1300,o),
(961,1328,o),
(1004,1328,cs),
(1063,1328,ls),
(1107,1328,o),
(1132,1305,o),
(1139,1272,c),
(1282,484,ls),
(1289,444,o),
(1295,396,o),
(1299,345,c),
(1314,396,o),
(1329,441,o),
(1344,481,c),
(1661,1271,l),
(1672,1300,o),
(1711,1328,o),
(1754,1328,cs),
(1953,1328,l),
(1393,0,l),
(1164,0,l),
(1005,898,ls),
(1001,923,o),
(997,953,o),
(993,985,c),
(982,952,o),
(971,923,o),
(961,898,cs),
(578,0,l),
(350,0,l)
);
}
);
width = 1857;
},
{
layerId = "30810D6C-99CD-409A-82EF-98D1F10F6C9D";
shapes = (
{
closed = 1;
nodes = (
(115,1314,l),
(254,1314,ls),
(285,1314,o),
(305,1297,o),
(308,1273,c),
(462,349,ls),
(467,316,o),
(471,277,o),
(475,236,c),
(487,279,o),
(500,317,o),
(515,350,cs),
(929,1272,ls),
(938,1293,o),
(963,1314,o),
(992,1314,cs),
(1035,1314,ls),
(1064,1314,o),
(1084,1297,o),
(1088,1273,c),
(1272,349,ls),
(1279,318,o),
(1282,281,o),
(1286,242,c),
(1297,281,o),
(1310,317,o),
(1322,348,c),
(1707,1272,l),
(1715,1293,o),
(1743,1314,o),
(1774,1314,cs),
(1913,1314,l),
(1352,0,l),
(1193,0,l),
(996,1006,ls),
(992,1025,o),
(989,1048,o),
(986,1075,c),
(977,1048,o),
(968,1025,o),
(960,1006,cs),
(511,0,l),
(355,0,l)
);
}
);
width = 1823;
}
);
leftKerningGroup = W2;
rightKerningGroup = W;
unicode = 87;
},
{
glyphname = X;
layers = (
{
layerId = "E33FAED1-6CF3-4816-84CB-8FA701D54EAB";
shapes = (
{
closed = 1;
nodes = (
(424,710,l),
(146,1328,l),
(375,1328,ls),
(410,1328,o),
(420,1321,o),
(429,1298,cs),
(610,854,l),
(616,865,o),
(623,876,o),
(631,887,c),
(882,1294,l),
(898,1317,o),
(913,1328,o),
(938,1328,cs),
(1202,1328,l),
(771,722,l),
(1080,0,l),
(854,0,ls),
(819,0,o),
(803,22,o),
(794,43,c),
(591,557,l),
(586,549,o),
(582,541,o),
(577,534,cs),
(266,43,l),
(246,14,o),
(220,0,o),
(189,0,cs),
(-64,0,l)
);
}
);
width = 1128;
},
{
layerId = "30810D6C-99CD-409A-82EF-98D1F10F6C9D";
shapes = (
{
closed = 1;
nodes = (
(442,702,l),
(150,1314,l),
(309,1314,ls),
(334,1314,o),
(344,1307,o),
(351,1288,c),
(571,799,l),
(576,810,o),
(582,818,o),
(590,829,cs),
(904,1287,ls),
(916,1305,o),
(930,1314,o),
(947,1314,cs),
(1130,1314,l),
(685,708,l),
(1014,0,l),
(856,0,ls),
(831,0,o),
(819,17,o),
(812,33,cs),
(561,600,l),
(557,593,o),
(552,585,o),
(547,577,cs),
(172,33,ls),
(157,11,o),
(137,0,o),
(114,0,cs),
(-62,0,l)
);
}
);
width = 1063;
}
);
leftKerningGroup = X2;
rightKerningGroup = X;
unicode = 88;
},
{
glyphname = Y;
layers = (
{
layerId = "E33FAED1-6CF3-4816-84CB-8FA701D54EAB";
shapes = (
{
closed = 1;
nodes = (
(671,520,l),
(607,0,l),
(353,0,l),
(417,511,l),
(98,1328,l),
(323,1328,ls),
(367,1328,o),
(390,1307,o),
(402,1272,c),
(537,828,l),
(553,781,o),
(565,739,o),
(573,696,c),
(594,737,o),
(619,781,o),
(648,827,c),
(890,1271,l),
(907,1299,o),
(936,1328,o),
(979,1328,cs),
(1189,1328,l)
);
}
);
width = 1064;
},
{
layerId = "30810D6C-99CD-409A-82EF-98D1F10F6C9D";
shapes = (
{
closed = 1;
nodes = (
(601,526,l),
(536,0,l),
(359,0,l),
(424,525,l),
(112,1314,l),
(268,1314,ls),
(299,1314,o),
(313,1298,o),
(324,1273,c),
(505,749,l),
(518,716,o),
(527,684,o),
(533,652,c),
(549,683,o),
(567,713,o),
(590,748,c),
(898,1273,l),
(911,1293,o),
(932,1314,o),
(961,1314,cs),
(1107,1314,l)
);
}
);
width = 998;
}
);
leftKerningGroup = Y2;
rightKerningGroup = Y;
unicode = 89;
},
{
glyphname = Z;
layers = (
{
layerId = "E33FAED1-6CF3-4816-84CB-8FA701D54EAB";
shapes = (
{
closed = 1;
nodes = (
(1058,1328,l),
(1047,1250,ls),
(1044,1227,o),
(1034,1209,o),
(1019,1190,c),
(339,201,l),
(904,201,l),
(879,0,l),
(-15,0,l),
(-4,77,ls),
(-1,100,o),
(8,117,o),
(23,136,c),
(704,1127,l),
(164,1127,l),
(191,1328,l)
);
}
);
width = 979;
},
{
layerId = "30810D6C-99CD-409A-82EF-98D1F10F6C9D";
shapes = (
{
closed = 1;
nodes = (
(1019,1314,l),
(1010,1258,ls),
(1007,1241,o),
(1000,1228,o),
(989,1213,cs),
(254,142,l),
(865,142,l),
(845,0,l),
(7,0,l),
(15,55,l),
(18,72,o),
(25,84,o),
(36,99,cs),
(771,1172,l),
(182,1172,l),
(202,1314,l)
);
}
);
width = 959;
}
);
leftKerningGroup = Z2;
rightKerningGroup = Z;
unicode = 90;
},
{
glyphname = a;
layers = (
{
layerId = "E33FAED1-6CF3-4816-84CB-8FA701D54EAB";
shapes = (
{
closed = 1;
nodes = (
(896,0,l),
(761,0,ls),
(696,0,o),
(675,37,o),
(678,84,cs),
(686,210,l),
(593,71,o),
(473,-15,o),
(329,-15,cs),
(165,-15,o),
(37,102,o),
(37,345,cs),
(37,701,o),
(332,1008,o),
(728,1008,cs),
(824,1008,o),
(921,996,o),
(1014,963,c)
);
},
{
closed = 1;
nodes = (
(546,192,o),
(658,358,o),
(717,563,c),
(749,827,l),
(730,828,o),
(711,829,o),
(694,829,cs),
(465,829,o),
(290,626,o),
(290,390,cs),
(290,250,o),
(342,192,o),
(427,192,cs)
);
}
);
width = 1081;
},
{
layerId = "30810D6C-99CD-409A-82EF-98D1F10F6C9D";
shapes = (
{
closed = 1;
nodes = (
(848,0,l),
(756,0,ls),
(709,0,o),
(696,27,o),
(699,60,cs),
(717,268,l),
(616,97,o),
(485,-14,o),
(328,-14,cs),
(157,-14,o),
(49,110,o),
(49,337,cs),
(49,681,o),
(341,991,o),
(709,991,cs),
(797,991,o),
(883,981,o),
(963,946,c)
);
},
{
closed = 1;
nodes = (
(532,132,o),
(663,299,o),
(740,527,c),
(780,856,l),
(749,863,o),
(717,864,o),
(686,864,cs),
(433,864,o),
(224,631,o),
(224,367,cs),
(224,210,o),
(280,132,o),
(393,132,cs)
);
}
);
width = 1053;
}
);
leftKerningGroup = a;
unicode = 97;
},
{
glyphname = aogonek;
layers = (
{
layerId = "E33FAED1-6CF3-4816-84CB-8FA701D54EAB";
shapes = (
{
closed = 1;
nodes = (
(896,0,l),
(879,0,l),
(826,-29,o),
(773,-78,o),
(773,-139,cs),
(773,-170,o),
(791,-192,o),
(822,-192,cs),
(864,-192,o),
(873,-178,o),
(885,-178,cs),
(896,-178,o),
(903,-183,o),
(906,-194,cs),
(930,-285,l),
(887,-313,o),
(822,-334,o),
(754,-334,cs),
(641,-334,o),
(584,-280,o),
(584,-207,cs),
(584,-131,o),
(636,-58,o),
(737,2,c),
(690,10,o),
(675,43,o),
(678,84,cs),
(686,210,l),
(593,71,o),
(473,-15,o),
(329,-15,cs),
(165,-15,o),
(37,102,o),
(37,345,cs),
(37,701,o),
(332,1008,o),
(728,1008,cs),
(824,1008,o),
(921,996,o),
(1014,963,c)
);
},
{
closed = 1;
nodes = (
(546,192,o),
(658,358,o),
(717,563,c),
(749,827,l),
(730,828,o),
(711,829,o),
(694,829,cs),
(465,829,o),
(290,626,o),
(290,390,cs),
(290,250,o),
(342,192,o),
(427,192,cs)
);
}
);
width = 1081;
},
{
layerId = "30810D6C-99CD-409A-82EF-98D1F10F6C9D";
shapes = (
{
closed = 1;
nodes = (
(848,0,l),
(837,0,l),
(784,-29,o),
(715,-86,o),
(715,-160,cs),
(715,-201,o),
(742,-228,o),
(783,-228,cs),
(837,-228,o),
(854,-205,o),
(864,-205,cs),
(873,-205,o),
(879,-209,o),
(881,-217,cs),
(899,-280,l),
(859,-309,o),
(798,-330,o),
(737,-330,cs),
(638,-330,o),
(583,-282,o),
(583,-207,cs),
(583,-123,o),
(647,-51,o),
(734,2,c),
(706,10,o),
(696,33,o),
(699,60,c),
(717,268,l),
(616,97,o),
(485,-14,o),
(328,-14,cs),
(157,-14,o),
(49,110,o),
(49,337,cs),
(49,681,o),
(341,991,o),
(709,991,cs),
(797,991,o),
(883,981,o),
(963,946,c)
);
},
{
closed = 1;
nodes = (
(532,132,o),
(663,299,o),
(740,527,c),
(780,856,l),
(749,863,o),
(717,864,o),
(686,864,cs),
(433,864,o),
(224,631,o),
(224,367,cs),
(224,210,o),
(280,132,o),
(393,132,cs)
);
}
);
width = 1053;
}
);
unicode = 261;
},
{
glyphname = ae;
layers = (
{
layerId = "E33FAED1-6CF3-4816-84CB-8FA701D54EAB";
shapes = (
{
closed = 1;
nodes = (
(1370,1007,o),
(1509,890,o),
(1509,746,cs),
(1509,605,o),
(1389,448,o),
(877,436,c),
(880,259,o),
(964,181,o),
(1105,181,cs),
(1297,181,o),
(1340,284,o),
(1420,284,cs),
(1437,284,o),
(1453,277,o),
(1466,262,cs),
(1532,184,l),
(1383,46,o),
(1255,-15,o),
(1057,-15,cs),
(917,-15,o),
(794,49,o),
(729,184,c),
(636,43,o),
(473,-15,o),
(335,-15,cs),
(124,-15,o),
(16,72,o),
(16,228,cs),
(16,396,o),
(169,577,o),
(663,590,c),
(668,625,ls),
(685,756,o),
(634,816,o),
(525,816,cs),
(368,816,o),
(319,731,o),
(240,731,cs),
(207,731,o),
(185,751,o),
(173,776,cs),
(137,853,l),
(266,958,o),
(396,1010,o),
(551,1010,cs),
(700,1010,o),
(790,952,o),
(829,856,c),
(916,951,o),
(1035,1007,o),
(1186,1007,cs)
);
},
{
closed = 1;
nodes = (
(645,441,l),
(341,428,o),
(251,356,o),
(251,257,cs),
(251,186,o),
(300,152,o),
(380,152,cs),
(509,152,o),
(616,224,o),
(640,403,cs)
);
},
{
closed = 1;
nodes = (
(1007,832,o),
(921,732,o),
(889,580,c),
(1214,601,o),
(1288,665,o),
(1288,736,cs),
(1288,789,o),
(1245,832,o),
(1157,832,cs)
);
}
);
width = 1564;
},
{
layerId = "30810D6C-99CD-409A-82EF-98D1F10F6C9D";
shapes = (
{
closed = 1;
nodes = (
(1352,992,o),
(1479,887,o),
(1479,754,cs),
(1479,609,o),
(1339,467,o),
(833,459,c),
(833,431,ls),
(833,226,o),
(930,124,o),
(1089,124,cs),
(1300,124,o),
(1362,251,o),
(1426,251,cs),
(1439,251,o),
(1450,245,o),
(1459,234,cs),
(1504,181,l),
(1364,46,o),
(1236,-14,o),
(1057,-14,cs),
(906,-14,o),
(784,62,o),
(728,213,c),
(640,49,o),
(467,-15,o),
(329,-15,cs),
(144,-15,o),
(34,63,o),
(34,219,cs),
(34,400,o),
(206,555,o),
(688,568,c),
(695,625,ls),
(715,778,o),
(656,857,o),
(527,857,cs),
(354,857,o),
(286,754,o),
(228,754,cs),
(205,754,o),
(188,767,o),
(180,786,c),
(155,839,l),
(276,943,o),
(396,994,o),
(544,994,cs),
(697,994,o),
(783,927,o),
(814,814,c),
(898,926,o),
(1022,992,o),
(1181,992,cs)
);
},
{
closed = 1;
nodes = (
(675,461,l),
(326,450,o),
(198,366,o),
(198,240,cs),
(198,147,o),
(261,103,o),
(360,103,cs),
(509,103,o),
(642,199,o),
(666,388,cs)
);
},
{
closed = 1;
nodes = (
(988,867,o),
(876,748,o),
(844,561,c),
(1221,580,o),
(1325,655,o),
(1325,747,cs),
(1325,819,o),
(1265,867,o),
(1162,867,cs)
);
}
);
width = 1545;
}
);
rightKerningGroup = e;
unicode = 230;
},
{
glyphname = b;
layers = (
{
layerId = "E33FAED1-6CF3-4816-84CB-8FA701D54EAB";
shapes = (
{
closed = 1;
nodes = (
(59,0,l),
(232,1437,l),
(481,1437,l),
(403,802,l),
(499,929,o),
(617,1008,o),
(749,1008,cs),
(921,1008,o),
(1035,890,o),
(1035,634,cs),
(1035,295,o),
(809,-15,o),
(537,-15,cs),
(432,-15,o),
(349,28,o),
(293,96,c),
(285,69,ls),
(270,22,o),
(252,0,o),
(196,0,cs)
);
},
{
closed = 1;
nodes = (
(544,810,o),
(423,657,o),
(362,465,c),
(334,236,l),
(379,193,o),
(440,177,o),
(496,177,cs),
(668,177,o),
(782,399,o),
(782,609,cs),
(782,746,o),
(734,810,o),
(651,810,cs)
);
}
);
width = 1081;
},
{
layerId = "30810D6C-99CD-409A-82EF-98D1F10F6C9D";
shapes = (
{
closed = 1;
nodes = (
(81,0,l),
(253,1422,l),
(425,1422,l),
(340,729,l),
(441,889,o),
(576,992,o),
(721,992,cs),
(893,992,o),
(996,866,o),
(996,633,cs),
(996,315,o),
(786,-14,o),
(505,-14,cs),
(397,-14,o),
(306,33,o),
(249,114,c),
(234,51,l),
(227,16,o),
(214,0,o),
(174,0,cs)
);
},
{
closed = 1;
nodes = (
(524,852,o),
(385,689,o),
(308,465,c),
(277,216,l),
(329,147,o),
(404,122,o),
(479,122,cs),
(690,122,o),
(822,388,o),
(822,617,cs),
(822,770,o),
(763,852,o),
(655,852,cs)
);
}
);
width = 1053;
}
);
leftKerningGroup = b2;
rightKerningGroup = b;
unicode = 98;
},
{
glyphname = c;
layers = (
{
layerId = "E33FAED1-6CF3-4816-84CB-8FA701D54EAB";
shapes = (
{
closed = 1;
nodes = (
(814,176,l),
(684,32,o),
(584,-15,o),
(416,-15,cs),
(185,-15,o),
(46,149,o),
(46,401,cs),
(46,725,o),
(266,1007,o),
(571,1007,cs),
(704,1007,o),
(793,962,o),
(865,867,c),
(783,772,l),
(772,757,o),
(756,747,o),
(737,747,cs),
(691,747,o),
(677,807,o),
(567,807,cs),
(427,807,o),
(300,647,o),
(300,400,cs),
(300,259,o),
(367,181,o),
(471,181,cs),
(615,181,o),
(639,277,o),
(704,277,cs),
(721,277,o),
(737,269,o),
(749,254,cs)
);
}
);
width = 843;
},
{
layerId = "30810D6C-99CD-409A-82EF-98D1F10F6C9D";
shapes = (
{
closed = 1;
nodes = (
(806,176,l),
(671,27,o),
(567,-14,o),
(413,-14,cs),
(185,-14,o),
(58,151,o),
(58,388,cs),
(58,703,o),
(268,992,o),
(567,992,cs),
(699,992,o),
(782,945,o),
(850,857,c),
(795,791,l),
(787,780,o),
(774,773,o),
(761,773,cs),
(725,773,o),
(698,851,o),
(563,851,cs),
(383,851,o),
(234,649,o),
(234,387,cs),
(234,227,o),
(309,124,o),
(450,124,cs),
(627,124,o),
(675,246,o),
(729,246,cs),
(742,246,o),
(753,240,o),
(762,229,cs)
);
}
);
width = 852;
}
);
leftKerningGroup = c2;
rightKerningGroup = c;
unicode = 99;
},
{
glyphname = ccedilla;
layers = (
{
layerId = "E33FAED1-6CF3-4816-84CB-8FA701D54EAB";
shapes = (
{
closed = 1;
nodes = (
(294,-217,o),
(308,-232,o),
(340,-232,cs),
(377,-232,o),
(396,-209,o),
(396,-186,cs),
(396,-154,o),
(362,-141,o),
(278,-130,c),
(327,-6,l),
(150,32,o),
(46,182,o),
(46,401,cs),
(46,725,o),
(266,1007,o),
(571,1007,cs),
(704,1007,o),
(793,962,o),
(865,867,c),
(783,772,l),
(772,757,o),
(756,747,o),
(737,747,cs),
(691,747,o),
(677,807,o),
(567,807,cs),
(427,807,o),
(300,647,o),
(300,400,cs),
(300,259,o),
(367,181,o),
(471,181,cs),
(615,181,o),
(639,277,o),
(704,277,cs),
(721,277,o),
(737,269,o),
(749,254,cs),
(814,176,l),
(703,51,o),
(608,-1,o),
(478,-12,c),
(462,-53,l),
(555,-78,o),
(588,-123,o),
(588,-178,cs),
(588,-276,o),
(484,-336,o),
(344,-336,cs),
(295,-336,o),
(255,-330,o),
(214,-315,c),
(247,-239,l),
(254,-226,o),
(261,-217,o),
(276,-217,cs)
);
}
);
width = 843;
},
{
layerId = "30810D6C-99CD-409A-82EF-98D1F10F6C9D";
shapes = (
{
closed = 1;
nodes = (
(277,-240,o),
(293,-263,o),
(342,-263,cs),
(393,-263,o),
(422,-234,o),
(422,-197,cs),
(422,-153,o),
(375,-139,o),
(290,-127,c),
(338,-7,l),
(156,25,o),
(58,177,o),
(58,388,cs),
(58,703,o),
(268,992,o),
(567,992,cs),
(699,992,o),
(782,945,o),
(850,857,c),
(795,791,l),
(787,780,o),
(774,773,o),
(761,773,cs),
(725,773,o),
(698,851,o),
(563,851,cs),
(383,851,o),
(234,649,o),
(234,387,cs),
(234,227,o),
(309,124,o),
(450,124,cs),
(627,124,o),
(675,246,o),
(729,246,cs),
(742,246,o),
(753,240,o),
(762,229,cs),
(806,176,l),
(679,38,o),
(581,-8,o),
(443,-13,c),
(421,-69,l),
(514,-92,o),
(556,-131,o),
(556,-191,cs),
(556,-283,o),
(466,-339,o),
(342,-339,cs),
(294,-339,o),
(250,-327,o),
(215,-308,c),
(238,-256,ls),
(243,-245,o),
(249,-240,o),
(261,-240,cs)
);
}
);
width = 852;
}
);
leftKerningGroup = c2;
rightKerningGroup = c;
unicode = 231;
},
{
glyphname = c_h;
layers = (
{
layerId = "E33FAED1-6CF3-4816-84CB-8FA701D54EAB";
shapes = (
{
closed = 1;
nodes = (
(792,176,l),
(662,32,o),
(562,-15,o),
(394,-15,cs),
(163,-15,o),
(24,149,o),
(24,401,cs),
(24,725,o),
(244,1007,o),
(549,1007,cs),
(596,1007,o),
(639,1001,o),
(677,989,c),
(661,1036,o),
(653,1084,o),
(653,1135,cs),
(653,1350,o),
(808,1513,o),
(1060,1513,cs),
(1221,1513,o),
(1289,1436,o),
(1372,1436,c),
(1278,1392,l),
(1210,831,l),
(1307,951,o),
(1424,1008,o),
(1544,1008,cs),
(1716,1008,o),
(1823,872,o),
(1794,632,cs),
(1719,0,l),
(1466,0,l),
(1540,632,l),
(1556,755,o),
(1528,803,o),
(1448,803,cs),
(1350,803,o),
(1230,689,o),
(1172,517,c),
(1110,0,l),
(857,0,l),
(1024,1386,l),
(1011,1389,o),
(997,1390,o),
(984,1390,cs),
(847,1390,o),
(768,1285,o),
(768,1150,cs),
(768,1057,o),
(809,960,o),
(874,892,c),
(842,867,l),
(843,867,l),
(761,772,l),
(750,757,o),
(734,747,o),
(715,747,cs),
(669,747,o),
(655,807,o),
(545,807,cs),
(405,807,o),
(278,647,o),
(278,400,cs),
(278,259,o),
(345,181,o),
(449,181,cs),
(593,181,o),
(617,277,o),
(682,277,cs),
(699,277,o),
(715,269,o),
(727,254,cs)
);
}
);
width = 1883;
},
{
layerId = "30810D6C-99CD-409A-82EF-98D1F10F6C9D";
shapes = (
{
closed = 1;
nodes = (
(787,176,l),
(652,27,o),
(548,-14,o),
(394,-14,cs),
(166,-14,o),
(39,151,o),
(39,388,cs),
(39,703,o),
(249,992,o),
(548,992,cs),
(591,992,o),
(630,986,o),
(666,975,c),
(639,1032,o),
(626,1092,o),
(626,1153,cs),
(626,1353,o),
(771,1509,o),
(1003,1509,cs),
(1166,1509,o),
(1231,1421,o),
(1294,1421,c),
(1232,1388,l),
(1156,759,l),
(1260,912,o),
(1393,992,o),
(1526,992,cs),
(1698,992,o),
(1789,859,o),
(1760,623,c),
(1687,0,l),
(1512,0,l),
(1585,623,l),
(1604,776,o),
(1567,848,o),
(1462,848,cs),
(1342,848,o),
(1202,718,o),
(1127,517,c),
(1065,0,l),
(890,0,l),
(1058,1396,l),
(1027,1411,o),
(991,1420,o),
(952,1420,cs),
(795,1420,o),
(710,1301,o),
(710,1164,cs),
(710,1068,o),
(754,966,o),
(829,897,c),
(810,883,l),
(831,857,l),
(776,791,l),
(768,780,o),
(755,773,o),
(742,773,cs),
(706,773,o),
(679,851,o),
(544,851,cs),
(364,851,o),
(215,649,o),
(215,387,cs),
(215,227,o),
(290,124,o),
(431,124,cs),
(608,124,o),
(656,246,o),
(710,246,cs),
(723,246,o),
(734,240,o),
(743,229,cs)
);
}
);
width = 1862;
}
);
leftKerningGroup = c2;
},
{
glyphname = c_k;
layers = (
{
layerId = "E33FAED1-6CF3-4816-84CB-8FA701D54EAB";
shapes = (
{
closed = 1;
nodes = (
(770,176,l),
(640,32,o),
(540,-15,o),
(372,-15,cs),
(141,-15,o),
(2,149,o),
(2,401,cs),
(2,725,o),
(222,1007,o),
(527,1007,cs),
(587,1007,o),
(637,998,o),
(682,979,c),
(665,1029,o),
(656,1080,o),
(656,1133,cs),
(656,1349,o),
(807,1513,o),
(1051,1513,cs),
(1205,1513,o),
(1272,1436,o),
(1353,1436,c),
(1288,1405,l),
(1191,619,l),
(1214,619,ls),
(1245,619,o),
(1260,627,o),
(1281,652,cs),
(1521,950,l),
(1544,977,o),
(1566,993,o),
(1605,993,cs),
(1832,993,l),
(1527,628,ls),
(1502,599,o),
(1476,576,o),
(1447,559,c),
(1471,539,o),
(1489,512,o),
(1504,480,cs),
(1728,0,l),
(1507,0,ls),
(1471,0,o),
(1447,12,o),
(1432,44,cs),
(1263,414,l),
(1248,445,o),
(1238,451,o),
(1201,451,cs),
(1170,451,l),
(1115,0,l),
(865,0,l),
(1034,1380,l),
(1015,1387,o),
(995,1390,o),
(975,1390,cs),
(846,1390,o),
(771,1284,o),
(771,1148,cs),
(771,1056,o),
(809,960,o),
(869,892,c),
(790,831,l),
(739,772,l),
(728,757,o),
(712,747,o),
(693,747,cs),
(647,747,o),
(633,807,o),
(523,807,cs),
(383,807,o),
(256,647,o),
(256,400,cs),
(256,259,o),
(323,181,o),
(427,181,cs),
(571,181,o),
(595,277,o),
(660,277,cs),
(677,277,o),
(693,269,o),
(705,254,cs)
);
}
);
width = 1787;
},
{
layerId = "30810D6C-99CD-409A-82EF-98D1F10F6C9D";
shapes = (
{
closed = 1;
nodes = (
(794,176,l),
(659,27,o),
(555,-14,o),
(401,-14,cs),
(173,-14,o),
(46,151,o),
(46,388,cs),
(46,703,o),
(256,992,o),
(555,992,cs),
(596,992,o),
(634,987,o),
(667,977,c),
(642,1034,o),
(630,1092,o),
(630,1152,cs),
(630,1351,o),
(771,1509,o),
(998,1509,cs),
(1156,1509,o),
(1218,1421,o),
(1280,1421,c),
(1237,1398,l),
(1137,586,l),
(1167,586,ls),
(1194,586,o),
(1207,592,o),
(1227,613,cs),
(1548,944,ls),
(1568,965,o),
(1585,978,o),
(1616,978,cs),
(1771,978,l),
(1397,594,ls),
(1377,573,o),
(1359,556,o),
(1336,543,c),
(1357,528,o),
(1372,507,o),
(1387,483,cs),
(1675,0,l),
(1525,0,ls),
(1497,0,o),
(1480,9,o),
(1465,33,cs),
(1220,434,ls),
(1204,461,o),
(1192,467,o),
(1156,467,cs),
(1123,467,l),
(1066,0,l),
(893,0,l),
(1062,1386,l),
(1033,1409,o),
(991,1420,o),
(946,1420,cs),
(797,1420,o),
(713,1300,o),
(713,1163,cs),
(713,1067,o),
(755,966,o),
(826,897,c),
(813,887,l),
(838,857,l),
(783,791,l),
(775,780,o),
(762,773,o),
(749,773,cs),
(713,773,o),
(686,851,o),
(551,851,cs),
(371,851,o),
(222,649,o),
(222,387,cs),
(222,227,o),
(297,124,o),
(438,124,cs),
(615,124,o),
(663,246,o),
(717,246,cs),
(730,246,o),
(741,240,o),
(750,229,cs)
);
}
);
width = 1740;
}
);
leftKerningGroup = c2;
},
{
glyphname = c_t;
layers = (
{
layerId = "E33FAED1-6CF3-4816-84CB-8FA701D54EAB";
shapes = (
{
closed = 1;
nodes = (
(1370,961,l),
(1601,961,l),
(1579,788,l),
(1350,788,l),
(1288,276,ls),
(1281,216,o),
(1301,180,o),
(1344,180,cs),
(1390,180,o),
(1408,213,o),
(1431,213,cs),
(1446,213,o),
(1452,206,o),
(1460,190,cs),
(1518,72,l),
(1445,15,o),
(1354,-15,o),
(1262,-15,cs),
(1098,-15,o),
(1020,90,o),
(1041,261,cs),
(1105,788,l),
(1019,788,ls),
(994,788,o),
(976,803,o),
(980,838,cs),
(992,934,l),
(1136,960,l),
(1165,1030,l),
(1211,1145,l),
(1214,1152,l),
(1274,1324,o),
(1222,1414,o),
(1086,1414,cs),
(829,1414,o),
(656,1106,o),
(812,911,c),
(827,896,o),
(838,883,o),
(851,867,c),
(769,772,l),
(758,757,o),
(742,747,o),
(723,747,cs),
(677,747,o),
(663,807,o),
(553,807,cs),
(413,807,o),
(286,647,o),
(286,400,cs),
(286,259,o),
(353,181,o),
(457,181,cs),
(601,181,o),
(625,277,o),
(690,277,cs),
(707,277,o),
(723,269,o),
(735,254,cs),
(800,176,l),
(670,32,o),
(570,-15,o),
(402,-15,cs),
(171,-15,o),
(32,149,o),
(32,401,cs),
(32,725,o),
(252,1007,o),
(557,1007,cs),
(588,1007,o),
(616,1004,o),
(643,999,c),
(603,1225,o),
(782,1513,o),
(1099,1513,cs),
(1343,1513,o),
(1417,1350,o),
(1398,1186,c)
);
}
);
width = 1536;
},
{
layerId = "30810D6C-99CD-409A-82EF-98D1F10F6C9D";
shapes = (
{
closed = 1;
nodes = (
(1297,943,l),
(1556,943,l),
(1541,820,l),
(1282,820,l),
(1212,245,l),
(1201,164,o),
(1237,122,o),
(1294,122,cs),
(1360,122,o),
(1391,171,o),
(1412,171,cs),
(1421,171,o),
(1429,165,o),
(1434,154,cs),
(1473,73,l),
(1409,17,o),
(1322,-15,o),
(1238,-15,cs),
(1093,-15,o),
(1021,73,o),
(1041,234,cs),
(1113,820,l),
(1005,820,ls),
(985,820,o),
(972,832,o),
(975,857,cs),
(983,924,l),
(1133,943,l),
(1197,1161,l),
(1250,1337,o),
(1186,1435,o),
(1038,1435,cs),
(780,1435,o),
(607,1159,o),
(737,957,c),
(782,934,o),
(822,901,o),
(856,857,c),
(801,791,l),
(793,780,o),
(780,773,o),
(767,773,cs),
(731,773,o),
(704,851,o),
(569,851,cs),
(389,851,o),
(240,649,o),
(240,387,cs),
(240,227,o),
(315,124,o),
(456,124,cs),
(633,124,o),
(681,246,o),
(735,246,cs),
(748,246,o),
(759,240,o),
(768,229,cs),
(812,176,l),
(677,27,o),
(573,-14,o),
(419,-14,cs),
(191,-14,o),
(64,151,o),
(64,388,cs),
(64,703,o),
(274,992,o),
(573,992,cs),
(591,992,o),
(609,991,o),
(626,989,c),
(550,1212,o),
(734,1508,o),
(1047,1508,cs),
(1271,1508,o),
(1348,1355,o),
(1329,1196,c)
);
}
);
width = 1521;
}
);
leftKerningGroup = c2;
},
{
glyphname = ccedilla_t;
layers = (
{
layerId = "E33FAED1-6CF3-4816-84CB-8FA701D54EAB";
shapes = (
{
closed = 1;
nodes = (
(1351,984,l),
(1584,984,l),
(1562,810,l),
(1330,810,l),
(1265,277,ls),
(1258,216,o),
(1278,181,o),
(1322,181,cs),
(1368,181,o),
(1385,213,o),
(1406,213,cs),
(1422,213,o),
(1428,206,o),
(1436,190,cs),
(1495,72,l),
(1420,15,o),
(1330,-15,o),
(1239,-15,cs),
(1075,-15,o),
(997,89,o),
(1018,261,cs),
(1085,810,l),
(1001,810,ls),
(974,810,o),
(957,827,o),
(961,862,cs),
(973,958,l),
(1133,988,l),
(1168,1060,o),
(1207,1156,o),
(1215,1228,cs),
(1226,1328,o),
(1202,1414,o),
(1065,1414,cs),
(890,1414,o),
(782,1276,o),
(782,1125,cs),
(782,1048,o),
(812,957,o),
(873,892,c),
(826,855,l),
(754,772,l),
(743,757,o),
(727,747,o),
(708,747,cs),
(662,747,o),
(648,807,o),
(538,807,cs),
(398,807,o),
(271,647,o),
(271,400,cs),
(271,259,o),
(338,181,o),
(442,181,cs),
(586,181,o),
(610,277,o),
(675,277,cs),
(692,277,o),
(708,269,o),
(720,254,cs),
(785,176,l),
(678,58,o),
(592,6,o),
(472,-10,c),
(456,-53,l),
(549,-78,o),
(582,-123,o),
(582,-178,cs),
(582,-276,o),
(478,-336,o),
(338,-336,cs),
(289,-336,o),
(249,-330,o),
(208,-315,c),
(241,-239,l),
(248,-226,o),
(255,-217,o),
(270,-217,cs),
(288,-217,o),
(302,-232,o),
(334,-232,cs),
(371,-232,o),
(390,-209,o),
(390,-186,cs),
(390,-154,o),
(356,-141,o),
(272,-130,c),
(319,-10,l),
(130,19,o),
(17,173,o),
(17,401,cs),
(17,725,o),
(237,1007,o),
(542,1007,cs),
(596,1007,o),
(644,999,o),
(685,983,c),
(673,1025,o),
(667,1067,o),
(667,1109,cs),
(667,1315,o),
(808,1513,o),
(1077,1513,cs),
(1321,1513,o),
(1395,1350,o),
(1376,1186,c)
);
}
);
width = 1536;
},
{
layerId = "30810D6C-99CD-409A-82EF-98D1F10F6C9D";
shapes = (
{
closed = 1;
nodes = (
(1279,958,l),
(1542,958,l),
(1527,835,l),
(1264,835,l),
(1192,245,l),
(1181,162,o),
(1217,123,o),
(1274,123,cs),
(1341,123,o),
(1373,170,o),
(1392,170,cs),
(1404,170,o),
(1409,165,o),
(1414,154,c),
(1456,73,l),
(1392,17,o),
(1305,-15,o),
(1218,-15,cs),
(1073,-15,o),
(1001,73,o),
(1020,234,c),
(1094,835,l),
(986,835,ls),
(967,835,o),
(952,849,o),
(955,873,cs),
(963,940,l),
(1121,960,l),
(1150,1037,o),
(1184,1137,o),
(1195,1218,cs),
(1211,1343,o),
(1164,1436,o),
(1017,1436,cs),
(826,1436,o),
(718,1295,o),
(718,1147,cs),
(718,1063,o),
(756,965,o),
(831,897,c),
(823,891,l),
(852,857,l),
(797,791,l),
(789,780,o),
(776,773,o),
(763,773,cs),
(727,773,o),
(700,851,o),
(565,851,cs),
(385,851,o),
(236,649,o),
(236,387,cs),
(236,227,o),
(311,124,o),
(452,124,cs),
(629,124,o),
(677,246,o),
(731,246,cs),
(744,246,o),
(755,240,o),
(764,229,cs),
(808,176,l),
(696,53,o),
(605,3,o),
(490,-10,c),
(467,-69,l),
(560,-92,o),
(602,-131,o),
(602,-191,cs),
(602,-283,o),
(512,-339,o),
(388,-339,cs),
(340,-339,o),
(296,-327,o),
(261,-308,c),
(284,-256,ls),
(289,-245,o),
(295,-240,o),
(307,-240,cs),
(323,-240,o),
(339,-263,o),
(388,-263,cs),
(439,-263,o),
(468,-234,o),
(468,-197,cs),
(468,-153,o),
(421,-139,o),
(336,-127,c),
(382,-13,l),
(174,3,o),
(60,159,o),
(60,388,cs),
(60,703,o),
(270,992,o),
(569,992,cs),
(605,992,o),
(636,988,o),
(667,981,c),
(644,1032,o),
(635,1085,o),
(635,1136,cs),
(635,1328,o),
(775,1509,o),
(1026,1509,cs),
(1249,1509,o),
(1328,1356,o),
(1309,1196,c)
);
}
);
width = 1521;
}
);
leftKerningGroup = c2;
},
{
glyphname = d;
layers = (
{
layerId = "E33FAED1-6CF3-4816-84CB-8FA701D54EAB";
shapes = (
{
closed = 1;
nodes = (
(761,0,ls),
(697,0,o),
(676,37,o),
(679,84,c),
(685,210,l),
(588,71,o),
(463,-15,o),
(326,-15,cs),
(154,-15,o),
(41,103,o),
(41,360,cs),
(41,700,o),
(267,1008,o),
(539,1008,cs),
(631,1008,o),
(705,975,o),
(761,920,c),
(825,1437,l),
(1074,1437,l),
(896,0,l)
);
},
{
closed = 1;
nodes = (
(532,184,o),
(652,339,o),
(713,533,c),
(741,757,l),
(696,800,o),
(636,816,o),
(580,816,cs),
(408,816,o),
(293,595,o),
(293,385,cs),
(293,248,o),
(342,184,o),
(425,184,cs)
);
}
);
width = 1081;
},
{
layerId = "30810D6C-99CD-409A-82EF-98D1F10F6C9D";
shapes = (
{
closed = 1;
nodes = (
(757,0,ls),
(710,0,o),
(697,27,o),
(700,60,cs),
(718,268,l),
(617,97,o),
(476,-14,o),
(327,-14,cs),
(155,-14,o),
(52,111,o),
(52,346,cs),
(52,664,o),
(263,992,o),
(543,992,cs),
(643,992,o),
(728,952,o),
(785,883,c),
(852,1422,l),
(1024,1422,l),
(849,0,l)
);
},
{
closed = 1;
nodes = (
(522,126,o),
(663,290,o),
(740,514,c),
(770,762,l),
(719,831,o),
(642,857,o),
(569,857,cs),
(358,857,o),
(226,591,o),
(226,363,cs),
(226,210,o),
(286,126,o),
(393,126,cs)
);
}
);
width = 1053;
}
);
leftKerningGroup = a;
unicode = 100;
},
{
glyphname = dcaron;
layers = (
{
layerId = "E33FAED1-6CF3-4816-84CB-8FA701D54EAB";
shapes = (
{
closed = 1;
nodes = (
(818,0,ls),
(754,0,o),
(733,37,o),
(736,84,c),
(742,210,l),
(645,71,o),
(520,-15,o),
(383,-15,cs),
(211,-15,o),
(98,103,o),
(98,360,cs),
(98,700,o),
(324,1008,o),
(596,1008,cs),
(688,1008,o),
(762,975,o),
(818,920,c),
(882,1437,l),
(1131,1437,l),
(953,0,l)
);
},
{
closed = 1;
nodes = (
(589,184,o),
(709,339,o),
(770,533,c),
(798,757,l),
(753,800,o),
(693,816,o),
(637,816,cs),
(465,816,o),
(350,595,o),
(350,385,cs),
(350,248,o),
(399,184,o),
(482,184,cs)
);
},
{
closed = 1;
nodes = (
(1423,1437,ls),
(1455,1437,o),
(1461,1422,o),
(1461,1407,cs),
(1461,1382,o),
(1449,1352,o),
(1334,1146,c),
(1314,1107,o),
(1288,1102,o),
(1245,1102,cs),
(1159,1102,l),
(1260,1437,l)
);
}
);
width = 1205;
},
{
layerId = "30810D6C-99CD-409A-82EF-98D1F10F6C9D";
shapes = (
{
alignment = -1;
pos = (93,0);
ref = _2781;
},
{
alignment = -1;
pos = (41,0);
ref = d;
},
{
alignment = -1;
pos = (874,0);
ref = uni0315;
}
);
width = 1136;
}
);
leftKerningGroup = a;
unicode = 271;
},
{
glyphname = dcroat;
layers = (
{
layerId = "E33FAED1-6CF3-4816-84CB-8FA701D54EAB";
shapes = (
{
closed = 1;
nodes = (
(844,0,ls),
(779,0,o),
(759,37,o),
(760,84,c),
(771,229,l),
(662,80,o),
(520,-15,o),
(362,-15,cs),
(167,-15,o),
(45,106,o),
(45,368,cs),
(45,702,o),
(284,979,o),
(587,979,cs),
(691,979,o),
(776,943,o),
(840,887,c),
(864,1091,l),
(719,1091,ls),
(651,1091,o),
(629,1116,o),
(638,1177,cs),
(647,1242,l),
(882,1242,l),
(906,1437,l),
(1155,1437,l),
(1131,1242,l),
(1271,1242,l),
(1256,1091,l),
(1112,1091,l),
(978,0,l)
);
},
{
closed = 1;
nodes = (
(586,184,o),
(730,346,o),
(799,548,c),
(820,725,l),
(768,769,o),
(697,785,o),
(629,785,cs),
(426,785,o),
(296,598,o),
(296,390,cs),
(296,249,o),
(357,184,o),
(457,184,cs)
);
}
);
width = 1160;
},
{
layerId = "30810D6C-99CD-409A-82EF-98D1F10F6C9D";
shapes = (
{
closed = 1;
nodes = (
(831,0,ls),
(784,0,o),
(770,27,o),
(773,60,cs),
(794,281,l),
(682,105,o),
(529,-14,o),
(360,-14,cs),
(167,-14,o),
(56,113,o),
(56,352,cs),
(56,668,o),
(279,972,o),
(585,972,cs),
(697,972,o),
(792,932,o),
(856,860,c),
(886,1103,l),
(706,1103,ls),
(657,1103,o),
(643,1123,o),
(650,1166,cs),
(657,1211,l),
(899,1211,l),
(925,1422,l),
(1097,1422,l),
(1071,1211,l),
(1217,1211,l),
(1207,1103,l),
(1057,1103,l),
(922,0,l)
);
},
{
closed = 1;
nodes = (
(573,126,o),
(728,292,o),
(814,520,c),
(842,743,l),
(782,811,o),
(697,836,o),
(613,836,cs),
(374,836,o),
(229,594,o),
(229,368,cs),
(229,211,o),
(298,126,o),
(423,126,cs)
);
}
);
width = 1128;
}
);
leftKerningGroup = a;
unicode = 273;
},
{
glyphname = eth;
layers = (
{
layerId = "E33FAED1-6CF3-4816-84CB-8FA701D54EAB";
shapes = (
{
closed = 1;
nodes = (
(444,1022,ls),
(429,1047,o),
(438,1073,o),
(457,1084,cs),
(569,1151,l),
(525,1170,o),
(474,1189,o),
(417,1206,cs),
(361,1222,o),
(354,1258,o),
(377,1305,cs),
(414,1383,l),
(547,1360,o),
(669,1318,o),
(770,1249,c),
(959,1360,l),
(1002,1279,l),
(1013,1256,o),
(1013,1230,o),
(984,1211,c),
(884,1153,l),
(988,1040,o),
(1051,889,o),
(1051,689,cs),
(1051,257,o),
(840,-14,o),
(471,-14,cs),
(223,-14,o),
(49,143,o),
(49,398,cs),
(49,671,o),
(261,900,o),
(550,900,cs),
(683,900,o),
(785,847,o),
(853,751,c),
(845,888,o),
(800,989,o),
(704,1068,c),
(491,941,l)
);
},
{
closed = 1;
nodes = (
(643,171,o),
(767,265,o),
(807,544,c),
(778,636,o),
(711,713,o),
(579,713,cs),
(399,713,o),
(292,580,o),
(292,407,cs),
(292,258,o),
(379,171,o),
(498,171,cs)
);
}
);
width = 1099;
},
{
layerId = "30810D6C-99CD-409A-82EF-98D1F10F6C9D";
shapes = (
{
closed = 1;
nodes = (
(478,1027,l),
(467,1044,o),
(471,1063,o),
(486,1074,cs),
(616,1163,l),
(557,1194,o),
(490,1218,o),
(413,1238,cs),
(374,1249,o),
(367,1274,o),
(383,1309,cs),
(406,1363,l),
(531,1343,o),
(646,1303,o),
(745,1236,c),
(925,1356,l),
(955,1301,l),
(963,1285,o),
(964,1264,o),
(944,1249,c),
(827,1170,l),
(942,1059,o),
(1016,902,o),
(1016,686,cs),
(1016,268,o),
(821,-13,o),
(461,-13,cs),
(229,-13,o),
(62,142,o),
(62,390,cs),
(62,664,o),
(262,895,o),
(554,895,cs),
(691,895,o),
(809,835,o),
(877,714,c),
(874,890,o),
(817,1015,o),
(705,1104,c),
(510,971,l)
);
},
{
closed = 1;
nodes = (
(668,119,o),
(805,244,o),
(845,546,c),
(816,658,o),
(738,763,o),
(573,763,cs),
(355,763,o),
(231,601,o),
(231,397,cs),
(231,222,o),
(339,119,o),
(480,119,cs)
);
}
);
width = 1076;
}
);
unicode = 240;
},
{
glyphname = e;
layers = (
{
layerId = "E33FAED1-6CF3-4816-84CB-8FA701D54EAB";
shapes = (
{
closed = 1;
nodes = (
(964,579,o),
(829,460,o),
(297,412,c),
(297,255,o),
(370,181,o),
(522,181,cs),
(714,181,o),
(753,284,o),
(835,284,cs),
(853,284,o),
(868,277,o),
(881,262,cs),
(947,184,l),
(798,46,o),
(670,-15,o),
(474,-15,cs),
(218,-15,o),
(49,152,o),
(49,407,cs),
(49,719,o),
(273,1007,o),
(621,1007,cs),
(850,1007,o),
(964,874,o),
(964,754,cs)
);
},
{
closed = 1;
nodes = (
(464,831,o),
(361,728,o),
(318,575,c),
(675,618,o),
(736,673,o),
(736,748,cs),
(736,787,o),
(700,831,o),
(609,831,cs)
);
}
);
width = 1006;
},
{
layerId = "30810D6C-99CD-409A-82EF-98D1F10F6C9D";
shapes = (
{
closed = 1;
nodes = (
(922,597,o),
(794,479,o),
(231,428,c),
(230,417,o),
(230,406,o),
(230,395,cs),
(230,218,o),
(315,124,o),
(490,124,c),
(596,125,o),
(663,157,o),
(713,188,cs),
(763,219,o),
(794,251,o),
(827,251,cs),
(840,251,o),
(851,245,o),
(861,234,c),
(905,181,l),
(761,45,o),
(638,-14,o),
(458,-14,cs),
(210,-14,o),
(59,144,o),
(59,391,cs),
(59,691,o),
(269,991,o),
(609,991,cs),
(828,991,o),
(922,864,o),
(922,763,cs)
);
},
{
closed = 1;
nodes = (
(416,866,o),
(290,724,o),
(247,544,c),
(697,592,o),
(765,669,o),
(765,759,cs),
(765,806,o),
(720,866,o),
(600,866,cs)
);
}
);
width = 978;
}
);
leftKerningGroup = e2;
rightKerningGroup = e;
unicode = 101;
},
{
glyphname = eogonek;
layers = (
{
layerId = "E33FAED1-6CF3-4816-84CB-8FA701D54EAB";
shapes = (
{
closed = 1;
nodes = (
(622,-178,o),
(629,-183,o),
(632,-194,cs),
(656,-285,l),
(613,-313,o),
(548,-334,o),
(480,-334,cs),
(367,-334,o),
(310,-280,o),
(310,-207,cs),
(310,-138,o),
(353,-70,o),
(437,-14,c),
(202,2,o),
(49,164,o),
(49,407,cs),
(49,719,o),
(273,1007,o),
(621,1007,cs),
(850,1007,o),
(964,874,o),
(964,754,cs),
(964,579,o),
(829,460,o),
(297,412,c),
(297,255,o),
(370,181,o),
(522,181,cs),
(714,181,o),
(753,284,o),
(835,284,cs),
(853,284,o),
(868,277,o),
(881,262,cs),
(947,184,l),
(831,75,o),
(729,15,o),
(595,-6,c),
(545,-35,o),
(499,-83,o),
(499,-139,cs),
(499,-170,o),
(517,-192,o),
(548,-192,cs),
(590,-192,o),
(599,-178,o),
(611,-178,cs)
);
},
{
closed = 1;
nodes = (
(464,831,o),
(361,728,o),
(318,575,c),
(675,618,o),
(736,673,o),
(736,748,cs),
(736,787,o),
(700,831,o),
(609,831,cs)
);
}
);
width = 1006;
},
{
layerId = "30810D6C-99CD-409A-82EF-98D1F10F6C9D";
shapes = (
{
closed = 1;
nodes = (
(662,-205,o),
(668,-209,o),
(670,-217,cs),
(688,-280,l),
(648,-309,o),
(587,-330,o),
(526,-330,cs),
(427,-330,o),
(372,-282,o),
(372,-207,cs),
(372,-131,o),
(423,-64,o),
(499,-13,c),
(486,-13,o),
(473,-14,o),
(458,-14,cs),
(210,-14,o),
(59,144,o),
(59,391,cs),
(59,691,o),
(269,991,o),
(609,991,cs),
(828,991,o),
(922,864,o),
(922,763,cs),
(922,597,o),
(794,479,o),
(231,428,c),
(230,417,o),
(230,406,o),
(230,395,cs),
(230,218,o),
(315,124,o),
(490,124,c),
(596,125,o),
(663,157,o),
(713,188,cs),
(763,219,o),
(794,251,o),
(827,251,cs),
(840,251,o),
(851,245,o),
(861,234,c),
(905,181,l),
(804,86,o),
(714,27,o),
(607,2,c),
(626,0,l),
(573,-29,o),
(504,-86,o),
(504,-160,cs),
(504,-201,o),
(531,-228,o),
(572,-228,cs),
(626,-228,o),
(643,-205,o),
(653,-205,cs)
);
},
{
closed = 1;
nodes = (
(416,866,o),
(290,724,o),
(247,544,c),
(697,592,o),
(765,669,o),
(765,759,cs),
(765,806,o),
(720,866,o),
(600,866,cs)
);
}
);
width = 978;
}
);
leftKerningGroup = e2;
rightKerningGroup = e;
unicode = 281;
},
{
glyphname = f;
layers = (
{
layerId = "E33FAED1-6CF3-4816-84CB-8FA701D54EAB";
shapes = (
{
closed = 1;
nodes = (
(435,806,l),
(343,42,l),
(291,-135,ls),
(272,-202,o),
(235,-238,o),
(163,-238,cs),
(60,-238,l),
(187,806,l),
(108,821,ls),
(75,828,o),
(52,846,o),
(57,883,cs),
(69,986,l),
(209,986,l),
(218,1055,l),
(245,1283,o),
(415,1423,o),
(638,1423,cs),
(679,1423,o),
(720,1417,o),
(759,1405,c),
(736,1274,l),
(729,1243,o),
(695,1241,o),
(656,1241,cs),
(547,1241,o),
(473,1191,o),
(457,1047,cs),
(450,986,l),
(681,986,l),
(659,806,l)
);
}
);
width = 648;
},
{
layerId = "30810D6C-99CD-409A-82EF-98D1F10F6C9D";
shapes = (
{
closed = 1;
nodes = (
(373,833,l),
(276,32,l),
(227,-166,l),
(216,-214,o),
(191,-240,o),
(140,-240,cs),
(70,-240,l),
(201,831,l),
(96,845,ls),
(71,848,o),
(55,862,o),
(58,889,cs),
(65,960,l),
(216,960,l),
(228,1053,ls),
(255,1277,o),
(409,1404,o),
(611,1404,cs),
(652,1404,o),
(690,1398,o),
(727,1385,c),
(711,1294,ls),
(706,1268,o),
(670,1275,o),
(623,1275,cs),
(504,1275,o),
(414,1214,o),
(395,1048,c),
(383,960,l),
(649,960,l),
(633,833,l)
);
}
);
width = 625;
}
);
leftKerningGroup = f2;
rightKerningGroup = f;
unicode = 102;
},
{
glyphname = f_b;
layers = (
{
layerId = "E33FAED1-6CF3-4816-84CB-8FA701D54EAB";
shapes = (
{
closed = 1;
nodes = (
(706,0,l),
(860,1285,l),
(825,1296,o),
(790,1301,o),
(755,1301,cs),
(606,1301,o),
(511,1195,o),
(495,1048,c),
(487,984,l),
(725,984,l),
(704,810,l),
(473,810,l),
(374,0,l),
(130,0,l),
(229,810,l),
(154,824,ls),
(117,831,o),
(94,849,o),
(99,885,cs),
(111,984,l),
(250,984,l),
(258,1048,ls),
(287,1285,o),
(443,1460,o),
(789,1460,cs),
(899,1460,o),
(975,1440,o),
(1104,1437,c),
(1128,1437,l),
(1128,1436,l),
(1162,1436,l),
(1124,1410,l),
(1050,802,l),
(1146,929,o),
(1264,1008,o),
(1396,1008,cs),
(1568,1008,o),
(1682,890,o),
(1682,634,cs),
(1682,295,o),
(1456,-15,o),
(1184,-15,cs),
(1079,-15,o),
(996,28,o),
(940,96,c),
(932,69,ls),
(917,22,o),
(899,0,o),
(843,0,cs)
);
},
{
closed = 1;
nodes = (
(1191,810,o),
(1070,657,o),
(1009,465,c),
(981,236,l),
(1026,193,o),
(1087,177,o),
(1143,177,cs),
(1315,177,o),
(1429,399,o),
(1429,609,cs),
(1429,746,o),
(1381,810,o),
(1298,810,cs)
);
}
);
width = 1713;
},
{
layerId = "30810D6C-99CD-409A-82EF-98D1F10F6C9D";
shapes = (
{
closed = 1;
nodes = (
(711,0,l),
(869,1310,l),
(826,1321,o),
(780,1329,o),
(737,1329,cs),
(553,1329,o),
(453,1206,o),
(434,1038,c),
(424,958,l),
(692,958,l),
(677,835,l),
(415,835,l),
(312,0,l),
(142,0,l),
(244,833,l),
(144,846,ls),
(116,850,o),
(100,862,o),
(103,889,cs),
(111,958,l),
(259,958,l),
(269,1038,ls),
(298,1271,o),
(441,1441,o),
(759,1441,cs),
(850,1441,o),
(922,1425,o),
(1024,1422,c),
(1055,1422,l),
(1055,1421,l),
(1081,1421,l),
(1052,1400,l),
(970,729,l),
(1071,889,o),
(1206,992,o),
(1351,992,cs),
(1523,992,o),
(1626,866,o),
(1626,633,cs),
(1626,315,o),
(1416,-14,o),
(1135,-14,cs),
(1027,-14,o),
(936,33,o),
(879,114,c),
(864,51,l),
(857,16,o),
(844,0,o),
(804,0,cs)
);
},
{
closed = 1;
nodes = (
(1154,852,o),
(1015,689,o),
(938,465,c),
(907,216,l),
(959,147,o),
(1034,122,o),
(1109,122,cs),
(1320,122,o),
(1452,388,o),
(1452,617,cs),
(1452,770,o),
(1393,852,o),
(1285,852,cs)
);
}
);
width = 1668;
}
);
leftKerningGroup = f2;
rightKerningGroup = b;
},
{
glyphname = f_f_b;
layers = (
{
layerId = "E33FAED1-6CF3-4816-84CB-8FA701D54EAB";
shapes = (
{
closed = 1;
nodes = (
(128,0,l),
(228,810,l),
(154,824,ls),
(117,831,o),
(94,849,o),
(99,885,cs),
(111,984,l),
(249,984,l),
(256,1038,ls),
(283,1265,o),
(436,1404,o),
(660,1404,cs),
(704,1404,o),
(742,1398,o),
(779,1386,c),
(760,1264,l),
(753,1225,o),
(717,1221,o),
(680,1221,cs),
(575,1221,o),
(510,1175,o),
(491,1031,cs),
(485,984,l),
(844,984,l),
(852,1048,ls),
(881,1285,o),
(1037,1460,o),
(1381,1460,cs),
(1490,1460,o),
(1566,1440,o),
(1694,1437,c),
(1715,1437,l),
(1715,1436,l),
(1753,1436,l),
(1711,1407,l),
(1637,802,l),
(1733,929,o),
(1851,1008,o),
(1983,1008,cs),
(2155,1008,o),
(2269,890,o),
(2269,634,cs),
(2269,295,o),
(2043,-15,o),
(1771,-15,cs),
(1666,-15,o),
(1583,28,o),
(1527,96,c),
(1519,69,ls),
(1504,22,o),
(1486,0,o),
(1430,0,cs),
(1293,0,l),
(1448,1286,l),
(1415,1295,o),
(1381,1301,o),
(1346,1301,cs),
(1199,1301,o),
(1108,1195,o),
(1089,1048,cs),
(1081,984,l),
(1318,984,l),
(1296,810,l),
(1068,810,l),
(969,0,l),
(723,0,l),
(822,810,l),
(472,810,l),
(373,0,l)
);
},
{
closed = 1;
nodes = (
(1778,810,o),
(1657,657,o),
(1596,465,c),
(1568,236,l),
(1613,193,o),
(1674,177,o),
(1730,177,cs),
(1902,177,o),
(2016,399,o),
(2016,609,cs),
(2016,746,o),
(1968,810,o),
(1885,810,cs)
);
}
);
width = 2296;
},
{
layerId = "30810D6C-99CD-409A-82EF-98D1F10F6C9D";
shapes = (
{
closed = 1;
nodes = (
(141,0,l),
(243,833,l),
(144,846,ls),
(116,850,o),
(100,862,o),
(103,889,cs),
(111,958,l),
(259,958,l),
(269,1039,ls),
(296,1263,o),
(436,1388,o),
(633,1388,cs),
(676,1388,o),
(712,1381,o),
(747,1369,c),
(732,1284,ls),
(727,1253,o),
(695,1258,o),
(646,1258,cs),
(533,1258,o),
(453,1202,o),
(432,1034,cs),
(422,958,l),
(839,958,l),
(849,1038,ls),
(878,1271,o),
(1021,1441,o),
(1337,1441,cs),
(1428,1441,o),
(1500,1425,o),
(1600,1422,c),
(1628,1422,l),
(1628,1421,l),
(1656,1421,l),
(1625,1399,l),
(1543,729,l),
(1644,889,o),
(1779,992,o),
(1924,992,cs),
(2096,992,o),
(2199,866,o),
(2199,633,cs),
(2199,315,o),
(1989,-14,o),
(1708,-14,cs),
(1600,-14,o),
(1509,33,o),
(1452,114,c),
(1437,51,l),
(1430,16,o),
(1417,0,o),
(1377,0,cs),
(1284,0,l),
(1442,1311,l),
(1399,1322,o),
(1355,1329,o),
(1314,1329,cs),
(1130,1329,o),
(1034,1206,o),
(1013,1038,cs),
(1003,958,l),
(1269,958,l),
(1254,835,l),
(994,835,l),
(891,0,l),
(721,0,l),
(824,835,l),
(414,835,l),
(311,0,l)
);
},
{
closed = 1;
nodes = (
(1727,852,o),
(1588,689,o),
(1511,465,c),
(1480,216,l),
(1532,147,o),
(1607,122,o),
(1682,122,cs),
(1893,122,o),
(2025,388,o),
(2025,617,cs),
(2025,770,o),
(1966,852,o),
(1858,852,cs)
);
}
);
width = 2238;
}
);
leftKerningGroup = f2;
rightKerningGroup = b;
},
{
glyphname = f_f;
layers = (
{
layerId = "E33FAED1-6CF3-4816-84CB-8FA701D54EAB";
shapes = (
{
closed = 1;
nodes = (
(127,0,l),
(226,810,l),
(153,824,ls),
(117,831,o),
(94,849,o),
(99,885,cs),
(111,984,l),
(247,984,l),
(254,1038,ls),
(267,1151,o),
(313,1243,o),
(382,1306,cs),
(450,1369,o),
(544,1404,o),
(655,1404,cs),
(699,1404,o),
(735,1398,o),
(774,1386,c),
(754,1264,ls),
(747,1225,o),
(712,1221,o),
(675,1221,cs),
(623,1221,o),
(582,1209,o),
(551,1180,cs),
(519,1151,o),
(498,1103,o),
(489,1031,cs),
(483,984,l),
(836,984,l),
(847,1071,ls),
(860,1184,o),
(906,1276,o),
(975,1340,cs),
(1044,1403,o),
(1137,1438,o),
(1248,1438,cs),
(1293,1438,o),
(1330,1431,o),
(1367,1419,c),
(1347,1297,ls),
(1340,1258,o),
(1305,1253,o),
(1269,1253,cs),
(1218,1253,o),
(1176,1242,o),
(1145,1213,cs),
(1113,1184,o),
(1092,1136,o),
(1083,1063,cs),
(1073,984,l),
(1306,984,l),
(1284,810,l),
(1060,810,l),
(961,0,l),
(715,0,l),
(815,810,l),
(470,810,l),
(371,0,l)
);
}
);
width = 1230;
},
{
layerId = "30810D6C-99CD-409A-82EF-98D1F10F6C9D";
shapes = (
{
closed = 1;
nodes = (
(139,0,l),
(241,834,l),
(143,846,l),
(116,850,o),
(100,862,o),
(103,889,cs),
(111,958,l),
(257,958,l),
(267,1039,ls),
(280,1151,o),
(322,1238,o),
(385,1298,cs),
(448,1357,o),
(532,1388,o),
(631,1388,cs),
(671,1388,o),
(708,1381,o),
(743,1369,c),
(728,1284,ls),
(723,1253,o),
(692,1258,o),
(643,1258,cs),
(587,1258,o),
(539,1244,o),
(503,1209,cs),
(466,1174,o),
(441,1118,o),
(430,1034,cs),
(420,958,l),
(834,958,l),
(847,1064,ls),
(860,1176,o),
(902,1263,o),
(965,1323,cs),
(1028,1382,o),
(1111,1414,o),
(1210,1414,cs),
(1250,1414,o),
(1290,1406,o),
(1322,1394,c),
(1307,1309,l),
(1303,1278,o),
(1271,1283,o),
(1222,1283,cs),
(1166,1283,o),
(1118,1269,o),
(1082,1234,cs),
(1046,1198,o),
(1022,1142,o),
(1011,1058,cs),
(998,958,l),
(1261,958,l),
(1247,835,l),
(989,835,l),
(886,0,l),
(716,0,l),
(819,835,l),
(412,835,l),
(309,0,l)
);
}
);
width = 1195;
}
);
leftKerningGroup = f2;
rightKerningGroup = f;
unicode = 64256;
},
{
glyphname = f_h;
layers = (
{
layerId = "E33FAED1-6CF3-4816-84CB-8FA701D54EAB";
shapes = (
{
closed = 1;
nodes = (
(724,0,l),
(878,1280,l),
(839,1293,o),
(796,1301,o),
(756,1301,cs),
(681,1301,o),
(620,1274,o),
(576,1230,cs),
(531,1185,o),
(503,1121,o),
(495,1048,cs),
(487,984,l),
(726,984,l),
(705,810,l),
(473,810,l),
(374,0,l),
(130,0,l),
(229,810,l),
(154,824,ls),
(117,831,o),
(94,849,o),
(99,885,cs),
(111,984,l),
(250,984,l),
(258,1048,ls),
(273,1167,o),
(320,1270,o),
(406,1343,cs),
(492,1416,o),
(617,1460,o),
(790,1460,cs),
(845,1460,o),
(892,1455,o),
(941,1450,cs),
(989,1445,o),
(1041,1438,o),
(1105,1437,c),
(1151,1437,l),
(1151,1436,l),
(1163,1436,l),
(1150,1427,l),
(1077,831,l),
(1174,951,o),
(1291,1008,o),
(1411,1008,cs),
(1496,1008,o),
(1567,974,o),
(1612,910,cs),
(1656,846,o),
(1676,752,o),
(1661,632,cs),
(1586,0,l),
(1333,0,l),
(1407,632,ls),
(1423,755,o),
(1395,803,o),
(1315,803,cs),
(1266,803,o),
(1211,775,o),
(1162,725,cs),
(1113,675,o),
(1068,604,o),
(1039,517,c),
(977,0,l)
);
}
);
width = 1711;
},
{
layerId = "30810D6C-99CD-409A-82EF-98D1F10F6C9D";
shapes = (
{
closed = 1;
nodes = (
(698,0,l),
(856,1313,l),
(816,1324,o),
(775,1329,o),
(736,1329,cs),
(644,1329,o),
(573,1298,o),
(523,1247,cs),
(473,1195,o),
(442,1122,o),
(433,1038,c),
(423,958,l),
(691,958,l),
(676,835,l),
(414,835,l),
(311,0,l),
(141,0,l),
(243,834,l),
(144,846,ls),
(116,850,o),
(100,862,o),
(103,889,cs),
(111,958,l),
(258,958,l),
(268,1038,ls),
(283,1154,o),
(326,1255,o),
(405,1327,cs),
(484,1399,o),
(599,1441,o),
(758,1441,cs),
(803,1441,o),
(845,1437,o),
(887,1433,cs),
(929,1429,o),
(971,1423,o),
(1022,1422,c),
(1044,1422,l),
(1044,1421,l),
(1079,1421,l),
(1040,1394,l),
(964,759,l),
(1068,912,o),
(1201,992,o),
(1334,992,cs),
(1419,992,o),
(1486,959,o),
(1527,896,cs),
(1567,833,o),
(1583,740,o),
(1568,623,cs),
(1495,0,l),
(1320,0,l),
(1393,623,ls),
(1412,776,o),
(1375,848,o),
(1270,848,cs),
(1210,848,o),
(1145,815,o),
(1086,758,cs),
(1027,701,o),
(972,617,o),
(935,517,c),
(873,0,l)
);
}
);
width = 1667;
}
);
leftKerningGroup = f2;
rightKerningGroup = h;
},
{
glyphname = f_f_h;
layers = (
{
layerId = "E33FAED1-6CF3-4816-84CB-8FA701D54EAB";
shapes = (
{
closed = 1;
nodes = (
(128,0,l),
(227,810,l),
(154,824,ls),
(117,831,o),
(94,849,o),
(99,885,cs),
(111,984,l),
(248,984,l),
(255,1038,ls),
(268,1151,o),
(315,1243,o),
(384,1306,cs),
(453,1369,o),
(547,1404,o),
(659,1404,cs),
(703,1404,o),
(740,1398,o),
(779,1386,c),
(759,1264,ls),
(752,1225,o),
(716,1221,o),
(680,1221,cs),
(628,1221,o),
(585,1209,o),
(553,1180,cs),
(521,1151,o),
(499,1103,o),
(490,1031,cs),
(484,984,l),
(843,984,l),
(851,1048,ls),
(866,1167,o),
(912,1270,o),
(998,1343,cs),
(1084,1416,o),
(1208,1460,o),
(1380,1460,cs),
(1433,1460,o),
(1480,1455,o),
(1529,1450,cs),
(1577,1445,o),
(1628,1438,o),
(1692,1437,c),
(1729,1437,l),
(1729,1436,l),
(1751,1436,l),
(1727,1419,l),
(1655,831,l),
(1752,951,o),
(1869,1008,o),
(1989,1008,cs),
(2074,1008,o),
(2145,974,o),
(2190,910,cs),
(2234,846,o),
(2254,752,o),
(2239,632,cs),
(2164,0,l),
(1911,0,l),
(1985,632,ls),
(2001,755,o),
(1973,803,o),
(1893,803,cs),
(1844,803,o),
(1789,775,o),
(1740,725,cs),
(1691,675,o),
(1646,604,o),
(1617,517,c),
(1555,0,l),
(1302,0,l),
(1456,1283,l),
(1421,1294,o),
(1383,1301,o),
(1344,1301,cs),
(1271,1301,o),
(1212,1274,o),
(1168,1230,cs),
(1124,1185,o),
(1097,1121,o),
(1088,1048,cs),
(1080,984,l),
(1316,984,l),
(1295,810,l),
(1067,810,l),
(968,0,l),
(722,0,l),
(821,810,l),
(471,810,l),
(372,0,l)
);
}
);
width = 2293;
},
{
layerId = "30810D6C-99CD-409A-82EF-98D1F10F6C9D";
shapes = (
{
closed = 1;
nodes = (
(140,0,l),
(243,833,l),
(144,846,ls),
(116,850,o),
(100,862,o),
(103,889,cs),
(111,958,l),
(259,958,l),
(269,1039,ls),
(282,1151,o),
(324,1238,o),
(387,1298,cs),
(450,1357,o),
(534,1388,o),
(633,1388,cs),
(674,1388,o),
(712,1381,o),
(747,1369,c),
(732,1284,ls),
(727,1253,o),
(695,1258,o),
(646,1258,cs),
(590,1258,o),
(541,1244,o),
(505,1209,cs),
(468,1174,o),
(443,1118,o),
(432,1034,cs),
(421,958,l),
(838,958,l),
(848,1038,ls),
(863,1154,o),
(905,1255,o),
(985,1327,cs),
(1064,1399,o),
(1178,1441,o),
(1337,1441,cs),
(1382,1441,o),
(1424,1437,o),
(1466,1433,cs),
(1508,1429,o),
(1550,1423,o),
(1599,1422,c),
(1630,1422,l),
(1630,1421,l),
(1655,1421,l),
(1627,1401,l),
(1550,759,l),
(1654,912,o),
(1787,992,o),
(1920,992,cs),
(2005,992,o),
(2072,959,o),
(2113,896,cs),
(2153,833,o),
(2169,740,o),
(2154,623,cs),
(2081,0,l),
(1906,0,l),
(1979,623,ls),
(1998,776,o),
(1961,848,o),
(1856,848,cs),
(1796,848,o),
(1731,815,o),
(1672,758,cs),
(1613,701,o),
(1558,617,o),
(1521,517,c),
(1459,0,l),
(1284,0,l),
(1441,1311,l),
(1398,1322,o),
(1354,1329,o),
(1313,1329,cs),
(1221,1329,o),
(1151,1298,o),
(1102,1247,cs),
(1053,1195,o),
(1023,1122,o),
(1012,1038,cs),
(1002,958,l),
(1268,958,l),
(1254,835,l),
(993,835,l),
(890,0,l),
(720,0,l),
(823,835,l),
(414,835,l),
(311,0,l)
);
}
);
width = 2237;
}
);
leftKerningGroup = f2;
rightKerningGroup = h;
},
{
glyphname = fi;
layers = (
{
layerId = "E33FAED1-6CF3-4816-84CB-8FA701D54EAB";
shapes = (
{
closed = 1;
nodes = (
(446,986,l),
(1049,986,l),
(929,0,l),
(680,0,l),
(779,806,l),
(434,806,l),
(341,41,l),
(289,-136,l),
(270,-204,o),
(233,-240,o),
(160,-240,cs),
(58,-240,l),
(186,806,l),
(110,820,ls),
(73,827,o),
(51,844,o),
(56,880,c),
(66,986,l),
(208,986,l),
(212,1013,l),
(241,1256,o),
(420,1439,o),
(753,1439,cs),
(806,1439,o),
(872,1433,o),
(912,1421,c),
(888,1294,l),
(881,1263,o),
(847,1262,o),
(804,1262,cs),
(557,1262,o),
(470,1180,o),
(449,1008,cs)
);
}
);
width = 1135;
},
{
layerId = "30810D6C-99CD-409A-82EF-98D1F10F6C9D";
shapes = (
{
closed = 1;
nodes = (
(965,960,l),
(847,0,l),
(676,0,l),
(777,832,l),
(373,832,l),
(275,31,l),
(226,-167,l),
(215,-215,o),
(190,-241,o),
(139,-241,cs),
(70,-241,l),
(201,830,l),
(98,843,ls),
(70,847,o),
(54,859,o),
(57,886,cs),
(64,960,l),
(217,960,l),
(224,1012,l),
(253,1252,o),
(421,1416,o),
(711,1416,cs),
(760,1416,o),
(824,1410,o),
(859,1397,c),
(843,1309,ls),
(838,1282,o),
(803,1291,o),
(745,1291,cs),
(520,1291,o),
(413,1201,o),
(388,1009,cs),
(382,960,l)
);
}
);
width = 1084;
}
);
leftKerningGroup = f2;
unicode = 64257;
},
{
glyphname = f_igrave;
layers = (
{
layerId = "E33FAED1-6CF3-4816-84CB-8FA701D54EAB";
shapes = (
{
closed = 1;
nodes = (
(927,1442,o),
(975,1408,o),
(995,1361,cs),
(1098,1126,l),
(958,1126,ls),
(922,1126,o),
(903,1136,o),
(882,1161,cs),
(798,1263,l),
(592,1255,o),
(511,1169,o),
(492,1006,cs),
(489,984,l),
(1089,984,l),
(968,0,l),
(723,0,l),
(822,810,l),
(476,810,l),
(377,0,l),
(132,0,l),
(231,810,l),
(154,824,ls),
(119,831,o),
(94,849,o),
(99,885,cs),
(111,984,l),
(252,984,l),
(256,1014,ls),
(285,1256,o),
(447,1442,o),
(835,1442,cs)
);
}
);
width = 1135;
},
{
layerId = "30810D6C-99CD-409A-82EF-98D1F10F6C9D";
shapes = (
{
closed = 1;
nodes = (
(856,1420,o),
(894,1395,o),
(911,1356,c),
(1023,1123,l),
(926,1123,ls),
(901,1123,o),
(886,1130,o),
(871,1149,cs),
(759,1294,l),
(559,1287,o),
(457,1195,o),
(434,1008,cs),
(428,958,l),
(1010,958,l),
(892,0,l),
(722,0,l),
(824,835,l),
(419,835,l),
(316,0,l),
(146,0,l),
(248,833,l),
(144,846,ls),
(117,850,o),
(100,862,o),
(103,889,cs),
(112,958,l),
(263,958,l),
(270,1013,ls),
(299,1253,o),
(459,1420,o),
(784,1420,cs)
);
}
);
width = 1084;
}
);
leftKerningGroup = f2;
},
{
glyphname = f_icircumflex;
layers = (
{
layerId = "E33FAED1-6CF3-4816-84CB-8FA701D54EAB";
shapes = (
{
closed = 1;
nodes = (
(132,0,l),
(231,810,l),
(154,824,ls),
(119,831,o),
(94,849,o),
(99,885,cs),
(111,984,l),
(252,984,l),
(266,1097,ls),
(293,1308,o),
(412,1429,o),
(603,1429,cs),
(638,1429,o),
(664,1426,o),
(689,1418,c),
(674,1285,ls),
(671,1260,o),
(647,1253,o),
(618,1253,cs),
(549,1253,o),
(516,1208,o),
(503,1097,cs),
(489,984,l),
(1088,984,l),
(968,0,l),
(723,0,l),
(821,810,l),
(475,810,l),
(376,0,l)
);
},
{
closed = 1;
nodes = (
(1317,1127,l),
(1155,1127,ls),
(1136,1127,o),
(1117,1136,o),
(1109,1145,cs),
(1034,1233,l),
(1029,1240,o),
(1023,1246,o),
(1016,1254,c),
(1008,1246,o),
(1001,1239,o),
(994,1234,c),
(896,1145,l),
(885,1136,o),
(865,1127,o),
(845,1127,cs),
(676,1127,l),
(915,1397,l),
(1145,1397,l)
);
}
);
width = 1135;
},
{
layerId = "30810D6C-99CD-409A-82EF-98D1F10F6C9D";
shapes = (
{
alignment = -1;
pos = (101,0);
ref = _2781;
},
{
alignment = -1;
ref = f_dotlessi;
},
{
alignment = -1;
pos = (438,0);
ref = circumflex;
}
);
width = 1084;
}
);
leftKerningGroup = f2;
},
{
glyphname = f_itilde;
layers = (
{
layerId = "E33FAED1-6CF3-4816-84CB-8FA701D54EAB";
shapes = (
{
closed = 1;
nodes = (
(566,0,l),
(665,810,l),
(588,824,ls),
(553,831,o),
(528,849,o),
(533,885,cs),
(545,984,l),
(686,984,l),
(700,1097,ls),
(727,1308,o),
(846,1429,o),
(1037,1429,cs),
(1072,1429,o),
(1098,1426,o),
(1123,1418,c),
(1111,1318,l),
(1117,1315,o),
(1123,1314,o),
(1130,1314,cs),
(1162,1314,o),
(1184,1332,o),
(1192,1387,c),
(1339,1387,l),
(1323,1240,o),
(1227,1146,o),
(1118,1146,cs),
(1053,1146,o),
(1008,1190,o),
(970,1211,c),
(954,1186,o),
(943,1148,o),
(937,1097,cs),
(923,984,l),
(1522,984,l),
(1402,0,l),
(1157,0,l),
(1255,810,l),
(909,810,l),
(810,0,l)
);
}
);
width = 1153;
},
{
layerId = "30810D6C-99CD-409A-82EF-98D1F10F6C9D";
shapes = (
{
closed = 1;
nodes = (
(502,0,l),
(604,833,l),
(500,846,ls),
(473,850,o),
(456,862,o),
(459,889,cs),
(468,958,l),
(619,958,l),
(635,1087,ls),
(662,1300,o),
(777,1411,o),
(949,1411,cs),
(978,1411,o),
(1002,1409,o),
(1023,1402,c),
(1013,1309,ls),
(1012,1304,o),
(1010,1299,o),
(1007,1295,c),
(1022,1284,o),
(1037,1277,o),
(1053,1277,cs),
(1095,1277,o),
(1120,1305,o),
(1129,1361,c),
(1232,1361,l),
(1219,1241,o),
(1141,1157,o),
(1045,1157,cs),
(962,1157,o),
(913,1246,o),
(860,1246,cs),
(858,1246,l),
(828,1214,o),
(809,1161,o),
(800,1088,cs),
(784,958,l),
(1366,958,l),
(1249,0,l),
(1078,0,l),
(1180,835,l),
(775,835,l),
(672,0,l)
);
}
);
width = 1103;
}
);
leftKerningGroup = f2;
},
{
glyphname = f_idieresis;
layers = (
{
layerId = "E33FAED1-6CF3-4816-84CB-8FA701D54EAB";
shapes = (
{
closed = 1;
nodes = (
(193,0,l),
(292,810,l),
(215,824,ls),
(180,831,o),
(155,849,o),
(160,885,cs),
(172,984,l),
(313,984,l),
(327,1097,ls),
(354,1308,o),
(473,1429,o),
(664,1429,cs),
(699,1429,o),
(725,1426,o),
(750,1418,c),
(742,1345,l),
(769,1369,o),
(804,1384,o),
(839,1384,cs),
(908,1384,o),
(962,1330,o),
(962,1262,cs),
(962,1182,o),
(888,1117,o),
(809,1117,cs),
(743,1117,o),
(690,1171,o),
(690,1235,cs),
(690,1242,o),
(690,1246,o),
(691,1253,c),
(679,1253,ls),
(610,1253,o),
(577,1208,o),
(564,1097,cs),
(550,984,l),
(1149,984,l),
(1029,0,l),
(784,0,l),
(882,810,l),
(536,810,l),
(437,0,l)
);
},
{
closed = 1;
nodes = (
(1296,1182,o),
(1224,1117,o),
(1145,1117,cs),
(1076,1117,o),
(1024,1171,o),
(1024,1235,cs),
(1024,1317,o),
(1097,1384,o),
(1175,1384,cs),
(1245,1384,o),
(1296,1330,o),
(1296,1262,cs)
);
}
);
width = 1153;
},
{
layerId = "30810D6C-99CD-409A-82EF-98D1F10F6C9D";
shapes = (
{
closed = 1;
nodes = (
(198,0,l),
(300,833,l),
(196,846,ls),
(169,850,o),
(152,862,o),
(155,889,cs),
(164,958,l),
(315,958,l),
(331,1087,ls),
(358,1300,o),
(473,1411,o),
(645,1411,cs),
(674,1411,o),
(698,1409,o),
(719,1402,c),
(710,1316,l),
(733,1339,o),
(763,1353,o),
(794,1353,cs),
(850,1353,o),
(891,1310,o),
(891,1254,cs),
(891,1191,o),
(833,1139,o),
(769,1139,cs),
(716,1139,o),
(674,1181,o),
(674,1234,cs),
(674,1253,o),
(679,1271,o),
(688,1288,c),
(679,1285,o),
(669,1286,o),
(654,1286,cs),
(563,1286,o),
(513,1228,o),
(496,1088,cs),
(480,958,l),
(1062,958,l),
(945,0,l),
(774,0,l),
(876,835,l),
(471,835,l),
(368,0,l)
);
},
{
closed = 1;
nodes = (
(1211,1191,o),
(1153,1139,o),
(1089,1139,cs),
(1034,1139,o),
(993,1181,o),
(993,1234,cs),
(993,1299,o),
(1051,1353,o),
(1114,1353,cs),
(1170,1353,o),
(1211,1310,o),
(1211,1255,cs)
);
}
);
width = 1103;
}
);
leftKerningGroup = f2;
},
{
glyphname = f_imacron;
layers = (
{
layerId = "E33FAED1-6CF3-4816-84CB-8FA701D54EAB";
shapes = (
{
closed = 1;
nodes = (
(132,0,l),
(231,810,l),
(154,824,ls),
(119,831,o),
(94,849,o),
(99,885,cs),
(111,984,l),
(252,984,l),
(266,1097,ls),
(293,1308,o),
(412,1429,o),
(603,1429,cs),
(638,1429,o),
(664,1426,o),
(689,1418,c),
(674,1285,ls),
(671,1260,o),
(647,1253,o),
(618,1253,cs),
(549,1253,o),
(516,1208,o),
(503,1097,cs),
(489,984,l),
(1088,984,l),
(968,0,l),
(723,0,l),
(821,810,l),
(475,810,l),
(376,0,l)
);
},
{
closed = 1;
nodes = (
(764,1326,l),
(1303,1326,l),
(1283,1170,l),
(744,1170,l)
);
}
);
width = 1153;
},
{
layerId = "30810D6C-99CD-409A-82EF-98D1F10F6C9D";
shapes = (
{
closed = 1;
nodes = (
(146,0,l),
(248,833,l),
(144,846,ls),
(117,850,o),
(100,862,o),
(103,889,c),
(112,958,l),
(263,958,l),
(279,1087,ls),
(306,1300,o),
(421,1411,o),
(593,1411,cs),
(622,1411,o),
(646,1409,o),
(667,1402,c),
(657,1309,l),
(654,1289,o),
(634,1286,o),
(602,1286,cs),
(511,1286,o),
(461,1228,o),
(444,1088,cs),
(428,958,l),
(1010,958,l),
(893,0,l),
(722,0,l),
(824,835,l),
(419,835,l),
(316,0,l)
);
},
{
closed = 1;
nodes = (
(703,1299,l),
(1216,1299,l),
(1202,1188,l),
(689,1188,l)
);
}
);
width = 1103;
}
);
leftKerningGroup = f2;
},
{
glyphname = f_ibreve;
layers = (
{
layerId = "E33FAED1-6CF3-4816-84CB-8FA701D54EAB";
shapes = (
{
closed = 1;
nodes = (
(132,0,l),
(231,810,l),
(154,824,ls),
(119,831,o),
(94,849,o),
(99,885,cs),
(111,984,l),
(252,984,l),
(266,1097,ls),
(293,1308,o),
(412,1429,o),
(603,1429,cs),
(638,1429,o),
(664,1426,o),
(689,1418,c),
(674,1285,ls),
(671,1260,o),
(647,1253,o),
(618,1253,cs),
(549,1253,o),
(516,1208,o),
(503,1097,cs),
(489,984,l),
(1088,984,l),
(968,0,l),
(723,0,l),
(821,810,l),
(475,810,l),
(376,0,l)
);
},
{
closed = 1;
nodes = (
(805,1120,o),
(754,1247,o),
(773,1397,c),
(944,1397,l),
(933,1320,o),
(948,1274,o),
(1036,1274,cs),
(1123,1274,o),
(1150,1320,o),
(1158,1397,c),
(1330,1397,l),
(1311,1247,o),
(1227,1120,o),
(1017,1120,cs)
);
}
);
width = 1153;
},
{
layerId = "30810D6C-99CD-409A-82EF-98D1F10F6C9D";
shapes = (
{
alignment = -1;
pos = (101,0);
ref = _2781;
},
{
alignment = -1;
ref = f_dotlessi;
},
{
alignment = -1;
pos = (471,0);
ref = breve;
}
);
width = 1103;
}
);
leftKerningGroup = f2;
},
{
glyphname = f_iogonek;
layers = (
{
layerId = "E33FAED1-6CF3-4816-84CB-8FA701D54EAB";
shapes = (
{
closed = 1;
nodes = (
(136,0,l),
(235,810,l),
(158,824,ls),
(123,831,o),
(98,849,o),
(103,885,cs),
(115,984,l),
(256,984,l),
(260,1014,ls),
(289,1256,o),
(464,1442,o),
(800,1442,cs),
(853,1442,o),
(913,1434,o),
(952,1422,c),
(930,1296,ls),
(925,1265,o),
(890,1264,o),
(851,1264,cs),
(608,1264,o),
(514,1178,o),
(495,1006,cs),
(492,984,l),
(1092,984,l),
(972,0,l),
(907,0,l),
(854,-29,o),
(801,-78,o),
(801,-139,cs),
(801,-170,o),
(819,-192,o),
(850,-192,cs),
(892,-192,o),
(901,-178,o),
(913,-178,cs),
(924,-178,o),
(931,-183,o),
(934,-194,cs),
(958,-285,l),
(915,-313,o),
(850,-334,o),
(782,-334,cs),
(669,-334,o),
(612,-280,o),
(612,-207,cs),
(612,-131,o),
(662,-60,o),
(762,0,c),
(727,0,l),
(825,810,l),
(479,810,l),
(380,0,l)
);
}
);
width = 1135;
},
{
layerId = "30810D6C-99CD-409A-82EF-98D1F10F6C9D";
shapes = (
{
closed = 1;
nodes = (
(146,0,l),
(248,833,l),
(144,846,ls),
(117,850,o),
(100,862,o),
(103,889,cs),
(112,958,l),
(263,958,l),
(270,1013,ls),
(299,1253,o),
(469,1420,o),
(758,1420,cs),
(806,1420,o),
(861,1412,o),
(896,1399,c),
(880,1312,ls),
(875,1287,o),
(847,1294,o),
(791,1294,cs),
(567,1294,o),
(458,1200,o),
(434,1008,cs),
(428,958,l),
(1010,958,l),
(893,0,l),
(869,0,l),
(816,-29,o),
(747,-86,o),
(747,-160,cs),
(747,-201,o),
(774,-228,o),
(815,-228,cs),
(869,-228,o),
(886,-205,o),
(896,-205,cs),
(905,-205,o),
(911,-209,o),
(913,-217,cs),
(931,-280,l),
(891,-309,o),
(830,-330,o),
(769,-330,cs),
(670,-330,o),
(615,-282,o),
(615,-207,cs),
(615,-124,o),
(677,-52,o),
(762,0,c),
(722,0,l),
(824,835,l),
(419,835,l),
(316,0,l)
);
}
);
width = 1084;
}
);
leftKerningGroup = f2;
},
{
glyphname = f_dotlessi;
layers = (
{
layerId = "E33FAED1-6CF3-4816-84CB-8FA701D54EAB";
shapes = (
{
closed = 1;
nodes = (
(132,0,l),
(231,810,l),
(154,824,ls),
(119,831,o),
(94,849,o),
(99,885,cs),
(111,984,l),
(252,984,l),
(266,1097,ls),
(293,1308,o),
(412,1429,o),
(603,1429,cs),
(638,1429,o),
(664,1426,o),
(689,1418,c),
(674,1285,ls),
(671,1260,o),
(647,1253,o),
(618,1253,cs),
(549,1253,o),
(516,1208,o),
(503,1097,cs),
(489,984,l),
(1088,984,l),
(968,0,l),
(723,0,l),
(821,810,l),
(475,810,l),
(376,0,l)
);
}
);
width = 1135;
},
{
layerId = "30810D6C-99CD-409A-82EF-98D1F10F6C9D";
shapes = (
{
closed = 1;
nodes = (
(146,0,l),
(248,833,l),
(144,846,ls),
(117,850,o),
(100,862,o),
(103,889,cs),
(112,958,l),
(263,958,l),
(279,1087,ls),
(306,1300,o),
(421,1411,o),
(593,1411,cs),
(622,1411,o),
(646,1409,o),
(667,1402,c),
(657,1309,l),
(654,1289,o),
(634,1286,o),
(602,1286,cs),
(511,1286,o),
(461,1228,o),
(444,1088,cs),
(428,958,l),
(1010,958,l),
(893,0,l),
(722,0,l),
(824,835,l),
(419,835,l),
(316,0,l)
);
}
);
width = 1084;
}
);
leftKerningGroup = f2;
},
{
glyphname = f_f_i;
layers = (
{
layerId = "E33FAED1-6CF3-4816-84CB-8FA701D54EAB";
shapes = (
{
closed = 1;
nodes = (
(129,0,l),
(228,810,l),
(154,824,ls),
(118,831,o),
(94,849,o),
(99,885,cs),
(111,984,l),
(249,984,l),
(256,1038,ls),
(283,1265,o),
(439,1404,o),
(662,1404,cs),
(706,1404,o),
(743,1398,o),
(782,1386,c),
(762,1264,ls),
(755,1225,o),
(721,1221,o),
(682,1221,cs),
(577,1221,o),
(510,1175,o),
(491,1031,cs),
(485,984,l),
(848,984,l),
(852,1014,ls),
(881,1256,o),
(1054,1442,o),
(1387,1442,cs),
(1438,1442,o),
(1498,1434,o),
(1537,1422,c),
(1514,1296,l),
(1507,1265,o),
(1475,1264,o),
(1436,1264,cs),
(1194,1264,o),
(1109,1178,o),
(1088,1006,cs),
(1085,984,l),
(1674,984,l),
(1654,810,l),
(1653,810,l),
(1554,0,l),
(1309,0,l),
(1408,810,l),
(1071,810,l),
(972,0,l),
(727,0,l),
(827,810,l),
(472,810,l),
(373,0,l)
);
}
);
width = 1718;
},
{
layerId = "30810D6C-99CD-409A-82EF-98D1F10F6C9D";
shapes = (
{
closed = 1;
nodes = (
(143,0,l),
(245,833,l),
(144,846,ls),
(117,850,o),
(100,862,o),
(103,889,cs),
(111,958,l),
(261,958,l),
(271,1039,ls),
(298,1263,o),
(439,1388,o),
(639,1388,cs),
(680,1388,o),
(718,1381,o),
(753,1369,c),
(739,1284,ls),
(734,1252,o),
(702,1258,o),
(651,1258,cs),
(537,1258,o),
(453,1202,o),
(434,1034,cs),
(425,958,l),
(848,958,l),
(855,1013,ls),
(884,1253,o),
(1050,1420,o),
(1336,1420,cs),
(1383,1420,o),
(1437,1412,o),
(1472,1399,c),
(1455,1312,ls),
(1450,1287,o),
(1421,1294,o),
(1370,1294,cs),
(1149,1294,o),
(1043,1200,o),
(1019,1008,c),
(1012,958,l),
(1584,958,l),
(1570,835,l),
(1569,835,l),
(1466,0,l),
(1296,0,l),
(1399,835,l),
(1003,835,l),
(900,0,l),
(730,0,l),
(833,835,l),
(416,835,l),
(313,0,l)
);
}
);
width = 1654;
}
);
leftKerningGroup = f2;
unicode = 64259;
},
{
glyphname = f_f_igrave;
layers = (
{
layerId = "E33FAED1-6CF3-4816-84CB-8FA701D54EAB";
shapes = (
{
closed = 1;
nodes = (
(1654,810,l),
(1555,0,l),
(1310,0,l),
(1409,810,l),
(1072,810,l),
(973,0,l),
(728,0,l),
(827,810,l),
(474,810,l),
(374,0,l),
(129,0,l),
(229,810,l),
(154,824,ls),
(118,831,o),
(94,849,o),
(99,885,cs),
(111,984,l),
(250,984,l),
(257,1038,ls),
(284,1266,o),
(438,1404,o),
(662,1404,cs),
(707,1404,o),
(743,1398,o),
(782,1386,c),
(763,1264,l),
(758,1227,o),
(719,1221,o),
(682,1221,cs),
(577,1221,o),
(512,1175,o),
(493,1031,cs),
(487,984,l),
(848,984,l),
(859,1071,ls),
(886,1298,o),
(1056,1438,o),
(1386,1438,cs),
(1505,1438,o),
(1556,1420,o),
(1571,1387,c),
(1683,1126,l),
(1545,1126,ls),
(1508,1126,o),
(1489,1136,o),
(1468,1161,c),
(1379,1273,l),
(1368,1273,ls),
(1187,1273,o),
(1114,1208,o),
(1095,1063,cs),
(1085,984,l),
(1675,984,l),
(1655,810,l)
);
}
);
width = 1718;
},
{
layerId = "30810D6C-99CD-409A-82EF-98D1F10F6C9D";
shapes = (
{
closed = 1;
nodes = (
(1467,0,l),
(1297,0,l),
(1400,835,l),
(1004,835,l),
(902,0,l),
(731,0,l),
(834,835,l),
(417,835,l),
(314,0,l),
(144,0,l),
(246,833,l),
(144,846,ls),
(117,850,o),
(100,862,o),
(103,889,cs),
(111,958,l),
(262,958,l),
(272,1039,ls),
(299,1263,o),
(441,1388,o),
(640,1388,cs),
(683,1388,o),
(721,1381,o),
(756,1369,c),
(742,1284,ls),
(737,1253,o),
(705,1258,o),
(653,1258,cs),
(539,1258,o),
(457,1202,o),
(436,1034,cs),
(426,958,l),
(849,958,l),
(862,1064,ls),
(889,1288,o),
(1036,1414,o),
(1327,1414,cs),
(1420,1414,o),
(1472,1400,o),
(1485,1371,cs),
(1602,1123,l),
(1505,1123,ls),
(1478,1123,o),
(1465,1129,o),
(1450,1149,cs),
(1339,1296,l),
(1330,1297,o),
(1322,1297,o),
(1311,1297,cs),
(1139,1297,o),
(1047,1234,o),
(1026,1058,c),
(1013,958,l),
(1585,958,l),
(1570,835,l)
);
}
);
width = 1654;
}
);
leftKerningGroup = f2;
},
{
glyphname = f_f_icircumflex;
layers = (
{
layerId = "E33FAED1-6CF3-4816-84CB-8FA701D54EAB";
shapes = (
{
closed = 1;
nodes = (
(1653,810,l),
(1554,0,l),
(1309,0,l),
(1408,810,l),
(1071,810,l),
(972,0,l),
(727,0,l),
(826,810,l),
(472,810,l),
(373,0,l),
(129,0,l),
(228,810,l),
(154,824,ls),
(118,831,o),
(94,849,o),
(99,885,cs),
(111,984,l),
(249,984,l),
(256,1038,ls),
(283,1265,o),
(439,1404,o),
(662,1404,cs),
(706,1404,o),
(743,1398,o),
(782,1386,c),
(762,1264,ls),
(755,1225,o),
(721,1221,o),
(682,1221,cs),
(577,1221,o),
(510,1175,o),
(491,1031,cs),
(485,984,l),
(847,984,l),
(861,1097,ls),
(888,1308,o),
(1007,1429,o),
(1195,1429,cs),
(1230,1429,o),
(1256,1426,o),
(1281,1418,c),
(1265,1285,ls),
(1262,1260,o),
(1238,1253,o),
(1209,1253,cs),
(1142,1253,o),
(1113,1208,o),
(1098,1097,c),
(1084,984,l),
(1674,984,l),
(1654,810,l)
);
},
{
closed = 1;
nodes = (
(1866,1127,l),
(1704,1127,ls),
(1685,1127,o),
(1666,1136,o),
(1658,1145,cs),
(1583,1233,l),
(1578,1240,o),
(1572,1246,o),
(1565,1254,c),
(1557,1246,o),
(1550,1239,o),
(1543,1234,c),
(1445,1145,l),
(1434,1136,o),
(1414,1127,o),
(1394,1127,cs),
(1225,1127,l),
(1464,1397,l),
(1694,1397,l)
);
}
);
width = 1718;
},
{
layerId = "30810D6C-99CD-409A-82EF-98D1F10F6C9D";
shapes = (
{
alignment = -1;
pos = (101,0);
ref = _2781;
},
{
alignment = -1;
ref = f_f_dotlessi;
},
{
alignment = -1;
pos = (979,0);
ref = circumflex;
}
);
width = 1654;
}
);
leftKerningGroup = f2;
},
{
glyphname = f_f_itilde;
layers = (
{
layerId = "E33FAED1-6CF3-4816-84CB-8FA701D54EAB";
shapes = (
{
closed = 1;
nodes = (
(1689,810,l),
(1590,0,l),
(1345,0,l),
(1444,810,l),
(1107,810,l),
(1008,0,l),
(763,0,l),
(862,810,l),
(508,810,l),
(409,0,l),
(165,0,l),
(264,810,l),
(190,824,ls),
(154,831,o),
(130,849,o),
(135,885,cs),
(147,984,l),
(285,984,l),
(292,1038,ls),
(319,1265,o),
(475,1404,o),
(698,1404,cs),
(742,1404,o),
(779,1398,o),
(818,1386,c),
(798,1264,ls),
(791,1225,o),
(757,1221,o),
(718,1221,cs),
(613,1221,o),
(546,1175,o),
(527,1031,cs),
(521,984,l),
(883,984,l),
(897,1097,ls),
(924,1308,o),
(1043,1429,o),
(1231,1429,cs),
(1266,1429,o),
(1292,1426,o),
(1317,1418,c),
(1301,1285,ls),
(1298,1260,o),
(1274,1253,o),
(1245,1253,cs),
(1178,1253,o),
(1149,1208,o),
(1134,1097,c),
(1120,984,l),
(1710,984,l),
(1690,810,l)
);
},
{
closed = 1;
nodes = (
(1711,1314,o),
(1733,1332,o),
(1741,1387,c),
(1888,1387,l),
(1872,1240,o),
(1776,1146,o),
(1667,1146,cs),
(1580,1146,o),
(1527,1224,o),
(1482,1224,cs),
(1450,1224,o),
(1428,1206,o),
(1421,1151,c),
(1272,1151,l),
(1288,1296,o),
(1385,1393,o),
(1494,1393,cs),
(1581,1393,o),
(1634,1314,o),
(1679,1314,cs)
);
}
);
width = 1736;
},
{
layerId = "30810D6C-99CD-409A-82EF-98D1F10F6C9D";
shapes = (
{
alignment = -1;
pos = (127,0);
ref = _2781;
},
{
alignment = -1;
pos = (26,0);
ref = f_f_dotlessi;
},
{
alignment = -1;
pos = (935,0);
ref = tilde;
}
);
width = 1673;
}
);
leftKerningGroup = f2;
},
{
glyphname = f_f_idieresis;
layers = (
{
layerId = "E33FAED1-6CF3-4816-84CB-8FA701D54EAB";
shapes = (
{
closed = 1;
nodes = (
(165,0,l),
(264,810,l),
(190,824,ls),
(154,831,o),
(130,849,o),
(135,885,cs),
(147,984,l),
(285,984,l),
(292,1038,ls),
(319,1265,o),
(475,1404,o),
(698,1404,cs),
(742,1404,o),
(779,1398,o),
(818,1386,c),
(798,1264,ls),
(791,1225,o),
(757,1221,o),
(718,1221,cs),
(613,1221,o),
(546,1175,o),
(527,1031,cs),
(521,984,l),
(883,984,l),
(897,1097,ls),
(924,1308,o),
(1043,1429,o),
(1231,1429,cs),
(1266,1429,o),
(1292,1426,o),
(1317,1418,c),
(1305,1321,l),
(1334,1360,o),
(1377,1384,o),
(1424,1384,cs),
(1493,1384,o),
(1544,1330,o),
(1544,1262,cs),
(1544,1182,o),
(1472,1117,o),
(1392,1117,cs),
(1327,1117,o),
(1275,1171,o),
(1275,1235,cs),
(1275,1242,o),
(1275,1250,o),
(1276,1257,c),
(1268,1254,o),
(1258,1253,o),
(1245,1253,cs),
(1178,1253,o),
(1149,1208,o),
(1134,1097,c),
(1120,984,l),
(1710,984,l),
(1690,810,l),
(1689,810,l),
(1590,0,l),
(1345,0,l),
(1444,810,l),
(1107,810,l),
(1008,0,l),
(763,0,l),
(862,810,l),
(508,810,l),
(409,0,l)
);
},
{
closed = 1;
nodes = (
(1873,1182,o),
(1801,1117,o),
(1722,1117,cs),
(1654,1117,o),
(1603,1171,o),
(1603,1235,cs),
(1603,1316,o),
(1676,1384,o),
(1753,1384,cs),
(1822,1384,o),
(1873,1330,o),
(1873,1262,cs)
);
}
);
width = 1736;
},
{
layerId = "30810D6C-99CD-409A-82EF-98D1F10F6C9D";
shapes = (
{
alignment = -1;
pos = (127,0);
ref = _2781;
},
{
alignment = -1;
pos = (26,0);
ref = f_f_dotlessi;
},
{
alignment = -1;
pos = (850,1483);
ref = _484;
},
{
alignment = -1;
pos = (1163,1484);
ref = _484;
}
);
width = 1673;
}
);
leftKerningGroup = f2;
},
{
glyphname = f_f_imacron;
layers = (
{
layerId = "E33FAED1-6CF3-4816-84CB-8FA701D54EAB";
shapes = (
{
closed = 1;
nodes = (
(1689,810,l),
(1590,0,l),
(1345,0,l),
(1444,810,l),
(1107,810,l),
(1008,0,l),
(763,0,l),
(862,810,l),
(508,810,l),
(409,0,l),
(165,0,l),
(264,810,l),
(190,824,ls),
(154,831,o),
(130,849,o),
(135,885,cs),
(147,984,l),
(285,984,l),
(292,1038,ls),
(319,1265,o),
(475,1404,o),
(698,1404,cs),
(742,1404,o),
(779,1398,o),
(818,1386,c),
(798,1264,ls),
(791,1225,o),
(757,1221,o),
(718,1221,cs),
(613,1221,o),
(546,1175,o),
(527,1031,cs),
(521,984,l),
(883,984,l),
(897,1097,ls),
(924,1308,o),
(1043,1429,o),
(1231,1429,cs),
(1266,1429,o),
(1292,1426,o),
(1317,1418,c),
(1301,1285,ls),
(1298,1260,o),
(1274,1253,o),
(1245,1253,cs),
(1178,1253,o),
(1149,1208,o),
(1134,1097,c),
(1120,984,l),
(1710,984,l),
(1690,810,l)
);
},
{
closed = 1;
nodes = (
(1317,1326,l),
(1856,1326,l),
(1836,1170,l),
(1297,1170,l)
);
}
);
width = 1736;
},
{
layerId = "30810D6C-99CD-409A-82EF-98D1F10F6C9D";
shapes = (
{
closed = 1;
nodes = (
(1595,835,l),
(1492,0,l),
(1322,0,l),
(1425,835,l),
(1029,835,l),
(926,0,l),
(756,0,l),
(859,835,l),
(442,835,l),
(339,0,l),
(169,0,l),
(271,833,l),
(170,846,ls),
(143,850,o),
(126,862,o),
(129,889,cs),
(137,958,l),
(287,958,l),
(297,1039,ls),
(324,1263,o),
(465,1388,o),
(665,1388,cs),
(706,1388,o),
(744,1381,o),
(779,1369,c),
(765,1284,ls),
(760,1252,o),
(728,1258,o),
(677,1258,cs),
(563,1258,o),
(479,1202,o),
(460,1034,cs),
(451,958,l),
(874,958,l),
(890,1087,ls),
(917,1300,o),
(1028,1411,o),
(1199,1411,cs),
(1230,1411,o),
(1250,1409,o),
(1273,1402,c),
(1261,1309,l),
(1261,1304,o),
(1260,1301,o),
(1258,1299,c),
(1761,1299,l),
(1747,1188,l),
(1234,1188,l),
(1247,1290,l),
(1238,1287,o),
(1225,1286,o),
(1207,1286,cs),
(1120,1286,o),
(1071,1228,o),
(1054,1088,cs),
(1038,958,l),
(1610,958,l),
(1596,835,l)
);
}
);
width = 1673;
}
);
leftKerningGroup = f2;
},
{
glyphname = f_f_ibreve;
layers = (
{
layerId = "E33FAED1-6CF3-4816-84CB-8FA701D54EAB";
shapes = (
{
closed = 1;
nodes = (
(1689,810,l),
(1590,0,l),
(1345,0,l),
(1444,810,l),
(1107,810,l),
(1008,0,l),
(763,0,l),
(862,810,l),
(508,810,l),
(409,0,l),
(165,0,l),
(264,810,l),
(190,824,ls),
(154,831,o),
(130,849,o),
(135,885,cs),
(147,984,l),
(285,984,l),
(292,1038,ls),
(319,1265,o),
(475,1404,o),
(698,1404,cs),
(742,1404,o),
(779,1398,o),
(818,1386,c),
(798,1264,ls),
(791,1225,o),
(757,1221,o),
(718,1221,cs),
(613,1221,o),
(546,1175,o),
(527,1031,cs),
(521,984,l),
(883,984,l),
(897,1097,ls),
(924,1308,o),
(1043,1429,o),
(1231,1429,cs),
(1266,1429,o),
(1292,1426,o),
(1317,1418,c),
(1301,1285,ls),
(1298,1260,o),
(1274,1253,o),
(1245,1253,cs),
(1178,1253,o),
(1149,1208,o),
(1134,1097,c),
(1120,984,l),
(1710,984,l),
(1690,810,l)
);
},
{
closed = 1;
nodes = (
(1349,1120,o),
(1298,1247,o),
(1317,1397,c),
(1488,1397,l),
(1477,1320,o),
(1492,1274,o),
(1580,1274,cs),
(1667,1274,o),
(1694,1320,o),
(1702,1397,c),
(1874,1397,l),
(1855,1247,o),
(1771,1120,o),
(1561,1120,cs)
);
}
);
width = 1736;
},
{
layerId = "30810D6C-99CD-409A-82EF-98D1F10F6C9D";
shapes = (
{
closed = 1;
nodes = (
(1595,835,l),
(1492,0,l),
(1322,0,l),
(1425,835,l),
(1029,835,l),
(926,0,l),
(756,0,l),
(859,835,l),
(442,835,l),
(339,0,l),
(169,0,l),
(271,833,l),
(170,846,ls),
(143,850,o),
(126,862,o),
(129,889,cs),
(137,958,l),
(287,958,l),
(297,1039,ls),
(324,1263,o),
(465,1388,o),
(665,1388,cs),
(706,1388,o),
(744,1381,o),
(779,1369,c),
(765,1284,ls),
(760,1252,o),
(728,1258,o),
(677,1258,cs),
(563,1258,o),
(479,1202,o),
(460,1034,cs),
(451,958,l),
(874,958,l),
(890,1087,ls),
(917,1300,o),
(1028,1411,o),
(1199,1411,cs),
(1230,1411,o),
(1250,1409,o),
(1273,1402,c),
(1270,1382,l),
(1387,1382,l),
(1376,1296,o),
(1397,1234,o),
(1497,1234,cs),
(1597,1234,o),
(1633,1296,o),
(1644,1382,c),
(1764,1382,l),
(1745,1242,o),
(1670,1123,o),
(1483,1123,cs),
(1319,1123,o),
(1261,1217,o),
(1264,1336,c),
(1261,1309,l),
(1260,1289,o),
(1240,1286,o),
(1207,1286,cs),
(1120,1286,o),
(1071,1228,o),
(1054,1088,cs),
(1038,958,l),
(1610,958,l),
(1596,835,l)
);
}
);
width = 1673;
}
);
leftKerningGroup = f2;
},
{
glyphname = f_f_iogonek;
layers = (
{
layerId = "E33FAED1-6CF3-4816-84CB-8FA701D54EAB";
shapes = (
{
closed = 1;
nodes = (
(133,0,l),
(232,810,l),
(158,824,ls),
(122,831,o),
(98,849,o),
(103,885,cs),
(115,984,l),
(253,984,l),
(260,1038,ls),
(287,1265,o),
(443,1404,o),
(666,1404,cs),
(710,1404,o),
(747,1398,o),
(786,1386,c),
(766,1264,ls),
(759,1225,o),
(725,1221,o),
(686,1221,cs),
(581,1221,o),
(514,1175,o),
(495,1031,cs),
(489,984,l),
(852,984,l),
(856,1014,ls),
(885,1256,o),
(1058,1442,o),
(1391,1442,cs),
(1442,1442,o),
(1502,1434,o),
(1541,1422,c),
(1518,1296,l),
(1511,1265,o),
(1479,1264,o),
(1440,1264,cs),
(1198,1264,o),
(1113,1178,o),
(1092,1006,cs),
(1089,984,l),
(1678,984,l),
(1658,810,l),
(1657,810,l),
(1558,0,l),
(1498,0,l),
(1445,-29,o),
(1392,-78,o),
(1392,-139,cs),
(1392,-170,o),
(1410,-192,o),
(1441,-192,cs),
(1483,-192,o),
(1492,-178,o),
(1504,-178,cs),
(1515,-178,o),
(1522,-183,o),
(1525,-194,cs),
(1549,-285,l),
(1506,-313,o),
(1441,-334,o),
(1373,-334,cs),
(1260,-334,o),
(1203,-280,o),
(1203,-207,cs),
(1203,-131,o),
(1253,-60,o),
(1353,0,c),
(1313,0,l),
(1412,810,l),
(1075,810,l),
(976,0,l),
(731,0,l),
(831,810,l),
(476,810,l),
(377,0,l)
);
}
);
width = 1718;
},
{
layerId = "30810D6C-99CD-409A-82EF-98D1F10F6C9D";
shapes = (
{
closed = 1;
nodes = (
(143,0,l),
(245,833,l),
(144,846,ls),
(117,850,o),
(100,862,o),
(103,889,cs),
(111,958,l),
(261,958,l),
(271,1039,ls),
(298,1263,o),
(439,1388,o),
(639,1388,cs),
(680,1388,o),
(718,1381,o),
(753,1369,c),
(739,1284,ls),
(734,1252,o),
(702,1258,o),
(651,1258,cs),
(537,1258,o),
(453,1202,o),
(434,1034,cs),
(425,958,l),
(848,958,l),
(855,1013,ls),
(884,1253,o),
(1050,1420,o),
(1336,1420,cs),
(1383,1420,o),
(1437,1412,o),
(1472,1399,c),
(1455,1312,ls),
(1450,1287,o),
(1421,1294,o),
(1370,1294,cs),
(1149,1294,o),
(1043,1200,o),
(1019,1008,c),
(1012,958,l),
(1584,958,l),
(1570,835,l),
(1569,835,l),
(1466,0,l),
(1422,0,l),
(1369,-29,o),
(1300,-86,o),
(1300,-160,cs),
(1300,-201,o),
(1327,-228,o),
(1368,-228,cs),
(1422,-228,o),
(1439,-205,o),
(1449,-205,cs),
(1458,-205,o),
(1464,-209,o),
(1466,-217,cs),
(1484,-280,l),
(1444,-309,o),
(1383,-330,o),
(1322,-330,cs),
(1223,-330,o),
(1168,-282,o),
(1168,-207,cs),
(1168,-124,o),
(1230,-52,o),
(1315,0,c),
(1296,0,l),
(1399,835,l),
(1003,835,l),
(900,0,l),
(730,0,l),
(833,835,l),
(416,835,l),
(313,0,l)
);
}
);
width = 1654;
}
);
leftKerningGroup = f2;
},
{
glyphname = f_f_dotlessi;
layers = (
{
layerId = "E33FAED1-6CF3-4816-84CB-8FA701D54EAB";
shapes = (
{
closed = 1;
nodes = (
(1653,810,l),
(1554,0,l),
(1309,0,l),
(1408,810,l),
(1071,810,l),
(972,0,l),
(727,0,l),
(826,810,l),
(472,810,l),
(373,0,l),
(129,0,l),
(228,810,l),
(154,824,ls),
(118,831,o),
(94,849,o),
(99,885,cs),
(111,984,l),
(249,984,l),
(256,1038,ls),
(283,1265,o),
(439,1404,o),
(662,1404,cs),
(706,1404,o),
(743,1398,o),
(782,1386,c),
(762,1264,ls),
(755,1225,o),
(721,1221,o),
(682,1221,cs),
(577,1221,o),
(510,1175,o),
(491,1031,cs),
(485,984,l),
(847,984,l),
(861,1097,ls),
(888,1308,o),
(1007,1429,o),
(1195,1429,cs),
(1230,1429,o),
(1256,1426,o),
(1281,1418,c),
(1265,1285,ls),
(1262,1260,o),
(1238,1253,o),
(1209,1253,cs),
(1142,1253,o),
(1113,1208,o),
(1098,1097,c),
(1084,984,l),
(1674,984,l),
(1654,810,l)
);
}
);
width = 1718;
},
{
layerId = "30810D6C-99CD-409A-82EF-98D1F10F6C9D";
shapes = (
{
closed = 1;
nodes = (
(1569,835,l),
(1466,0,l),
(1296,0,l),
(1399,835,l),
(1003,835,l),
(900,0,l),
(730,0,l),
(833,835,l),
(416,835,l),
(313,0,l),
(143,0,l),
(245,833,l),
(144,846,ls),
(117,850,o),
(100,862,o),
(103,889,cs),
(111,958,l),
(261,958,l),
(271,1039,ls),
(298,1263,o),
(439,1388,o),
(639,1388,cs),
(680,1388,o),
(718,1381,o),
(753,1369,c),
(739,1284,ls),
(734,1252,o),
(702,1258,o),
(651,1258,cs),
(537,1258,o),
(453,1202,o),
(434,1034,cs),
(425,958,l),
(848,958,l),
(864,1087,ls),
(891,1300,o),
(1002,1411,o),
(1173,1411,cs),
(1204,1411,o),
(1224,1409,o),
(1247,1402,c),
(1235,1309,l),
(1234,1289,o),
(1214,1286,o),
(1181,1286,cs),
(1094,1286,o),
(1045,1228,o),
(1028,1088,cs),
(1012,958,l),
(1584,958,l),
(1570,835,l)
);
}
);
width = 1654;
}
);
leftKerningGroup = f2;
},
{
glyphname = f_j;
layers = (
{
layerId = "E33FAED1-6CF3-4816-84CB-8FA701D54EAB";
shapes = (
{
closed = 1;
nodes = (
(135,0,l),
(234,809,l),
(154,824,ls),
(119,831,o),
(95,849,o),
(99,885,cs),
(111,984,l),
(255,984,l),
(259,1014,ls),
(288,1256,o),
(465,1442,o),
(803,1442,cs),
(856,1442,o),
(918,1434,o),
(957,1422,c),
(935,1296,ls),
(930,1265,o),
(895,1264,o),
(854,1264,cs),
(607,1264,o),
(513,1178,o),
(494,1006,cs),
(491,984,l),
(1098,984,l),
(973,-30,ls),
(952,-205,o),
(852,-347,o),
(619,-347,cs),
(572,-347,o),
(538,-341,o),
(499,-329,c),
(524,-198,ls),
(529,-171,o),
(542,-166,o),
(589,-166,cs),
(682,-166,o),
(715,-133,o),
(728,-30,cs),
(831,810,l),
(478,810,l),
(379,0,l)
);
}
);
width = 1135;
},
{
layerId = "30810D6C-99CD-409A-82EF-98D1F10F6C9D";
shapes = (
{
closed = 1;
nodes = (
(149,0,l),
(251,833,l),
(144,846,l),
(117,850,o),
(100,862,o),
(103,889,cs),
(112,958,l),
(266,958,l),
(273,1013,ls),
(302,1253,o),
(474,1420,o),
(766,1420,cs),
(814,1420,o),
(871,1412,o),
(906,1399,c),
(890,1312,ls),
(885,1288,o),
(854,1294,o),
(799,1294,cs),
(572,1294,o),
(461,1200,o),
(437,1008,cs),
(431,958,l),
(1022,958,l),
(894,-75,ls),
(875,-230,o),
(781,-352,o),
(585,-352,cs),
(542,-352,o),
(514,-345,o),
(479,-333,c),
(497,-242,l),
(505,-218,o),
(515,-224,o),
(566,-224,cs),
(666,-224,o),
(711,-179,o),
(724,-75,cs),
(837,835,l),
(422,835,l),
(319,0,l)
);
}
);
width = 1084;
}
);
leftKerningGroup = f2;
},
{
glyphname = f_f_j;
layers = (
{
layerId = "E33FAED1-6CF3-4816-84CB-8FA701D54EAB";
shapes = (
{
closed = 1;
nodes = (
(131,0,l),
(230,810,l),
(154,824,ls),
(119,831,o),
(94,849,o),
(99,885,cs),
(111,984,l),
(251,984,l),
(258,1038,ls),
(285,1265,o),
(440,1404,o),
(666,1404,cs),
(709,1404,o),
(749,1398,o),
(787,1386,c),
(768,1264,l),
(763,1227,o),
(724,1221,o),
(687,1221,cs),
(579,1221,o),
(512,1175,o),
(493,1031,cs),
(487,984,l),
(855,984,l),
(859,1014,ls),
(888,1256,o),
(1063,1442,o),
(1398,1442,cs),
(1449,1442,o),
(1510,1434,o),
(1549,1422,c),
(1526,1296,l),
(1519,1265,o),
(1487,1264,o),
(1448,1264,cs),
(1203,1264,o),
(1116,1178,o),
(1095,1006,cs),
(1092,984,l),
(1687,984,l),
(1667,810,l),
(1665,810,l),
(1563,-30,ls),
(1542,-205,o),
(1443,-347,o),
(1212,-347,cs),
(1168,-347,o),
(1133,-341,o),
(1094,-329,c),
(1119,-198,ls),
(1124,-171,o),
(1137,-166,o),
(1182,-166,cs),
(1274,-166,o),
(1305,-133,o),
(1318,-30,cs),
(1421,810,l),
(1079,810,l),
(980,0,l),
(734,0,l),
(834,810,l),
(474,810,l),
(375,0,l)
);
}
);
width = 1719;
},
{
layerId = "30810D6C-99CD-409A-82EF-98D1F10F6C9D";
shapes = (
{
closed = 1;
nodes = (
(145,0,l),
(247,833,l),
(144,846,ls),
(117,850,o),
(100,862,o),
(103,889,cs),
(111,958,l),
(263,958,l),
(273,1039,ls),
(300,1263,o),
(443,1388,o),
(643,1388,cs),
(686,1388,o),
(724,1381,o),
(759,1369,c),
(745,1284,ls),
(740,1253,o),
(708,1258,o),
(656,1258,cs),
(542,1258,o),
(455,1202,o),
(436,1034,cs),
(427,958,l),
(857,958,l),
(864,1013,l),
(891,1253,o),
(1061,1420,o),
(1348,1420,cs),
(1395,1420,o),
(1450,1412,o),
(1485,1399,c),
(1469,1312,ls),
(1464,1287,o),
(1433,1294,o),
(1382,1294,cs),
(1158,1294,o),
(1052,1200,o),
(1028,1008,c),
(1021,958,l),
(1598,958,l),
(1584,835,l),
(1582,835,l),
(1471,-75,ls),
(1452,-230,o),
(1358,-352,o),
(1167,-352,cs),
(1126,-352,o),
(1093,-345,o),
(1061,-333,c),
(1080,-242,ls),
(1085,-218,o),
(1099,-224,o),
(1147,-224,cs),
(1246,-224,o),
(1288,-179,o),
(1301,-75,cs),
(1413,835,l),
(1012,835,l),
(909,0,l),
(739,0,l),
(842,835,l),
(418,835,l),
(315,0,l)
);
}
);
width = 1655;
}
);
leftKerningGroup = f2;
},
{
glyphname = f_k;
layers = (
{
layerId = "E33FAED1-6CF3-4816-84CB-8FA701D54EAB";
shapes = (
{
closed = 1;
nodes = (
(122,0,l),
(221,810,l),
(153,824,ls),
(117,831,o),
(94,849,o),
(99,885,cs),
(111,984,l),
(242,984,l),
(250,1048,ls),
(265,1167,o),
(310,1270,o),
(394,1343,cs),
(477,1416,o),
(598,1460,o),
(765,1460,cs),
(818,1460,o),
(864,1455,o),
(912,1450,cs),
(959,1445,o),
(1009,1438,o),
(1072,1437,c),
(1106,1437,l),
(1106,1436,l),
(1129,1436,l),
(1103,1418,l),
(1005,619,l),
(1028,619,ls),
(1059,619,o),
(1074,627,o),
(1095,652,cs),
(1335,950,l),
(1358,977,o),
(1380,993,o),
(1419,993,cs),
(1646,993,l),
(1341,628,ls),
(1316,599,o),
(1290,576,o),
(1261,559,c),
(1285,539,o),
(1303,512,o),
(1318,480,cs),
(1542,0,l),
(1321,0,ls),
(1285,0,o),
(1261,12,o),
(1246,44,cs),
(1077,414,ls),
(1062,445,o),
(1052,451,o),
(1015,451,cs),
(984,451,l),
(929,0,l),
(679,0,l),
(836,1283,l),
(801,1294,o),
(765,1301,o),
(730,1301,cs),
(662,1301,o),
(606,1274,o),
(564,1230,cs),
(522,1185,o),
(495,1121,o),
(487,1048,cs),
(479,984,l),
(702,984,l),
(680,810,l),
(465,810,l),
(366,0,l)
);
}
);
width = 1613;
},
{
layerId = "30810D6C-99CD-409A-82EF-98D1F10F6C9D";
shapes = (
{
closed = 1;
nodes = (
(135,0,l),
(237,834,l),
(143,846,ls),
(116,850,o),
(100,862,o),
(103,889,cs),
(111,958,l),
(252,958,l),
(262,1038,ls),
(277,1154,o),
(319,1255,o),
(396,1327,cs),
(473,1399,o),
(584,1441,o),
(739,1441,cs),
(784,1441,o),
(824,1437,o),
(865,1433,cs),
(905,1429,o),
(946,1423,o),
(997,1422,c),
(1041,1422,l),
(1041,1421,l),
(1053,1421,l),
(1039,1411,l),
(938,586,l),
(968,586,ls),
(995,586,o),
(1008,592,o),
(1028,613,cs),
(1349,944,ls),
(1369,965,o),
(1386,978,o),
(1417,978,cs),
(1572,978,l),
(1198,594,ls),
(1178,573,o),
(1160,556,o),
(1137,543,c),
(1158,528,o),
(1173,507,o),
(1188,483,cs),
(1476,0,l),
(1326,0,ls),
(1298,0,o),
(1281,9,o),
(1266,33,cs),
(1021,434,ls),
(1005,461,o),
(993,467,o),
(957,467,cs),
(924,467,l),
(867,0,l),
(694,0,l),
(854,1307,l),
(809,1320,o),
(760,1329,o),
(716,1329,cs),
(628,1329,o),
(561,1298,o),
(513,1247,cs),
(465,1195,o),
(436,1122,o),
(427,1038,c),
(417,958,l),
(672,958,l),
(657,835,l),
(408,835,l),
(305,0,l)
);
}
);
width = 1545;
}
);
leftKerningGroup = f2;
},
{
glyphname = f_f_k;
layers = (
{
layerId = "E33FAED1-6CF3-4816-84CB-8FA701D54EAB";
shapes = (
{
closed = 1;
nodes = (
(123,0,l),
(222,810,l),
(153,824,ls),
(118,831,o),
(94,849,o),
(99,885,cs),
(111,984,l),
(243,984,l),
(250,1038,ls),
(277,1265,o),
(427,1404,o),
(646,1404,cs),
(689,1404,o),
(725,1398,o),
(762,1386,c),
(742,1264,l),
(737,1227,o),
(700,1221,o),
(666,1221,cs),
(566,1221,o),
(501,1175,o),
(485,1031,c),
(479,984,l),
(820,984,l),
(828,1048,ls),
(857,1285,o),
(1011,1460,o),
(1345,1460,cs),
(1451,1460,o),
(1525,1440,o),
(1651,1437,c),
(1687,1437,l),
(1687,1436,l),
(1709,1436,l),
(1685,1419,l),
(1586,619,l),
(1609,619,ls),
(1640,619,o),
(1655,627,o),
(1676,652,cs),
(1916,950,l),
(1939,977,o),
(1961,993,o),
(2000,993,cs),
(2227,993,l),
(1922,628,ls),
(1897,599,o),
(1871,576,o),
(1842,559,c),
(1866,539,o),
(1884,512,o),
(1899,480,cs),
(2123,0,l),
(1902,0,ls),
(1866,0,o),
(1842,12,o),
(1827,44,cs),
(1658,414,l),
(1643,445,o),
(1633,451,o),
(1596,451,cs),
(1565,451,l),
(1510,0,l),
(1260,0,l),
(1417,1283,l),
(1382,1294,o),
(1345,1301,o),
(1309,1301,cs),
(1173,1301,o),
(1081,1195,o),
(1065,1048,c),
(1057,984,l),
(1282,984,l),
(1260,810,l),
(1044,810,l),
(945,0,l),
(699,0,l),
(798,810,l),
(466,810,l),
(367,0,l)
);
}
);
width = 2197;
},
{
layerId = "30810D6C-99CD-409A-82EF-98D1F10F6C9D";
shapes = (
{
closed = 1;
nodes = (
(136,0,l),
(238,834,l),
(143,846,ls),
(116,850,o),
(100,862,o),
(103,889,cs),
(111,958,l),
(254,958,l),
(264,1039,ls),
(291,1263,o),
(428,1388,o),
(622,1388,cs),
(661,1388,o),
(697,1382,o),
(732,1369,c),
(717,1284,ls),
(712,1252,o),
(682,1258,o),
(634,1258,cs),
(526,1258,o),
(446,1202,o),
(427,1034,cs),
(418,958,l),
(818,958,l),
(828,1038,ls),
(857,1271,o),
(997,1441,o),
(1306,1441,cs),
(1396,1441,o),
(1466,1425,o),
(1564,1422,c),
(1614,1422,l),
(1614,1421,l),
(1619,1421,l),
(1613,1417,l),
(1512,586,l),
(1541,586,ls),
(1568,586,o),
(1581,592,o),
(1601,613,cs),
(1922,944,ls),
(1942,965,o),
(1959,978,o),
(1990,978,cs),
(2145,978,l),
(1771,594,ls),
(1751,573,o),
(1733,556,o),
(1710,543,c),
(1731,528,o),
(1746,507,o),
(1761,483,cs),
(2049,0,l),
(1899,0,ls),
(1871,0,o),
(1854,9,o),
(1839,33,cs),
(1594,434,ls),
(1578,461,o),
(1566,467,o),
(1530,467,cs),
(1497,467,l),
(1440,0,l),
(1267,0,l),
(1427,1306,l),
(1380,1319,o),
(1329,1329,o),
(1282,1329,cs),
(1106,1329,o),
(1013,1206,o),
(992,1038,cs),
(982,958,l),
(1239,958,l),
(1223,835,l),
(973,835,l),
(870,0,l),
(700,0,l),
(803,835,l),
(409,835,l),
(306,0,l)
);
}
);
width = 2115;
}
);
leftKerningGroup = f2;
},
{
glyphname = fl;
layers = (
{
layerId = "E33FAED1-6CF3-4816-84CB-8FA701D54EAB";
shapes = (
{
closed = 1;
nodes = (
(432,806,l),
(338,41,l),
(287,-136,ls),
(268,-204,o),
(230,-240,o),
(157,-240,cs),
(55,-240,l),
(183,806,l),
(111,820,ls),
(74,827,o),
(52,844,o),
(57,880,c),
(68,986,l),
(205,986,l),
(210,1028,ls),
(223,1132,o),
(267,1232,o),
(341,1305,cs),
(415,1378,o),
(520,1426,o),
(657,1426,cs),
(770,1426,o),
(866,1414,o),
(970,1414,cs),
(1110,1414,l),
(936,0,l),
(690,0,l),
(841,1234,l),
(784,1241,o),
(726,1248,o),
(674,1248,cs),
(546,1248,o),
(465,1175,o),
(450,1028,cs),
(445,986,l),
(658,986,l),
(637,806,l)
);
}
);
width = 1135;
},
{
layerId = "30810D6C-99CD-409A-82EF-98D1F10F6C9D";
shapes = (
{
closed = 1;
nodes = (
(369,833,l),
(270,31,l),
(221,-167,ls),
(210,-215,o),
(185,-241,o),
(134,-241,cs),
(65,-241,l),
(196,831,l),
(99,843,ls),
(72,847,o),
(56,859,o),
(59,886,cs),
(67,960,l),
(212,960,l),
(219,1012,ls),
(232,1120,o),
(276,1220,o),
(348,1292,cs),
(419,1364,o),
(519,1409,o),
(646,1409,cs),
(741,1409,o),
(825,1397,o),
(908,1396,c),
(1025,1396,l),
(855,0,l),
(684,0,l),
(838,1268,l),
(778,1273,o),
(714,1282,o),
(657,1282,cs),
(504,1282,o),
(403,1185,o),
(384,1012,cs),
(378,960,l),
(614,960,l),
(599,833,l)
);
}
);
width = 1084;
}
);
leftKerningGroup = f2;
unicode = 64258;
},
{
glyphname = f_f_l;
layers = (
{
layerId = "E33FAED1-6CF3-4816-84CB-8FA701D54EAB";
shapes = (
{
closed = 1;
nodes = (
(127,0,l),
(226,810,l),
(153,824,ls),
(117,831,o),
(94,849,o),
(99,885,cs),
(111,984,l),
(247,984,l),
(254,1038,ls),
(267,1151,o),
(313,1243,o),
(382,1306,cs),
(450,1369,o),
(544,1404,o),
(655,1404,cs),
(699,1404,o),
(735,1398,o),
(774,1386,c),
(754,1264,ls),
(747,1225,o),
(712,1221,o),
(676,1221,cs),
(624,1221,o),
(582,1209,o),
(551,1180,cs),
(519,1151,o),
(498,1103,o),
(489,1031,cs),
(483,984,l),
(837,984,l),
(842,1025,ls),
(854,1130,o),
(898,1231,o),
(971,1305,cs),
(1044,1379,o),
(1148,1426,o),
(1283,1426,cs),
(1388,1426,o),
(1478,1415,o),
(1571,1414,c),
(1731,1414,l),
(1557,0,l),
(1314,0,l),
(1467,1246,l),
(1404,1249,o),
(1341,1253,o),
(1302,1253,cs),
(1174,1253,o),
(1095,1172,o),
(1078,1025,cs),
(1073,984,l),
(1306,984,l),
(1285,810,l),
(1060,810,l),
(961,0,l),
(716,0,l),
(815,810,l),
(470,810,l),
(371,0,l)
);
}
);
width = 1718;
},
{
layerId = "30810D6C-99CD-409A-82EF-98D1F10F6C9D";
shapes = (
{
closed = 1;
nodes = (
(138,0,l),
(240,833,l),
(143,846,ls),
(116,850,o),
(100,862,o),
(103,889,cs),
(111,958,l),
(256,958,l),
(266,1039,ls),
(279,1151,o),
(321,1238,o),
(384,1298,cs),
(447,1357,o),
(529,1388,o),
(628,1388,cs),
(669,1388,o),
(705,1381,o),
(740,1369,c),
(725,1284,ls),
(720,1253,o),
(689,1258,o),
(640,1258,cs),
(585,1258,o),
(537,1244,o),
(501,1209,cs),
(465,1174,o),
(440,1118,o),
(429,1034,cs),
(419,958,l),
(828,958,l),
(835,1010,ls),
(848,1119,o),
(892,1219,o),
(964,1292,cs),
(1035,1364,o),
(1135,1409,o),
(1262,1409,cs),
(1355,1409,o),
(1440,1397,o),
(1523,1396,c),
(1638,1396,l),
(1466,0,l),
(1298,0,l),
(1454,1278,l),
(1390,1281,o),
(1320,1286,o),
(1273,1286,cs),
(1120,1286,o),
(1021,1182,o),
(1000,1010,cs),
(993,958,l),
(1254,958,l),
(1240,835,l),
(984,835,l),
(881,0,l),
(711,0,l),
(813,835,l),
(411,835,l),
(308,0,l)
);
}
);
width = 1654;
}
);
leftKerningGroup = f2;
unicode = 64260;
},
{
glyphname = f_t;
layers = (
{
layerId = "E33FAED1-6CF3-4816-84CB-8FA701D54EAB";
shapes = (
{
closed = 1;
nodes = (
(1070,810,l),
(1005,277,ls),
(997,216,o),
(1020,181,o),
(1065,181,cs),
(1113,181,o),
(1132,213,o),
(1154,213,cs),
(1169,213,o),
(1176,206,o),
(1184,190,cs),
(1242,72,l),
(1169,15,o),
(1075,-15,o),
(983,-15,cs),
(816,-15,o),
(738,88,o),
(759,261,cs),
(825,810,l),
(469,810,l),
(370,0,l),
(126,0,l),
(225,810,l),
(153,824,ls),
(117,831,o),
(94,849,o),
(99,885,cs),
(111,984,l),
(246,984,l),
(255,1056,ls),
(282,1283,o),
(436,1422,o),
(655,1422,cs),
(699,1422,o),
(734,1416,o),
(773,1404,c),
(752,1282,ls),
(745,1243,o),
(710,1238,o),
(674,1238,cs),
(573,1238,o),
(510,1195,o),
(491,1048,cs),
(483,984,l),
(858,984,l),
(944,1253,ls),
(952,1278,o),
(975,1293,o),
(1003,1293,cs),
(1129,1293,l),
(1091,984,l),
(1331,984,l),
(1310,810,l)
);
}
);
width = 1293;
},
{
layerId = "30810D6C-99CD-409A-82EF-98D1F10F6C9D";
shapes = (
{
closed = 1;
nodes = (
(1003,835,l),
(930,245,l),
(919,162,o),
(955,123,o),
(1014,123,cs),
(1081,123,o),
(1112,170,o),
(1134,170,cs),
(1144,170,o),
(1151,165,o),
(1156,154,cs),
(1196,73,l),
(1132,17,o),
(1043,-15,o),
(959,-15,cs),
(811,-15,o),
(739,73,o),
(759,234,cs),
(832,835,l),
(412,835,l),
(309,0,l),
(139,0,l),
(241,834,l),
(143,846,ls),
(116,850,o),
(100,862,o),
(103,889,cs),
(111,958,l),
(256,958,l),
(268,1054,ls),
(295,1278,o),
(436,1403,o),
(632,1403,cs),
(672,1403,o),
(710,1396,o),
(745,1384,c),
(730,1299,l),
(723,1268,o),
(693,1273,o),
(645,1273,cs),
(533,1273,o),
(451,1216,o),
(432,1048,cs),
(421,958,l),
(853,958,l),
(931,1263,ls),
(936,1282,o),
(953,1295,o),
(974,1295,cs),
(1060,1295,l),
(1018,958,l),
(1282,958,l),
(1268,835,l)
);
}
);
width = 1252;
}
);
leftKerningGroup = f2;
rightKerningGroup = t;
},
{
glyphname = f_f_t;
layers = (
{
layerId = "E33FAED1-6CF3-4816-84CB-8FA701D54EAB";
shapes = (
{
closed = 1;
nodes = (
(125,0,l),
(224,810,l),
(153,824,ls),
(118,831,o),
(94,849,o),
(99,885,cs),
(111,984,l),
(245,984,l),
(252,1038,ls),
(279,1265,o),
(432,1404,o),
(652,1404,cs),
(696,1404,o),
(733,1398,o),
(770,1386,c),
(750,1264,ls),
(743,1225,o),
(708,1221,o),
(672,1221,cs),
(570,1221,o),
(506,1175,o),
(487,1031,cs),
(481,984,l),
(831,984,l),
(840,1056,ls),
(867,1283,o),
(1021,1422,o),
(1241,1422,cs),
(1284,1422,o),
(1319,1416,o),
(1358,1404,c),
(1338,1282,ls),
(1331,1243,o),
(1296,1238,o),
(1260,1238,cs),
(1158,1238,o),
(1095,1195,o),
(1076,1048,cs),
(1068,984,l),
(1443,984,l),
(1528,1253,l),
(1537,1278,o),
(1559,1293,o),
(1587,1293,cs),
(1714,1293,l),
(1676,984,l),
(1916,984,l),
(1893,810,l),
(1654,810,l),
(1589,277,ls),
(1582,217,o),
(1605,181,o),
(1650,181,cs),
(1698,181,o),
(1717,213,o),
(1738,213,cs),
(1753,213,o),
(1759,206,o),
(1767,190,cs),
(1826,72,l),
(1753,15,o),
(1659,-15,o),
(1567,-15,cs),
(1400,-15,o),
(1322,88,o),
(1342,261,c),
(1410,810,l),
(1055,810,l),
(956,0,l),
(711,0,l),
(810,810,l),
(468,810,l),
(369,0,l)
);
}
);
width = 1877;
},
{
layerId = "30810D6C-99CD-409A-82EF-98D1F10F6C9D";
shapes = (
{
closed = 1;
nodes = (
(139,0,l),
(241,833,l),
(143,846,ls),
(116,850,o),
(100,862,o),
(103,889,cs),
(111,958,l),
(257,958,l),
(267,1039,ls),
(294,1263,o),
(434,1388,o),
(629,1388,cs),
(669,1388,o),
(706,1382,o),
(741,1369,c),
(727,1284,ls),
(722,1253,o),
(690,1258,o),
(641,1258,cs),
(531,1258,o),
(449,1202,o),
(430,1034,cs),
(421,958,l),
(830,958,l),
(842,1054,ls),
(869,1278,o),
(1009,1403,o),
(1205,1403,cs),
(1246,1403,o),
(1283,1396,o),
(1318,1384,c),
(1303,1299,ls),
(1298,1268,o),
(1266,1273,o),
(1218,1273,cs),
(1107,1273,o),
(1028,1216,o),
(1007,1048,cs),
(995,958,l),
(1427,958,l),
(1504,1263,ls),
(1509,1284,o),
(1523,1295,o),
(1546,1295,cs),
(1632,1295,l),
(1590,958,l),
(1855,958,l),
(1839,835,l),
(1575,835,l),
(1503,245,l),
(1492,162,o),
(1527,123,o),
(1586,123,cs),
(1652,123,o),
(1687,170,o),
(1705,170,cs),
(1716,170,o),
(1720,165,o),
(1727,154,c),
(1768,73,l),
(1704,17,o),
(1615,-15,o),
(1530,-15,cs),
(1385,-15,o),
(1312,73,o),
(1332,234,cs),
(1406,835,l),
(986,835,l),
(883,0,l),
(713,0,l),
(815,835,l),
(412,835,l),
(309,0,l)
);
}
);
width = 1823;
}
);
leftKerningGroup = f2;
rightKerningGroup = t;
},
{
glyphname = g;
layers = (
{
layerId = "E33FAED1-6CF3-4816-84CB-8FA701D54EAB";
shapes = (
{
closed = 1;
nodes = (
(913,530,o),
(780,475,o),
(780,331,cs),
(780,222,o),
(891,159,o),
(891,20,cs),
(891,-179,o),
(705,-345,o),
(389,-345,cs),
(131,-345,o),
(-32,-239,o),
(-32,-92,c),
(-36,182,o),
(365,228,o),
(608,188,c),
(602,207,o),
(599,227,o),
(599,250,cs),
(599,285,o),
(608,325,o),
(629,370,c),
(578,337,o),
(516,318,o),
(424,318,cs),
(266,318,o),
(127,419,o),
(127,622,cs),
(127,818,o),
(280,1007,o),
(568,1007,cs),
(644,1007,o),
(713,990,o),
(772,957,c),
(1067,957,l),
(1057,875,ls),
(1053,844,o),
(1037,820,o),
(1006,812,cs),
(902,784,l),
(909,759,o),
(912,732,o),
(913,703,c)
);
},
{
closed = 1;
nodes = (
(616,468,o),
(679,583,o),
(679,692,cs),
(679,788,o),
(632,840,o),
(541,840,cs),
(421,840,o),
(358,734,o),
(358,620,cs),
(358,524,o),
(406,468,o),
(495,468,cs)
);
},
{
closed = 1;
nodes = (
(661,15,o),
(660,29,o),
(657,44,c),
(337,95,o),
(209,26,o),
(209,-60,cs),
(209,-135,o),
(273,-176,o),
(408,-176,cs),
(560,-176,o),
(661,-101,o),
(661,-1,cs)
);
}
);
width = 1081;
},
{
layerId = "30810D6C-99CD-409A-82EF-98D1F10F6C9D";
shapes = (
{
closed = 1;
nodes = (
(871,516,o),
(712,448,o),
(712,308,cs),
(712,201,o),
(853,139,o),
(853,-9,cs),
(853,-190,o),
(670,-351,o),
(373,-351,cs),
(136,-351,o),
(-25,-253,o),
(-25,-108,cs),
(-25,139,o),
(321,212,o),
(608,172,c),
(595,196,o),
(586,222,o),
(586,253,cs),
(586,292,o),
(596,334,o),
(627,385,c),
(574,352,o),
(512,333,o),
(431,333,cs),
(271,333,o),
(144,431,o),
(144,622,cs),
(144,809,o),
(287,992,o),
(551,992,cs),
(625,992,o),
(690,976,o),
(745,943,c),
(1029,943,l),
(1022,885,ls),
(1019,862,o),
(1007,844,o),
(983,840,cs),
(851,817,l),
(864,784,o),
(871,748,o),
(871,707,cs)
);
},
{
closed = 1;
nodes = (
(627,442,o),
(711,573,o),
(711,698,cs),
(711,811,o),
(646,872,o),
(534,872,cs),
(384,872,o),
(303,750,o),
(303,621,cs),
(303,505,o),
(369,442,o),
(478,442,cs)
);
},
{
closed = 1;
nodes = (
(693,11,o),
(685,38,o),
(674,63,c),
(303,119,o),
(141,25,o),
(141,-86,cs),
(141,-178,o),
(230,-228,o),
(386,-228,cs),
(571,-228,o),
(693,-134,o),
(693,-22,cs)
);
}
);
width = 1053;
}
);
leftKerningGroup = a;
unicode = 103;
},
{
glyphname = g.salt;
layers = (
{
layerId = "E33FAED1-6CF3-4816-84CB-8FA701D54EAB";
shapes = (
{
closed = 1;
nodes = (
(962,992,l),
(850,75,ls),
(835,-46,o),
(780,-152,o),
(693,-226,cs),
(606,-300,o),
(490,-344,o),
(351,-344,cs),
(272,-344,o),
(209,-330,o),
(158,-307,cs),
(106,-284,o),
(66,-253,o),
(37,-218,c),
(107,-126,l),
(123,-103,o),
(142,-91,o),
(173,-91,cs),
(202,-91,o),
(221,-111,o),
(247,-131,cs),
(273,-150,o),
(307,-170,o),
(367,-170,cs),
(436,-170,o),
(493,-144,o),
(533,-101,cs),
(573,-58,o),
(597,-1,o),
(604,63,cs),
(612,129,l),
(573,89,o),
(540,60,o),
(502,41,cs),
(464,21,o),
(424,13,o),
(373,13,cs),
(280,13,o),
(207,52,o),
(157,121,cs),
(107,190,o),
(80,290,o),
(80,411,cs),
(80,580,o),
(127,730,o),
(206,837,cs),
(285,944,o),
(395,1009,o),
(519,1009,cs),
(623,1009,o),
(680,966,o),
(727,898,c),
(745,948,l),
(758,977,o),
(780,992,o),
(812,992,cs)
);
},
{
closed = 1;
nodes = (
(532,206,o),
(579,244,o),
(635,315,c),
(687,738,l),
(652,802,o),
(606,825,o),
(553,825,cs),
(490,825,o),
(436,792,o),
(397,725,cs),
(357,658,o),
(333,558,o),
(333,423,cs),
(333,275,o),
(380,206,o),
(465,206,cs)
);
}
);
width = 971;
},
{
layerId = "30810D6C-99CD-409A-82EF-98D1F10F6C9D";
shapes = (
{
closed = 1;
nodes = (
(933,977,l),
(820,54,ls),
(805,-63,o),
(755,-164,o),
(676,-236,cs),
(597,-307,o),
(488,-349,o),
(359,-349,cs),
(286,-349,o),
(225,-337,o),
(176,-315,cs),
(127,-293,o),
(88,-263,o),
(57,-228,c),
(106,-163,ls),
(118,-147,o),
(130,-138,o),
(153,-138,cs),
(176,-138,o),
(194,-161,o),
(225,-183,cs),
(256,-205,o),
(299,-226,o),
(370,-226,cs),
(451,-226,o),
(517,-197,o),
(564,-149,cs),
(611,-100,o),
(640,-32,o),
(649,45,cs),
(662,155,l),
(619,107,o),
(577,71,o),
(532,47,cs),
(487,23,o),
(438,11,o),
(379,11,cs),
(287,11,o),
(215,48,o),
(166,114,cs),
(117,180,o),
(91,277,o),
(91,398,cs),
(91,567,o),
(137,718,o),
(215,824,cs),
(293,930,o),
(403,994,o),
(534,994,cs),
(646,994,o),
(711,947,o),
(762,867,c),
(784,942,ls),
(791,965,o),
(806,977,o),
(831,977,cs)
);
},
{
closed = 1;
nodes = (
(534,147,o),
(607,200,o),
(679,293,c),
(735,747,l),
(692,831,o),
(633,863,o),
(556,863,cs),
(467,863,o),
(395,821,o),
(345,743,cs),
(295,665,o),
(266,551,o),
(266,407,cs),
(266,230,o),
(328,147,o),
(441,147,cs)
);
}
);
width = 964;
}
);
leftKerningGroup = a;
},
{
glyphname = h;
layers = (
{
layerId = "E33FAED1-6CF3-4816-84CB-8FA701D54EAB";
shapes = (
{
closed = 1;
nodes = (
(58,0,l),
(231,1437,l),
(485,1437,l),
(411,831,l),
(508,951,o),
(625,1008,o),
(745,1008,cs),
(830,1008,o),
(901,974,o),
(946,910,cs),
(990,846,o),
(1010,752,o),
(995,632,cs),
(920,0,l),
(667,0,l),
(741,632,ls),
(757,755,o),
(729,803,o),
(649,803,cs),
(600,803,o),
(545,775,o),
(496,725,cs),
(447,675,o),
(402,604,o),
(373,517,c),
(311,0,l)
);
}
);
width = 1080;
},
{
layerId = "30810D6C-99CD-409A-82EF-98D1F10F6C9D";
shapes = (
{
closed = 1;
nodes = (
(80,0,l),
(251,1422,l),
(426,1422,l),
(346,759,l),
(450,912,o),
(583,992,o),
(716,992,cs),
(801,992,o),
(868,959,o),
(909,896,cs),
(949,833,o),
(965,740,o),
(950,623,cs),
(877,0,l),
(702,0,l),
(775,623,ls),
(794,776,o),
(757,848,o),
(652,848,cs),
(592,848,o),
(527,815,o),
(468,758,cs),
(409,701,o),
(354,617,o),
(317,517,c),
(255,0,l)
);
}
);
width = 1053;
}
);
leftKerningGroup = b2;
rightKerningGroup = h;
unicode = 104;
},
{
glyphname = hcircumflex;
layers = (
{
layerId = "E33FAED1-6CF3-4816-84CB-8FA701D54EAB";
shapes = (
{
closed = 1;
nodes = (
(58,0,l),
(231,1437,l),
(485,1437,l),
(411,831,l),
(508,951,o),
(625,1008,o),
(745,1008,cs),
(830,1008,o),
(901,974,o),
(946,910,cs),
(990,846,o),
(1010,752,o),
(995,632,cs),
(920,0,l),
(667,0,l),
(741,632,ls),
(757,755,o),
(729,803,o),
(649,803,cs),
(600,803,o),
(545,775,o),
(496,725,cs),
(447,675,o),
(402,604,o),
(373,517,c),
(311,0,l)
);
},
{
closed = 1;
nodes = (
(705,1495,l),
(519,1495,ls),
(500,1495,o),
(476,1502,o),
(464,1513,c),
(386,1573,l),
(372,1585,l),
(356,1573,l),
(263,1512,l),
(248,1501,o),
(222,1495,o),
(202,1495,cs),
(18,1495,l),
(265,1707,l),
(509,1707,l)
);
}
);
width = 1080;
},
{
layerId = "30810D6C-99CD-409A-82EF-98D1F10F6C9D";
shapes = (
{
closed = 1;
nodes = (
(80,0,l),
(251,1422,l),
(426,1422,l),
(346,759,l),
(450,912,o),
(583,992,o),
(716,992,cs),
(801,992,o),
(868,959,o),
(909,896,cs),
(949,833,o),
(965,740,o),
(950,623,cs),
(877,0,l),
(702,0,l),
(775,623,ls),
(794,776,o),
(757,848,o),
(652,848,cs),
(592,848,o),
(527,815,o),
(468,758,cs),
(409,701,o),
(354,617,o),
(317,517,c),
(255,0,l)
);
},
{
closed = 1;
nodes = (
(638,1492,l),
(508,1492,ls),
(493,1492,o),
(475,1497,o),
(466,1505,cs),
(360,1596,l),
(350,1605,l),
(338,1596,l),
(209,1505,ls),
(197,1496,o),
(178,1492,o),
(162,1492,cs),
(34,1492,l),
(277,1694,l),
(443,1694,l)
);
}
);
width = 1053;
}
);
rightKerningGroup = h;
unicode = 293;
},
{
glyphname = hbar;
layers = (
{
layerId = "E33FAED1-6CF3-4816-84CB-8FA701D54EAB";
shapes = (
{
closed = 1;
nodes = (
(68,1245,l),
(210,1245,l),
(233,1437,l),
(487,1437,l),
(464,1245,l),
(717,1245,l),
(703,1155,l),
(698,1112,o),
(670,1090,o),
(623,1090,cs),
(445,1090,l),
(409,795,l),
(509,918,o),
(629,977,o),
(752,977,cs),
(840,977,o),
(911,943,o),
(956,879,cs),
(1001,815,o),
(1021,720,o),
(1006,600,cs),
(934,0,l),
(681,0,l),
(752,600,l),
(769,723,o),
(739,772,o),
(656,772,cs),
(604,772,o),
(548,743,o),
(497,692,cs),
(446,640,o),
(400,566,o),
(371,478,c),
(314,0,l),
(60,0,l),
(191,1090,l),
(48,1090,l)
);
}
);
width = 1098;
},
{
layerId = "30810D6C-99CD-409A-82EF-98D1F10F6C9D";
shapes = (
{
closed = 1;
nodes = (
(73,1214,l),
(227,1214,l),
(253,1422,l),
(428,1422,l),
(403,1214,l),
(652,1214,l),
(642,1150,ls),
(637,1119,o),
(617,1102,o),
(582,1102,cs),
(389,1102,l),
(345,737,l),
(450,890,o),
(585,971,o),
(722,971,cs),
(809,971,o),
(876,938,o),
(917,875,cs),
(957,811,o),
(974,719,o),
(959,602,cs),
(887,0,l),
(712,0,l),
(784,602,ls),
(803,754,o),
(766,827,o),
(658,827,cs),
(595,827,o),
(529,794,o),
(469,735,cs),
(408,675,o),
(352,591,o),
(315,488,c),
(256,0,l),
(80,0,l),
(214,1102,l),
(59,1102,l)
);
}
);
width = 1066;
}
);
rightKerningGroup = h;
unicode = 295;
},
{
glyphname = i;
layers = (
{
layerId = "E33FAED1-6CF3-4816-84CB-8FA701D54EAB";
shapes = (
{
closed = 1;
nodes = (
(436,993,l),
(317,0,l),
(67,0,l),
(186,993,l)
);
},
{
closed = 1;
nodes = (
(496,1235,o),
(477,1196,o),
(447,1168,cs),
(417,1139,o),
(377,1121,o),
(337,1121,cs),
(298,1121,o),
(260,1139,o),
(232,1168,cs),
(204,1196,o),
(185,1235,o),
(185,1278,cs),
(185,1321,o),
(204,1361,o),
(233,1390,cs),
(261,1418,o),
(299,1437,o),
(339,1437,cs),
(379,1437,o),
(419,1419,o),
(448,1390,cs),
(477,1361,o),
(496,1322,o),
(496,1278,cs)
);
}
);
width = 503;
},
{
layerId = "30810D6C-99CD-409A-82EF-98D1F10F6C9D";
shapes = (
{
closed = 1;
nodes = (
(381,978,l),
(263,0,l),
(90,0,l),
(208,978,l)
);
},
{
closed = 1;
nodes = (
(446,1251,o),
(431,1221,o),
(408,1198,cs),
(385,1175,o),
(355,1161,o),
(324,1161,cs),
(293,1161,o),
(265,1175,o),
(243,1198,cs),
(221,1221,o),
(206,1251,o),
(206,1284,cs),
(206,1317,o),
(221,1349,o),
(243,1372,cs),
(265,1395,o),
(294,1409,o),
(325,1409,cs),
(356,1409,o),
(386,1395,o),
(409,1372,cs),
(432,1349,o),
(446,1319,o),
(446,1284,cs)
);
}
);
width = 470;
}
);
leftKerningGroup = i2;
rightKerningGroup = i;
unicode = 105;
},
{
glyphname = iogonek;
layers = (
{
layerId = "E33FAED1-6CF3-4816-84CB-8FA701D54EAB";
shapes = (
{
closed = 1;
nodes = (
(317,-178,o),
(324,-183,o),
(327,-194,cs),
(351,-285,l),
(308,-313,o),
(243,-334,o),
(175,-334,cs),
(62,-334,o),
(5,-280,o),
(5,-207,cs),
(5,-131,o),
(55,-60,o),
(155,0,c),
(67,0,l),
(186,993,l),
(436,993,l),
(317,0,l),
(300,0,l),
(273,-15,o),
(247,-34,o),
(227,-58,cs),
(207,-81,o),
(194,-108,o),
(194,-139,cs),
(194,-170,o),
(212,-192,o),
(243,-192,cs),
(264,-192,o),
(277,-189,o),
(286,-185,cs),
(295,-181,o),
(299,-178,o),
(306,-178,cs)
);
},
{
closed = 1;
nodes = (
(496,1235,o),
(477,1196,o),
(447,1168,cs),
(417,1139,o),
(377,1121,o),
(337,1121,cs),
(298,1121,o),
(260,1139,o),
(232,1168,cs),
(204,1196,o),
(185,1235,o),
(185,1278,cs),
(185,1321,o),
(204,1361,o),
(233,1390,cs),
(261,1418,o),
(299,1437,o),
(339,1437,cs),
(379,1437,o),
(419,1419,o),
(448,1390,cs),
(477,1361,o),
(496,1322,o),
(496,1278,cs)
);
}
);
width = 503;
},
{
layerId = "30810D6C-99CD-409A-82EF-98D1F10F6C9D";
shapes = (
{
closed = 1;
nodes = (
(282,-205,o),
(288,-209,o),
(290,-217,cs),
(308,-280,l),
(268,-309,o),
(207,-330,o),
(146,-330,cs),
(47,-330,o),
(-8,-282,o),
(-8,-207,cs),
(-8,-124,o),
(54,-52,o),
(139,0,c),
(90,0,l),
(208,978,l),
(381,978,l),
(263,0,l),
(246,0,l),
(219,-15,o),
(189,-36,o),
(165,-64,cs),
(141,-91,o),
(124,-123,o),
(124,-160,cs),
(124,-201,o),
(151,-228,o),
(192,-228,cs),
(219,-228,o),
(237,-223,o),
(249,-217,cs),
(261,-211,o),
(268,-205,o),
(273,-205,cs)
);
},
{
closed = 1;
nodes = (
(446,1251,o),
(431,1221,o),
(408,1198,cs),
(385,1175,o),
(355,1161,o),
(324,1161,cs),
(293,1161,o),
(265,1175,o),
(243,1198,cs),
(221,1221,o),
(206,1251,o),
(206,1284,cs),
(206,1317,o),
(221,1349,o),
(243,1372,cs),
(265,1395,o),
(294,1409,o),
(325,1409,cs),
(356,1409,o),
(386,1395,o),
(409,1372,cs),
(432,1349,o),
(446,1319,o),
(446,1284,cs)
);
}
);
width = 470;
}
);
unicode = 303;
},
{
glyphname = dotlessi;
layers = (
{
layerId = "E33FAED1-6CF3-4816-84CB-8FA701D54EAB";
shapes = (
{
closed = 1;
nodes = (
(436,993,l),
(317,0,l),
(67,0,l),
(186,993,l)
);
}
);
width = 503;
},
{
layerId = "30810D6C-99CD-409A-82EF-98D1F10F6C9D";
shapes = (
{
closed = 1;
nodes = (
(381,978,l),
(263,0,l),
(90,0,l),
(208,978,l)
);
}
);
width = 470;
}
);
leftKerningGroup = m;
unicode = 305;
},
{
glyphname = ij.salt;
layers = (
{
layerId = "E33FAED1-6CF3-4816-84CB-8FA701D54EAB";
shapes = (
{
closed = 1;
nodes = (
(448,992,l),
(370,361,l),
(354,244,o),
(407,175,o),
(520,175,cs),
(600,175,o),
(640,196,o),
(694,260,c),
(784,992,l),
(1029,992,l),
(910,26,ls),
(883,-190,o),
(752,-345,o),
(469,-345,cs),
(422,-345,o),
(374,-339,o),
(335,-327,c),
(365,-196,l),
(372,-169,o),
(386,-164,o),
(438,-164,cs),
(571,-164,o),
(646,-116,o),
(665,26,cs),
(672,82,l),
(600,18,o),
(528,-14,o),
(423,-14,cs),
(196,-14,o),
(98,141,o),
(125,361,cs),
(203,992,l)
);
},
{
closed = 1;
nodes = (
(526,1201,o),
(441,1127,o),
(349,1127,cs),
(271,1127,o),
(211,1190,o),
(211,1265,cs),
(211,1358,o),
(295,1436,o),
(384,1436,cs),
(464,1436,o),
(526,1370,o),
(526,1293,cs)
);
},
{
closed = 1;
nodes = (
(1104,1201,o),
(1020,1127,o),
(928,1127,cs),
(850,1127,o),
(790,1190,o),
(790,1265,cs),
(790,1358,o),
(874,1436,o),
(962,1436,cs),
(1042,1436,o),
(1104,1370,o),
(1104,1293,cs)
);
}
);
width = 1079;
},
{
layerId = "30810D6C-99CD-409A-82EF-98D1F10F6C9D";
shapes = (
{
closed = 1;
nodes = (
(390,977,l),
(314,354,l),
(295,206,o),
(349,120,o),
(493,120,cs),
(593,120,o),
(650,149,o),
(721,236,c),
(812,977,l),
(982,977,l),
(862,2,l),
(835,-208,o),
(705,-350,o),
(451,-350,cs),
(408,-350,o),
(362,-344,o),
(327,-331,c),
(351,-240,l),
(359,-216,o),
(373,-222,o),
(430,-222,cs),
(586,-222,o),
(672,-155,o),
(692,2,cs),
(704,103,l),
(624,24,o),
(544,-14,o),
(427,-14,cs),
(203,-14,o),
(117,133,o),
(144,354,cs),
(219,977,l)
);
},
{
closed = 1;
nodes = (
(1061,1225,o),
(993,1165,o),
(924,1165,cs),
(863,1165,o),
(815,1216,o),
(815,1274,cs),
(815,1347,o),
(880,1408,o),
(950,1408,cs),
(1013,1408,o),
(1061,1357,o),
(1061,1297,cs)
);
},
{
closed = 1;
nodes = (
(472,1225,o),
(405,1165,o),
(333,1165,cs),
(272,1165,o),
(226,1216,o),
(226,1274,cs),
(226,1347,o),
(291,1408,o),
(361,1408,cs),
(421,1408,o),
(472,1357,o),
(472,1297,cs)
);
}
);
width = 1051;
}
);
},
{
glyphname = j;
layers = (
{
layerId = "E33FAED1-6CF3-4816-84CB-8FA701D54EAB";
shapes = (
{
closed = 1;
nodes = (
(446,993,l),
(321,-24,l),
(300,-201,o),
(186,-346,o),
(-31,-346,cs),
(-86,-346,o),
(-120,-340,o),
(-159,-328,c),
(-133,-192,ls),
(-128,-165,o),
(-114,-159,o),
(-67,-159,cs),
(25,-159,o),
(59,-127,o),
(72,-24,cs),
(198,993,l)
);
},
{
closed = 1;
nodes = (
(501,1192,o),
(420,1121,o),
(340,1121,cs),
(260,1121,o),
(185,1193,o),
(185,1279,cs),
(185,1365,o),
(259,1437,o),
(339,1437,cs),
(423,1437,o),
(501,1364,o),
(501,1277,cs)
);
}
);
width = 523;
},
{
layerId = "30810D6C-99CD-409A-82EF-98D1F10F6C9D";
shapes = (
{
closed = 1;
nodes = (
(390,978,l),
(261,-71,ls),
(242,-228,o),
(138,-351,o),
(-43,-351,cs),
(-90,-351,o),
(-122,-345,o),
(-154,-332,c),
(-135,-238,ls),
(-130,-213,o),
(-114,-219,o),
(-67,-219,cs),
(32,-219,o),
(75,-175,o),
(88,-71,cs),
(218,978,l)
);
},
{
closed = 1;
nodes = (
(454,1218,o),
(394,1161,o),
(331,1161,cs),
(267,1161,o),
(209,1218,o),
(209,1285,cs),
(209,1352,o),
(267,1409,o),
(329,1409,cs),
(394,1409,o),
(454,1352,o),
(454,1283,cs)
);
}
);
width = 490;
}
);
rightKerningGroup = i;
unicode = 106;
},
{
glyphname = uni0237;
layers = (
{
layerId = "E33FAED1-6CF3-4816-84CB-8FA701D54EAB";
shapes = (
{
closed = 1;
nodes = (
(476,992,l),
(349,-30,l),
(328,-205,o),
(226,-347,o),
(-14,-347,cs),
(-61,-347,o),
(-97,-341,o),
(-136,-329,c),
(-113,-198,ls),
(-108,-173,o),
(-94,-166,o),
(-45,-166,cs),
(55,-166,o),
(91,-133,o),
(104,-30,cs),
(231,992,l)
);
}
);
width = 523;
},
{
layerId = "30810D6C-99CD-409A-82EF-98D1F10F6C9D";
shapes = (
{
closed = 1;
nodes = (
(423,977,l),
(294,-75,ls),
(275,-230,o),
(180,-352,o),
(-19,-352,cs),
(-62,-352,o),
(-92,-345,o),
(-127,-333,c),
(-109,-242,l),
(-101,-218,o),
(-89,-224,o),
(-39,-224,cs),
(65,-224,o),
(112,-179,o),
(125,-75,cs),
(255,977,l)
);
}
);
width = 490;
}
);
unicode = 567;
},
{
glyphname = k;
layers = (
{
layerId = "E33FAED1-6CF3-4816-84CB-8FA701D54EAB";
shapes = (
{
closed = 1;
nodes = (
(481,1437,l),
(380,619,l),
(403,619,ls),
(434,619,o),
(449,627,o),
(470,652,cs),
(710,950,l),
(733,977,o),
(755,993,o),
(794,993,cs),
(1021,993,l),
(716,628,ls),
(691,599,o),
(665,576,o),
(636,559,c),
(660,539,o),
(678,512,o),
(693,480,cs),
(917,0,l),
(696,0,ls),
(660,0,o),
(636,12,o),
(621,44,cs),
(452,414,ls),
(437,445,o),
(427,451,o),
(390,451,cs),
(359,451,l),
(304,0,l),
(54,0,l),
(230,1437,l)
);
}
);
width = 983;
},
{
layerId = "30810D6C-99CD-409A-82EF-98D1F10F6C9D";
shapes = (
{
closed = 1;
nodes = (
(422,1422,l),
(319,586,l),
(349,586,ls),
(376,586,o),
(389,592,o),
(409,613,cs),
(730,944,ls),
(750,965,o),
(767,978,o),
(798,978,cs),
(953,978,l),
(579,594,ls),
(559,573,o),
(541,556,o),
(518,543,c),
(539,528,o),
(554,507,o),
(569,483,cs),
(857,0,l),
(707,0,ls),
(679,0,o),
(662,9,o),
(647,33,cs),
(402,434,ls),
(386,461,o),
(374,467,o),
(338,467,cs),
(305,467,l),
(248,0,l),
(75,0,l),
(249,1422,l)
);
}
);
width = 931;
}
);
leftKerningGroup = b2;
rightKerningGroup = k;
unicode = 107;
},
{
glyphname = kgreenlandic;
layers = (
{
layerId = "E33FAED1-6CF3-4816-84CB-8FA701D54EAB";
shapes = (
{
closed = 1;
nodes = (
(426,993,l),
(379,619,l),
(403,619,ls),
(431,619,o),
(448,625,o),
(469,652,cs),
(706,950,l),
(729,977,o),
(752,993,o),
(791,993,cs),
(1016,993,l),
(719,627,l),
(694,598,o),
(669,575,o),
(638,558,c),
(661,538,o),
(677,511,o),
(692,480,cs),
(913,0,l),
(695,0,ls),
(656,0,o),
(634,12,o),
(618,43,c),
(451,414,l),
(436,445,o),
(426,451,o),
(389,451,cs),
(358,451,l),
(303,0,l),
(53,0,l),
(176,993,l)
);
}
);
width = 983;
},
{
layerId = "30810D6C-99CD-409A-82EF-98D1F10F6C9D";
shapes = (
{
closed = 1;
nodes = (
(367,978,l),
(318,586,l),
(347,586,ls),
(370,586,o),
(385,590,o),
(406,613,cs),
(719,944,ls),
(739,965,o),
(756,978,o),
(787,978,cs),
(941,978,l),
(580,593,ls),
(560,572,o),
(541,555,o),
(518,543,c),
(537,527,o),
(550,507,o),
(565,483,c),
(845,0,l),
(696,0,ls),
(668,0,o),
(651,9,o),
(636,33,cs),
(398,434,l),
(383,461,o),
(371,467,o),
(335,467,cs),
(304,467,l),
(246,0,l),
(73,0,l),
(194,978,l)
);
}
);
width = 931;
}
);
rightKerningGroup = k;
unicode = 312;
},
{
glyphname = lslash;
layers = (
{
layerId = "E33FAED1-6CF3-4816-84CB-8FA701D54EAB";
shapes = (
{
closed = 1;
nodes = (
(68,713,l),
(68,736,o),
(78,753,o),
(99,762,c),
(174,798,l),
(251,1437,l),
(502,1437,l),
(437,904,l),
(569,964,l),
(566,818,l),
(566,791,o),
(555,773,o),
(532,764,c),
(413,706,l),
(328,0,l),
(78,0,l),
(150,602,l),
(65,564,l)
);
}
);
width = 540;
},
{
layerId = "30810D6C-99CD-409A-82EF-98D1F10F6C9D";
shapes = (
{
closed = 1;
nodes = (
(74,701,l),
(74,719,o),
(82,732,o),
(97,740,cs),
(212,798,l),
(287,1422,l),
(460,1422,l),
(394,875,l),
(533,942,l),
(531,842,l),
(531,822,o),
(522,808,o),
(505,800,c),
(377,735,l),
(288,0,l),
(116,0,l),
(195,657,l),
(72,598,l)
);
}
);
width = 507;
}
);
unicode = 322;
},
{
glyphname = lcaron;
layers = (
{
layerId = "E33FAED1-6CF3-4816-84CB-8FA701D54EAB";
shapes = (
{
closed = 1;
nodes = (
(779,1437,ls),
(812,1437,o),
(818,1420,o),
(818,1407,cs),
(818,1384,o),
(804,1349,o),
(687,1146,c),
(668,1107,o),
(641,1102,o),
(598,1102,cs),
(512,1102,l),
(616,1437,l)
);
},
{
closed = 1;
nodes = (
(63,0,l),
(236,1437,l),
(487,1437,l),
(313,0,l)
);
}
);
width = 627;
},
{
layerId = "30810D6C-99CD-409A-82EF-98D1F10F6C9D";
shapes = (
{
alignment = -1;
pos = (88,0);
ref = _2781;
},
{
alignment = -1;
ref = l;
},
{
alignment = -1;
pos = (242,0);
ref = uni0315;
}
);
width = 540;
}
);
leftKerningGroup = b2;
unicode = 318;
},
{
glyphname = m;
layers = (
{
layerId = "E33FAED1-6CF3-4816-84CB-8FA701D54EAB";
shapes = (
{
closed = 1;
nodes = (
(55,0,l),
(175,994,l),
(304,994,ls),
(357,994,o),
(390,969,o),
(389,912,c),
(384,807,l),
(480,943,o),
(593,1008,o),
(717,1008,cs),
(849,1008,o),
(927,924,o),
(939,769,c),
(1038,933,o),
(1159,1008,o),
(1303,1008,cs),
(1484,1008,o),
(1579,872,o),
(1550,632,c),
(1476,0,l),
(1226,0,l),
(1300,632,l),
(1316,755,o),
(1293,801,o),
(1213,801,cs),
(1108,801,o),
(1006,694,o),
(950,514,c),
(950,513,l),
(891,0,l),
(640,0,l),
(714,632,l),
(730,753,o),
(710,801,o),
(630,801,cs),
(518,801,o),
(418,684,o),
(362,500,c),
(304,0,l)
);
}
);
width = 1646;
},
{
layerId = "30810D6C-99CD-409A-82EF-98D1F10F6C9D";
shapes = (
{
closed = 1;
nodes = (
(77,0,l),
(194,979,l),
(280,979,ls),
(320,979,o),
(342,960,o),
(339,920,cs),
(326,738,l),
(427,905,o),
(555,992,o),
(694,992,cs),
(838,992,o),
(902,898,o),
(902,725,c),
(1005,908,o),
(1139,992,o),
(1284,992,cs),
(1464,992,o),
(1538,860,o),
(1509,623,c),
(1435,0,l),
(1262,0,l),
(1336,623,l),
(1355,775,o),
(1332,847,o),
(1225,847,cs),
(1102,847,o),
(978,734,o),
(903,523,c),
(842,0,l),
(669,0,l),
(742,623,l),
(761,775,o),
(744,847,o),
(635,847,cs),
(498,847,o),
(384,716,o),
(307,501,c),
(248,0,l)
);
}
);
width = 1620;
}
);
leftKerningGroup = m;
rightKerningGroup = h;
unicode = 109;
},
{
glyphname = n;
layers = (
{
layerId = "E33FAED1-6CF3-4816-84CB-8FA701D54EAB";
shapes = (
{
closed = 1;
nodes = (
(50,0,l),
(169,994,l),
(298,994,ls),
(353,994,o),
(385,969,o),
(382,912,cs),
(377,793,l),
(481,938,o),
(610,1008,o),
(743,1008,cs),
(828,1008,o),
(899,974,o),
(944,910,cs),
(988,846,o),
(1008,752,o),
(993,632,cs),
(919,0,l),
(665,0,l),
(740,632,ls),
(755,755,o),
(726,801,o),
(646,801,cs),
(591,801,o),
(532,769,o),
(480,713,cs),
(427,657,o),
(381,576,o),
(356,479,c),
(304,0,l)
);
}
);
width = 1080;
},
{
layerId = "30810D6C-99CD-409A-82EF-98D1F10F6C9D";
shapes = (
{
closed = 1;
nodes = (
(72,0,l),
(189,979,l),
(276,979,ls),
(315,979,o),
(337,960,o),
(334,920,cs),
(321,728,l),
(428,903,o),
(570,992,o),
(714,992,cs),
(799,992,o),
(866,959,o),
(907,896,cs),
(947,833,o),
(964,740,o),
(949,623,cs),
(876,0,l),
(701,0,l),
(774,623,ls),
(794,776,o),
(757,847,o),
(650,847,cs),
(586,847,o),
(518,813,o),
(456,751,cs),
(394,689,o),
(338,601,o),
(302,493,c),
(247,0,l)
);
}
);
width = 1053;
}
);
leftKerningGroup = m;
rightKerningGroup = h;
unicode = 110;
},
{
glyphname = eng;
layers = (
{
layerId = "E33FAED1-6CF3-4816-84CB-8FA701D54EAB";
shapes = (
{
closed = 1;
nodes = (
(92,0,l),
(213,992,l),
(363,992,ls),
(394,992,o),
(414,977,o),
(417,948,cs),
(425,871,l),
(514,952,o),
(608,1008,o),
(737,1008,cs),
(949,1008,o),
(1043,853,o),
(1016,632,cs),
(942,37,l),
(915,-187,o),
(790,-348,o),
(538,-348,cs),
(470,-348,o),
(423,-336,o),
(364,-309,c),
(404,-203,ls),
(419,-164,o),
(440,-157,o),
(463,-157,cs),
(482,-157,o),
(497,-167,o),
(536,-167,cs),
(628,-167,o),
(680,-111,o),
(695,10,cs),
(772,632,ls),
(787,749,o),
(743,818,o),
(640,818,cs),
(563,818,o),
(492,779,o),
(424,718,c),
(336,0,l)
);
}
);
width = 1080;
},
{
layerId = "30810D6C-99CD-409A-82EF-98D1F10F6C9D";
shapes = (
{
closed = 1;
nodes = (
(107,0,l),
(226,977,l),
(327,977,ls),
(351,977,o),
(367,966,o),
(366,942,c),
(368,836,l),
(463,931,o),
(567,993,o),
(699,993,cs),
(908,993,o),
(997,845,o),
(970,623,cs),
(894,-2,l),
(867,-212,o),
(754,-353,o),
(538,-353,cs),
(478,-353,o),
(435,-342,o),
(383,-318,c),
(411,-245,ls),
(422,-216,o),
(438,-211,o),
(454,-211,cs),
(469,-211,o),
(491,-225,o),
(538,-225,cs),
(642,-225,o),
(705,-158,o),
(722,-21,cs),
(801,623,l),
(820,772,o),
(767,858,o),
(634,858,cs),
(538,858,o),
(445,805,o),
(364,720,c),
(277,0,l)
);
}
);
width = 1053;
}
);
leftKerningGroup = m;
rightKerningGroup = h;
unicode = 331;
},
{
glyphname = o;
layers = (
{
layerId = "E33FAED1-6CF3-4816-84CB-8FA701D54EAB";
shapes = (
{
closed = 1;
nodes = (
(573,179,o),
(645,227,o),
(695,301,cs),
(745,375,o),
(772,476,o),
(772,584,cs),
(772,745,o),
(711,815,o),
(584,815,cs),
(496,815,o),
(424,768,o),
(374,695,cs),
(324,622,o),
(296,519,o),
(296,410,cs),
(296,251,o),
(359,179,o),
(484,179,cs)
);
},
{
closed = 1;
nodes = (
(343,-15,o),
(237,23,o),
(162,95,cs),
(87,167,o),
(42,273,o),
(42,409,cs),
(42,581,o),
(106,730,o),
(208,838,cs),
(310,945,o),
(449,1009,o),
(604,1009,cs),
(725,1009,o),
(830,971,o),
(906,899,cs),
(981,827,o),
(1026,721,o),
(1026,585,cs),
(1026,416,o),
(964,266,o),
(862,158,cs),
(760,50,o),
(619,-15,o),
(464,-15,cs)
);
}
);
width = 1080;
},
{
layerId = "30810D6C-99CD-409A-82EF-98D1F10F6C9D";
shapes = (
{
closed = 1;
nodes = (
(571,123,o),
(656,178,o),
(716,262,cs),
(775,346,o),
(809,461,o),
(809,581,cs),
(809,764,o),
(725,856,o),
(574,856,cs),
(470,856,o),
(385,802,o),
(326,718,cs),
(266,634,o),
(232,520,o),
(232,400,cs),
(232,217,o),
(315,123,o),
(467,123,cs)
);
},
{
closed = 1;
nodes = (
(336,-14,o),
(237,24,o),
(167,95,cs),
(97,166,o),
(56,268,o),
(56,399,cs),
(56,563,o),
(113,711,o),
(209,819,cs),
(304,926,o),
(437,993,o),
(588,993,cs),
(704,993,o),
(804,955,o),
(874,885,cs),
(944,815,o),
(985,710,o),
(985,581,cs),
(985,418,o),
(927,270,o),
(832,162,cs),
(736,54,o),
(603,-14,o),
(452,-14,cs)
);
}
);
width = 1051;
}
);
leftKerningGroup = o2;
rightKerningGroup = o;
unicode = 111;
},
{
glyphname = oslash;
layers = (
{
layerId = "E33FAED1-6CF3-4816-84CB-8FA701D54EAB";
shapes = (
{
closed = 1;
nodes = (
(390,-15,o),
(312,3,o),
(245,40,c),
(235,28,l),
(195,-28,o),
(136,-46,o),
(83,-46,cs),
(-11,-46,l),
(131,133,l),
(75,204,o),
(43,295,o),
(43,411,cs),
(43,753,o),
(300,1009,o),
(619,1009,cs),
(707,1009,o),
(785,991,o),
(852,954,c),
(866,971,l),
(900,1021,o),
(922,1038,o),
(981,1038,cs),
(1107,1038,l),
(966,859,l),
(1022,788,o),
(1054,696,o),
(1054,583,cs),
(1054,245,o),
(797,-15,o),
(479,-15,cs)
);
},
{
closed = 1;
nodes = (
(281,373,o),
(286,337,o),
(296,306,c),
(707,806,l),
(676,823,o),
(640,831,o),
(599,831,cs),
(412,831,o),
(281,663,o),
(281,414,cs)
);
},
{
closed = 1;
nodes = (
(684,164,o),
(817,333,o),
(817,581,cs),
(817,621,o),
(811,656,o),
(802,687,c),
(390,189,l),
(421,172,o),
(457,164,o),
(499,164,cs)
);
}
);
width = 1114;
},
{
layerId = "30810D6C-99CD-409A-82EF-98D1F10F6C9D";
shapes = (
{
closed = 1;
nodes = (
(374,-14,o),
(295,7,o),
(229,50,c),
(188,-1,l),
(160,-40,o),
(119,-54,o),
(80,-54,cs),
(13,-54,l),
(150,118,l),
(90,189,o),
(58,282,o),
(58,401,cs),
(58,727,o),
(291,993,o),
(603,993,cs),
(695,993,o),
(775,971,o),
(842,928,c),
(880,976,ls),
(907,1011,o),
(918,1025,o),
(964,1025,cs),
(1052,1025,l),
(922,857,l),
(979,788,o),
(1012,695,o),
(1012,579,cs),
(1012,255,o),
(778,-14,o),
(467,-14,cs)
);
},
{
closed = 1;
nodes = (
(224,335,o),
(237,279,o),
(260,235,c),
(741,823,l),
(700,852,o),
(649,867,o),
(589,867,cs),
(373,867,o),
(224,663,o),
(224,402,cs)
);
},
{
closed = 1;
nodes = (
(697,112,o),
(847,317,o),
(847,578,cs),
(847,642,o),
(834,697,o),
(811,741,c),
(330,155,l),
(369,126,o),
(420,112,o),
(481,112,cs)
);
}
);
width = 1084;
}
);
leftKerningGroup = o2;
rightKerningGroup = o;
unicode = 248;
},
{
glyphname = oe;
layers = (
{
layerId = "E33FAED1-6CF3-4816-84CB-8FA701D54EAB";
shapes = (
{
closed = 1;
nodes = (
(1504,1007,o),
(1632,905,o),
(1632,751,cs),
(1632,579,o),
(1495,461,o),
(976,413,c),
(985,252,o),
(1067,181,o),
(1204,181,cs),
(1396,181,o),
(1440,284,o),
(1520,284,cs),
(1538,284,o),
(1553,277,o),
(1566,262,cs),
(1632,184,l),
(1483,46,o),
(1354,-15,o),
(1157,-15,cs),
(1017,-15,o),
(898,46,o),
(831,178,c),
(728,54,o),
(583,-15,o),
(408,-15,cs),
(168,-15,o),
(39,157,o),
(39,360,cs),
(39,784,o),
(313,1007,o),
(620,1007,cs),
(763,1007,o),
(866,948,o),
(926,847,c),
(1017,947,o),
(1145,1007,o),
(1309,1007,cs)
);
},
{
closed = 1;
nodes = (
(664,173,o),
(758,337,o),
(774,584,c),
(785,733,o),
(729,820,o),
(600,820,cs),
(403,820,o),
(287,640,o),
(287,373,cs),
(287,264,o),
(332,173,o),
(466,173,cs)
);
},
{
closed = 1;
nodes = (
(1129,832,o),
(1021,738,o),
(986,567,c),
(1338,607,o),
(1420,678,o),
(1420,745,cs),
(1420,793,o),
(1374,832,o),
(1271,832,cs)
);
}
);
width = 1673;
},
{
layerId = "30810D6C-99CD-409A-82EF-98D1F10F6C9D";
shapes = (
{
closed = 1;
nodes = (
(1500,992,o),
(1617,897,o),
(1617,758,cs),
(1617,599,o),
(1483,481,o),
(940,430,c),
(940,225,o),
(1037,124,o),
(1200,124,cs),
(1412,124,o),
(1477,251,o),
(1540,251,cs),
(1553,251,o),
(1565,245,o),
(1574,234,cs),
(1618,181,l),
(1477,46,o),
(1349,-14,o),
(1168,-14,cs),
(1013,-14,o),
(891,63,o),
(835,219,c),
(739,71,o),
(589,-14,o),
(400,-14,cs),
(163,-14,o),
(46,154,o),
(46,350,cs),
(46,765,o),
(300,992,o),
(601,992,cs),
(758,992,o),
(865,919,o),
(914,795,c),
(1002,918,o),
(1137,992,o),
(1312,992,cs)
);
},
{
closed = 1;
nodes = (
(669,119,o),
(788,306,o),
(804,578,c),
(815,749,o),
(745,860,o),
(587,860,cs),
(359,860,o),
(218,662,o),
(218,360,cs),
(218,232,o),
(276,119,o),
(440,119,cs)
);
},
{
closed = 1;
nodes = (
(1113,868,o),
(983,745,o),
(948,540,c),
(1378,585,o),
(1471,671,o),
(1471,754,cs),
(1471,814,o),
(1413,868,o),
(1287,868,cs)
);
}
);
width = 1668;
}
);
leftKerningGroup = o2;
rightKerningGroup = e;
unicode = 339;
},
{
glyphname = p;
layers = (
{
layerId = "E33FAED1-6CF3-4816-84CB-8FA701D54EAB";
shapes = (
{
closed = 1;
nodes = (
(13,-322,l),
(173,994,l),
(303,994,ls),
(356,994,o),
(389,969,o),
(386,912,cs),
(380,775,l),
(480,918,o),
(608,1008,o),
(751,1008,cs),
(927,1008,o),
(1041,891,o),
(1041,633,cs),
(1041,295,o),
(812,-15,o),
(536,-15,cs),
(441,-15,o),
(365,18,o),
(308,74,c),
(260,-322,l)
);
},
{
closed = 1;
nodes = (
(543,810,o),
(418,657,o),
(356,464,c),
(328,237,l),
(375,193,o),
(436,177,o),
(495,177,cs),
(672,177,o),
(789,398,o),
(789,608,cs),
(789,745,o),
(739,810,o),
(652,810,cs)
);
}
);
width = 1081;
},
{
layerId = "30810D6C-99CD-409A-82EF-98D1F10F6C9D";
shapes = (
{
closed = 1;
nodes = (
(33,-330,l),
(192,979,l),
(280,979,ls),
(319,979,o),
(341,960,o),
(338,920,cs),
(322,709,l),
(426,880,o),
(567,992,o),
(720,992,cs),
(899,992,o),
(1000,868,o),
(1000,632,cs),
(1000,315,o),
(787,-14,o),
(503,-14,cs),
(402,-14,o),
(315,26,o),
(256,97,c),
(204,-330,l)
);
},
{
closed = 1;
nodes = (
(523,852,o),
(377,689,o),
(300,462,c),
(270,217,l),
(323,146,o),
(401,122,o),
(477,122,cs),
(692,122,o),
(826,388,o),
(826,616,cs),
(826,771,o),
(764,852,o),
(655,852,cs)
);
}
);
width = 1053;
}
);
leftKerningGroup = m;
rightKerningGroup = b;
unicode = 112;
},
{
glyphname = thorn;
layers = (
{
layerId = "E33FAED1-6CF3-4816-84CB-8FA701D54EAB";
shapes = (
{
closed = 1;
nodes = (
(21,-322,l),
(234,1437,l),
(484,1437,l),
(405,800,l),
(501,929,o),
(622,1008,o),
(755,1008,cs),
(928,1008,o),
(1042,891,o),
(1042,633,cs),
(1042,295,o),
(815,-15,o),
(540,-15,cs),
(447,-15,o),
(371,18,o),
(315,74,c),
(277,-237,ls),
(272,-281,o),
(234,-322,o),
(178,-322,cs)
);
},
{
closed = 1;
nodes = (
(550,810,o),
(425,657,o),
(364,466,c),
(335,237,l),
(380,193,o),
(443,177,o),
(500,177,cs),
(673,177,o),
(790,398,o),
(790,608,cs),
(790,745,o),
(740,810,o),
(656,810,cs)
);
}
);
width = 1081;
},
{
layerId = "30810D6C-99CD-409A-82EF-98D1F10F6C9D";
shapes = (
{
closed = 1;
nodes = (
(40,-330,l),
(253,1422,l),
(426,1422,l),
(340,727,l),
(442,887,o),
(578,992,o),
(724,992,cs),
(900,992,o),
(1001,869,o),
(1001,633,cs),
(1001,315,o),
(790,-14,o),
(508,-14,cs),
(407,-14,o),
(320,26,o),
(263,97,c),
(218,-268,ls),
(214,-301,o),
(187,-330,o),
(147,-330,cs)
);
},
{
closed = 1;
nodes = (
(528,852,o),
(385,690,o),
(308,466,c),
(278,217,l),
(330,148,o),
(406,122,o),
(481,122,cs),
(694,122,o),
(827,388,o),
(827,616,cs),
(827,771,o),
(766,852,o),
(658,852,cs)
);
}
);
width = 1053;
}
);
leftKerningGroup = b2;
rightKerningGroup = b;
unicode = 254;
},
{
glyphname = q;
layers = (
{
layerId = "E33FAED1-6CF3-4816-84CB-8FA701D54EAB";
shapes = (
{
closed = 1;
nodes = (
(854,-322,l),
(689,-322,ls),
(626,-322,o),
(607,-270,o),
(612,-228,cs),
(664,180,l),
(573,59,o),
(462,-15,o),
(329,-15,cs),
(165,-15,o),
(37,102,o),
(37,345,cs),
(37,701,o),
(332,1008,o),
(728,1008,cs),
(824,1008,o),
(921,996,o),
(1014,963,c)
);
},
{
closed = 1;
nodes = (
(543,192,o),
(650,347,o),
(711,543,c),
(711,544,l),
(748,827,l),
(729,828,o),
(711,829,o),
(694,829,cs),
(465,829,o),
(290,626,o),
(290,390,cs),
(290,250,o),
(342,192,o),
(427,192,cs)
);
}
);
width = 1081;
},
{
layerId = "30810D6C-99CD-409A-82EF-98D1F10F6C9D";
shapes = (
{
closed = 1;
nodes = (
(806,-330,l),
(696,-330,ls),
(648,-330,o),
(634,-294,o),
(639,-257,cs),
(703,245,l),
(607,87,o),
(477,-14,o),
(328,-14,cs),
(157,-14,o),
(49,110,o),
(49,337,cs),
(49,681,o),
(341,991,o),
(709,991,cs),
(797,991,o),
(883,981,o),
(963,946,c)
);
},
{
closed = 1;
nodes = (
(531,132,o),
(662,297,o),
(739,524,c),
(781,856,l),
(750,861,o),
(717,864,o),
(686,864,cs),
(433,864,o),
(224,631,o),
(224,367,cs),
(224,210,o),
(280,132,o),
(393,132,cs)
);
}
);
width = 1053;
}
);
leftKerningGroup = a;
unicode = 113;
},
{
glyphname = r;
layers = (
{
layerId = "E33FAED1-6CF3-4816-84CB-8FA701D54EAB";
shapes = (
{
closed = 1;
nodes = (
(49,0,l),
(168,994,l),
(298,994,ls),
(351,994,o),
(385,969,o),
(382,912,c),
(377,759,l),
(478,951,o),
(613,1040,o),
(746,981,c),
(700,740,l),
(537,807,o),
(418,717,o),
(348,425,c),
(298,0,l)
);
}
);
width = 721;
},
{
layerId = "30810D6C-99CD-409A-82EF-98D1F10F6C9D";
shapes = (
{
closed = 1;
nodes = (
(72,0,l),
(190,979,l),
(277,979,ls),
(316,979,o),
(338,960,o),
(335,920,cs),
(320,699,l),
(426,922,o),
(569,1031,o),
(720,969,c),
(689,800,l),
(514,868,o),
(381,754,o),
(297,447,c),
(244,0,l)
);
}
);
width = 702;
}
);
leftKerningGroup = m;
rightKerningGroup = r;
unicode = 114;
},
{
glyphname = s;
layers = (
{
layerId = "E33FAED1-6CF3-4816-84CB-8FA701D54EAB";
shapes = (
{
closed = 1;
nodes = (
(751,802,ls),
(736,781,o),
(725,772,o),
(702,772,cs),
(655,772,o),
(607,834,o),
(490,834,cs),
(382,834,o),
(322,785,o),
(322,721,cs),
(322,563,o),
(740,604,o),
(740,340,cs),
(740,148,o),
(574,-15,o),
(310,-15,cs),
(177,-15,o),
(56,37,o),
(-8,106,c),
(53,201,ls),
(68,224,o),
(87,235,o),
(118,235,cs),
(175,235,o),
(201,157,o),
(342,157,cs),
(453,157,o),
(516,215,o),
(516,282,cs),
(516,454,o),
(99,375,o),
(99,663,cs),
(99,839,o),
(243,1007,o),
(503,1007,cs),
(639,1007,o),
(743,960,o),
(814,892,c)
);
}
);
width = 807;
},
{
layerId = "30810D6C-99CD-409A-82EF-98D1F10F6C9D";
shapes = (
{
closed = 1;
nodes = (
(734,820,l),
(723,805,o),
(714,798,o),
(697,798,cs),
(660,798,o),
(615,867,o),
(482,867,cs),
(358,867,o),
(272,798,o),
(272,714,cs),
(272,533,o),
(708,547,o),
(708,324,cs),
(708,145,o),
(554,-15,o),
(310,-15,cs),
(178,-15,o),
(76,33,o),
(12,104,c),
(54,170,ls),
(65,188,o),
(81,197,o),
(100,197,cs),
(143,197,o),
(177,109,o),
(332,109,cs),
(469,109,o),
(552,189,o),
(552,284,cs),
(552,483,o),
(117,426,o),
(117,675,cs),
(117,839,o),
(261,992,o),
(491,992,cs),
(616,992,o),
(709,951,o),
(777,883,c)
);
}
);
width = 797;
}
);
leftKerningGroup = s2;
rightKerningGroup = s;
unicode = 115;
},
{
glyphname = scedilla;
layers = (
{
layerId = "E33FAED1-6CF3-4816-84CB-8FA701D54EAB";
shapes = (
{
closed = 1;
nodes = (
(216,-217,o),
(230,-232,o),
(262,-232,cs),
(299,-232,o),
(318,-209,o),
(318,-186,cs),
(318,-154,o),
(284,-141,o),
(200,-130,c),
(247,-11,l),
(139,2,o),
(45,47,o),
(-8,106,c),
(53,201,ls),
(68,224,o),
(87,235,o),
(118,235,cs),
(175,235,o),
(201,157,o),
(342,157,cs),
(453,157,o),
(516,215,o),
(516,282,cs),
(516,454,o),
(99,375,o),
(99,663,cs),
(99,839,o),
(243,1007,o),
(503,1007,cs),
(639,1007,o),
(743,960,o),
(814,892,c),
(751,802,ls),
(736,781,o),
(725,772,o),
(702,772,cs),
(655,772,o),
(607,834,o),
(490,834,cs),
(382,834,o),
(322,785,o),
(322,721,cs),
(322,563,o),
(740,604,o),
(740,340,cs),
(740,172,o),
(612,24,o),
(401,-8,c),
(384,-53,l),
(477,-78,o),
(510,-123,o),
(510,-178,cs),
(510,-276,o),
(406,-336,o),
(266,-336,cs),
(217,-336,o),
(177,-330,o),
(136,-315,c),
(169,-239,l),
(176,-226,o),
(183,-217,o),
(198,-217,cs)
);
}
);
width = 807;
},
{
layerId = "30810D6C-99CD-409A-82EF-98D1F10F6C9D";
shapes = (
{
closed = 1;
nodes = (
(188,-240,o),
(204,-263,o),
(253,-263,cs),
(304,-263,o),
(333,-234,o),
(333,-197,cs),
(333,-153,o),
(286,-139,o),
(201,-127,c),
(247,-11,l),
(146,2,o),
(65,44,o),
(12,104,c),
(54,170,ls),
(65,188,o),
(81,197,o),
(100,197,cs),
(143,197,o),
(177,109,o),
(332,109,cs),
(469,109,o),
(552,189,o),
(552,284,cs),
(552,483,o),
(117,426,o),
(117,675,cs),
(117,839,o),
(261,992,o),
(491,992,cs),
(616,992,o),
(709,951,o),
(777,883,c),
(734,820,l),
(723,805,o),
(714,798,o),
(697,798,cs),
(660,798,o),
(615,867,o),
(482,867,cs),
(358,867,o),
(272,798,o),
(272,714,cs),
(272,533,o),
(708,547,o),
(708,324,cs),
(708,157,o),
(573,3,o),
(354,-13,c),
(332,-69,l),
(425,-92,o),
(467,-131,o),
(467,-191,cs),
(467,-283,o),
(377,-339,o),
(253,-339,cs),
(205,-339,o),
(161,-327,o),
(126,-308,c),
(149,-256,ls),
(154,-245,o),
(160,-240,o),
(172,-240,cs)
);
}
);
width = 797;
}
);
leftKerningGroup = s2;
rightKerningGroup = s;
unicode = 351;
},
{
glyphname = s_t;
layers = (
{
layerId = "E33FAED1-6CF3-4816-84CB-8FA701D54EAB";
shapes = (
{
closed = 1;
nodes = (
(729,802,ls),
(714,781,o),
(703,772,o),
(680,772,cs),
(633,772,o),
(585,834,o),
(468,834,cs),
(360,834,o),
(300,785,o),
(300,721,cs),
(300,563,o),
(718,604,o),
(718,340,cs),
(718,148,o),
(552,-15,o),
(288,-15,cs),
(155,-15,o),
(34,37,o),
(-30,106,c),
(31,201,ls),
(46,224,o),
(65,235,o),
(96,235,cs),
(153,235,o),
(179,157,o),
(320,157,cs),
(431,157,o),
(494,215,o),
(494,282,cs),
(494,454,o),
(77,375,o),
(77,663,cs),
(77,839,o),
(221,1007,o),
(481,1007,cs),
(517,1007,o),
(550,1004,o),
(582,997,c),
(518,1225,o),
(658,1513,o),
(981,1513,cs),
(1226,1513,o),
(1306,1353,o),
(1285,1186,cs),
(1257,961,l),
(1491,961,l),
(1469,788,l),
(1235,788,l),
(1173,276,ls),
(1166,216,o),
(1189,180,o),
(1233,180,cs),
(1282,180,o),
(1298,213,o),
(1320,213,cs),
(1336,213,o),
(1342,207,o),
(1349,190,c),
(1409,72,l),
(1334,15,o),
(1243,-15,o),
(1152,-15,cs),
(985,-15,o),
(906,89,o),
(927,261,cs),
(991,788,l),
(904,788,ls),
(879,788,o),
(859,803,o),
(863,838,cs),
(875,934,l),
(1024,961,l),
(1100,1143,ls),
(1172,1316,o),
(1109,1414,o),
(970,1414,cs),
(721,1414,o),
(600,1132,o),
(740,933,c),
(759,920,o),
(776,907,o),
(792,892,c)
);
}
);
width = 1477;
},
{
layerId = "30810D6C-99CD-409A-82EF-98D1F10F6C9D";
shapes = (
{
closed = 1;
nodes = (
(725,820,l),
(714,805,o),
(705,798,o),
(688,798,cs),
(651,798,o),
(606,867,o),
(473,867,cs),
(349,867,o),
(263,798,o),
(263,714,cs),
(263,533,o),
(699,547,o),
(699,324,cs),
(699,145,o),
(545,-15,o),
(301,-15,cs),
(169,-15,o),
(67,33,o),
(3,104,c),
(45,170,ls),
(56,188,o),
(72,197,o),
(91,197,cs),
(134,197,o),
(168,109,o),
(323,109,cs),
(460,109,o),
(543,189,o),
(543,284,cs),
(543,483,o),
(108,426,o),
(108,675,cs),
(108,839,o),
(252,992,o),
(482,992,cs),
(518,992,o),
(550,989,o),
(579,982,c),
(487,1213,o),
(626,1508,o),
(940,1508,cs),
(1160,1508,o),
(1239,1363,o),
(1220,1196,c),
(1188,943,l),
(1444,943,l),
(1430,820,l),
(1173,820,l),
(1103,245,l),
(1092,164,o),
(1127,122,o),
(1183,122,cs),
(1250,122,o),
(1281,171,o),
(1300,171,cs),
(1311,171,o),
(1316,165,o),
(1321,154,cs),
(1362,73,l),
(1298,17,o),
(1212,-15,o),
(1128,-15,cs),
(984,-15,o),
(912,73,o),
(932,234,cs),
(1003,820,l),
(898,820,ls),
(879,820,o),
(864,832,o),
(867,857,cs),
(874,924,l),
(1024,943,l),
(1091,1161,ls),
(1144,1334,o),
(1077,1436,o),
(932,1436,cs),
(670,1436,o),
(550,1149,o),
(698,937,c),
(725,922,o),
(747,903,o),
(768,883,c)
);
}
);
width = 1445;
}
);
leftKerningGroup = s2;
rightKerningGroup = t;
},
{
glyphname = _121;
layers = (
{
layerId = "E33FAED1-6CF3-4816-84CB-8FA701D54EAB";
shapes = (
{
closed = 1;
nodes = (
(202,-217,o),
(216,-232,o),
(248,-232,cs),
(285,-232,o),
(304,-209,o),
(304,-186,cs),
(304,-154,o),
(270,-141,o),
(186,-130,c),
(232,-13,l),
(115,-2,o),
(14,43,o),
(-43,106,c),
(18,201,ls),
(33,224,o),
(52,235,o),
(83,235,cs),
(140,235,o),
(166,157,o),
(307,157,cs),
(418,157,o),
(481,215,o),
(481,282,cs),
(481,454,o),
(64,375,o),
(64,663,cs),
(64,839,o),
(208,1007,o),
(468,1007,cs),
(524,1007,o),
(574,999,o),
(621,984,c),
(610,1022,o),
(605,1062,o),
(605,1103,cs),
(605,1314,o),
(723,1513,o),
(1006,1513,cs),
(1251,1513,o),
(1331,1348,o),
(1312,1184,c),
(1287,984,l),
(1519,984,l),
(1497,810,l),
(1266,810,l),
(1202,277,ls),
(1195,216,o),
(1216,181,o),
(1257,181,cs),
(1303,181,o),
(1319,213,o),
(1342,213,cs),
(1357,213,o),
(1363,206,o),
(1371,190,cs),
(1429,72,l),
(1356,15,o),
(1265,-15,o),
(1174,-15,cs),
(1010,-15,o),
(934,88,o),
(955,261,cs),
(1021,810,l),
(938,810,ls),
(911,810,o),
(893,827,o),
(897,862,cs),
(909,958,l),
(1069,988,l),
(1104,1060,o),
(1144,1152,o),
(1152,1224,cs),
(1163,1325,o),
(1130,1414,o),
(993,1414,cs),
(810,1414,o),
(719,1277,o),
(719,1118,cs),
(719,1038,o),
(749,950,o),
(810,885,c),
(733,827,l),
(716,802,ls),
(701,781,o),
(690,772,o),
(667,772,cs),
(620,772,o),
(572,834,o),
(455,834,cs),
(347,834,o),
(287,785,o),
(287,721,cs),
(287,563,o),
(705,604,o),
(705,340,cs),
(705,176,o),
(586,36,o),
(389,-4,c),
(370,-53,l),
(463,-78,o),
(496,-123,o),
(496,-178,cs),
(496,-276,o),
(392,-336,o),
(252,-336,cs),
(203,-336,o),
(163,-330,o),
(122,-315,c),
(155,-239,l),
(162,-226,o),
(169,-217,o),
(184,-217,cs)
);
}
);
width = 1477;
},
{
layerId = "30810D6C-99CD-409A-82EF-98D1F10F6C9D";
shapes = (
{
closed = 1;
nodes = (
(195,-240,o),
(211,-263,o),
(260,-263,cs),
(311,-263,o),
(340,-234,o),
(340,-197,cs),
(340,-153,o),
(293,-139,o),
(208,-127,c),
(253,-13,l),
(144,-2,o),
(57,41,o),
(1,104,c),
(43,170,ls),
(54,188,o),
(70,197,o),
(89,197,cs),
(132,197,o),
(166,109,o),
(321,109,cs),
(458,109,o),
(541,189,o),
(541,284,cs),
(541,483,o),
(106,426,o),
(106,675,cs),
(106,839,o),
(250,992,o),
(480,992,cs),
(513,992,o),
(544,989,o),
(573,983,c),
(557,1028,o),
(549,1074,o),
(549,1122,cs),
(549,1326,o),
(674,1509,o),
(930,1509,cs),
(1156,1509,o),
(1234,1351,o),
(1215,1191,cs),
(1186,958,l),
(1442,958,l),
(1426,835,l),
(1171,835,l),
(1099,245,l),
(1088,162,o),
(1122,123,o),
(1177,123,cs),
(1242,123,o),
(1273,170,o),
(1292,170,cs),
(1301,170,o),
(1308,165,o),
(1313,154,cs),
(1354,73,l),
(1290,17,o),
(1206,-15,o),
(1122,-15,cs),
(978,-15,o),
(908,73,o),
(928,234,cs),
(1001,835,l),
(897,835,ls),
(877,835,o),
(863,849,o),
(866,873,cs),
(874,940,l),
(1028,960,l),
(1058,1035,o),
(1090,1133,o),
(1101,1213,cs),
(1117,1340,o),
(1067,1436,o),
(921,1436,cs),
(732,1436,o),
(631,1292,o),
(631,1133,cs),
(631,1066,o),
(652,1000,o),
(691,940,c),
(719,924,o),
(743,906,o),
(766,883,c),
(723,820,l),
(712,805,o),
(703,798,o),
(686,798,cs),
(649,798,o),
(604,867,o),
(471,867,cs),
(347,867,o),
(261,798,o),
(261,714,cs),
(261,533,o),
(697,547,o),
(697,324,cs),
(697,161,o),
(570,13,o),
(362,-11,c),
(339,-69,l),
(432,-92,o),
(474,-131,o),
(474,-191,cs),
(474,-283,o),
(384,-339,o),
(260,-339,cs),
(212,-339,o),
(168,-327,o),
(133,-308,c),
(156,-256,ls),
(161,-245,o),
(167,-240,o),
(179,-240,cs)
);
}
);
width = 1445;
}
);
leftKerningGroup = s2;
rightKerningGroup = t;
},
{
glyphname = germandbls;
layers = (
{
layerId = "E33FAED1-6CF3-4816-84CB-8FA701D54EAB";
shapes = (
{
closed = 1;
nodes = (
(1019,1420,o),
(1111,1242,o),
(1111,1118,cs),
(1111,865,o),
(835,860,o),
(835,734,cs),
(835,621,o),
(1098,609,o),
(1098,360,cs),
(1098,115,o),
(901,-15,o),
(693,-15,cs),
(638,-15,o),
(585,-3,o),
(536,20,cs),
(487,43,o),
(445,71,o),
(412,106,c),
(481,198,l),
(497,218,o),
(517,231,o),
(548,231,cs),
(606,231,o),
(634,152,o),
(735,152,cs),
(804,152,o),
(864,214,o),
(864,297,cs),
(864,454,o),
(571,506,o),
(571,664,cs),
(571,925,o),
(874,919,o),
(874,1111,cs),
(874,1184,o),
(828,1247,o),
(713,1247,cs),
(556,1247,o),
(462,1055,o),
(438,858,cs),
(339,42,l),
(288,-136,ls),
(269,-200,o),
(233,-239,o),
(158,-239,cs),
(56,-239,l),
(183,808,l),
(95,825,ls),
(58,832,o),
(37,848,o),
(41,884,cs),
(52,982,l),
(215,982,l),
(287,1212,o),
(486,1420,o),
(745,1420,cs)
);
}
);
width = 1136;
},
{
layerId = "30810D6C-99CD-409A-82EF-98D1F10F6C9D";
shapes = (
{
closed = 1;
nodes = (
(948,1403,o),
(1043,1249,o),
(1043,1126,cs),
(1043,865,o),
(734,854,o),
(734,709,cs),
(734,575,o),
(1020,621,o),
(1020,341,cs),
(1020,120,o),
(845,-15,o),
(640,-15,cs),
(523,-15,o),
(432,34,o),
(368,103,c),
(416,168,l),
(427,185,o),
(443,193,o),
(464,193,cs),
(507,193,o),
(543,105,o),
(669,105,cs),
(780,105,o),
(858,190,o),
(858,296,cs),
(858,481,o),
(552,411,o),
(552,661,cs),
(552,902,o),
(879,903,o),
(879,1120,cs),
(879,1194,o),
(829,1278,o),
(690,1278,cs),
(527,1278,o),
(400,1092,o),
(373,873,cs),
(269,32,l),
(222,-166,ls),
(211,-214,o),
(184,-240,o),
(133,-240,cs),
(64,-240,l),
(195,831,l),
(88,845,ls),
(61,849,o),
(44,863,o),
(48,888,c),
(56,958,l),
(216,958,l),
(278,1194,o),
(470,1403,o),
(713,1403,cs)
);
}
);
width = 1080;
}
);
unicode = 223;
},
{
glyphname = longs;
layers = (
{
layerId = "E33FAED1-6CF3-4816-84CB-8FA701D54EAB";
shapes = (
{
closed = 1;
nodes = (
(340,43,l),
(290,-135,ls),
(271,-202,o),
(233,-238,o),
(160,-238,cs),
(58,-238,l),
(185,806,l),
(96,823,ls),
(59,830,o),
(36,848,o),
(41,883,c),
(51,983,l),
(206,983,l),
(215,1055,ls),
(242,1283,o),
(398,1422,o),
(621,1422,cs),
(666,1422,o),
(702,1414,o),
(741,1402,c),
(719,1277,l),
(712,1246,o),
(679,1246,o),
(642,1246,cs),
(538,1246,o),
(479,1194,o),
(463,1047,c)
);
}
);
width = 529;
},
{
layerId = "30810D6C-99CD-409A-82EF-98D1F10F6C9D";
shapes = (
{
closed = 1;
nodes = (
(269,32,l),
(222,-166,ls),
(211,-214,o),
(184,-240,o),
(133,-240,cs),
(65,-240,l),
(196,831,l),
(88,845,ls),
(61,849,o),
(44,863,o),
(48,888,c),
(56,958,l),
(211,958,l),
(223,1053,ls),
(250,1277,o),
(390,1403,o),
(586,1403,cs),
(629,1403,o),
(665,1395,o),
(698,1383,c),
(682,1296,ls),
(677,1269,o),
(644,1278,o),
(599,1278,cs),
(488,1278,o),
(415,1216,o),
(394,1048,cs)
);
}
);
width = 497;
}
);
unicode = 383;
},
{
glyphname = t;
layers = (
{
layerId = "E33FAED1-6CF3-4816-84CB-8FA701D54EAB";
shapes = (
{
closed = 1;
nodes = (
(146,236,o),
(148,275,o),
(159,373,c),
(213,806,l),
(119,806,ls),
(95,806,o),
(77,824,o),
(81,859,cs),
(93,960,l),
(248,989,l),
(329,1251,ls),
(338,1278,o),
(357,1292,o),
(386,1292,cs),
(522,1292,l),
(484,986,l),
(729,986,l),
(709,806,l),
(461,806,l),
(409,386,ls),
(396,285,o),
(396,269,o),
(396,263,cs),
(396,216,o),
(421,188,o),
(466,188,cs),
(519,188,o),
(539,218,o),
(560,218,cs),
(573,218,o),
(583,210,o),
(590,195,cs),
(645,72,l),
(570,15,o),
(479,-15,o),
(387,-15,cs),
(240,-15,o),
(146,66,o),
(146,218,cs)
);
}
);
width = 710;
},
{
layerId = "30810D6C-99CD-409A-82EF-98D1F10F6C9D";
shapes = (
{
closed = 1;
nodes = (
(161,208,o),
(162,245,o),
(175,346,cs),
(235,832,l),
(122,832,ls),
(103,832,o),
(89,846,o),
(92,871,cs),
(100,941,l),
(256,962,l),
(330,1262,l),
(337,1282,o),
(350,1295,o),
(371,1295,cs),
(464,1295,l),
(423,960,l),
(689,960,l),
(674,832,l),
(407,832,l),
(348,355,ls),
(335,251,o),
(333,231,o),
(333,223,cs),
(333,159,o),
(367,128,o),
(423,128,cs),
(494,128,o),
(528,174,o),
(546,174,cs),
(555,174,o),
(562,168,o),
(567,157,cs),
(605,73,l),
(541,17,o),
(454,-15,o),
(370,-15,cs),
(241,-15,o),
(161,55,o),
(161,192,cs)
);
}
);
width = 686;
}
);
leftKerningGroup = t2;
rightKerningGroup = t;
unicode = 116;
},
{
glyphname = tcaron;
layers = (
{
layerId = "E33FAED1-6CF3-4816-84CB-8FA701D54EAB";
shapes = (
{
closed = 1;
nodes = (
(123,236,o),
(125,275,o),
(136,373,c),
(190,806,l),
(96,806,ls),
(72,806,o),
(54,824,o),
(58,859,cs),
(70,960,l),
(225,989,l),
(306,1251,ls),
(315,1278,o),
(334,1292,o),
(363,1292,cs),
(499,1292,l),
(461,986,l),
(706,986,l),
(686,806,l),
(438,806,l),
(386,386,ls),
(373,285,o),
(373,269,o),
(373,263,cs),
(373,216,o),
(398,188,o),
(443,188,cs),
(496,188,o),
(516,218,o),
(537,218,cs),
(550,218,o),
(560,210,o),
(567,195,cs),
(622,72,l),
(547,15,o),
(456,-15,o),
(364,-15,cs),
(217,-15,o),
(123,66,o),
(123,218,cs)
);
},
{
closed = 1;
nodes = (
(848,1437,ls),
(880,1437,o),
(885,1422,o),
(885,1407,cs),
(885,1384,o),
(874,1350,o),
(760,1146,cs),
(739,1107,o),
(713,1102,o),
(670,1102,cs),
(584,1102,l),
(685,1437,l)
);
}
);
width = 744;
},
{
layerId = "30810D6C-99CD-409A-82EF-98D1F10F6C9D";
shapes = (
{
alignment = -1;
pos = (55,0);
ref = _2781;
},
{
alignment = -1;
pos = (-35,0);
ref = t;
},
{
alignment = -1;
pos = (306,0);
ref = uni0315;
}
);
width = 708;
}
);
leftKerningGroup = t2;
unicode = 357;
},
{
glyphname = tbar;
layers = (
{
layerId = "E33FAED1-6CF3-4816-84CB-8FA701D54EAB";
shapes = (
{
closed = 1;
nodes = (
(49,670,l),
(208,670,l),
(225,806,l),
(131,806,ls),
(107,806,o),
(89,824,o),
(93,859,cs),
(105,960,l),
(260,989,l),
(341,1251,ls),
(350,1278,o),
(369,1292,o),
(398,1292,cs),
(534,1292,l),
(496,986,l),
(741,986,l),
(721,806,l),
(473,806,l),
(456,670,l),
(699,670,l),
(680,514,l),
(437,514,l),
(421,386,ls),
(408,285,o),
(408,269,o),
(408,263,cs),
(408,216,o),
(433,188,o),
(478,188,cs),
(531,188,o),
(551,218,o),
(572,218,cs),
(585,218,o),
(595,210,o),
(602,195,cs),
(657,72,l),
(582,15,o),
(491,-15,o),
(399,-15,cs),
(252,-15,o),
(158,66,o),
(158,218,cs),
(158,236,o),
(160,275,o),
(171,373,cs),
(188,514,l),
(82,514,ls),
(55,514,o),
(33,535,o),
(37,568,cs)
);
}
);
width = 726;
},
{
layerId = "30810D6C-99CD-409A-82EF-98D1F10F6C9D";
shapes = (
{
closed = 1;
nodes = (
(56,668,l),
(198,668,l),
(219,832,l),
(106,832,ls),
(87,832,o),
(73,846,o),
(76,871,cs),
(84,941,l),
(240,962,l),
(314,1262,l),
(321,1282,o),
(334,1295,o),
(355,1295,cs),
(448,1295,l),
(407,960,l),
(673,960,l),
(658,832,l),
(391,832,l),
(370,668,l),
(653,668,l),
(640,557,l),
(357,557,l),
(332,355,ls),
(319,251,o),
(317,231,o),
(317,223,cs),
(317,159,o),
(351,128,o),
(407,128,cs),
(478,128,o),
(512,174,o),
(530,174,cs),
(539,174,o),
(546,168,o),
(551,157,cs),
(589,73,l),
(525,17,o),
(438,-15,o),
(354,-15,cs),
(225,-15,o),
(145,55,o),
(145,192,cs),
(145,208,o),
(146,245,o),
(159,346,cs),
(185,557,l),
(83,557,ls),
(60,557,o),
(45,570,o),
(48,597,cs)
);
}
);
width = 700;
}
);
unicode = 359;
},
{
glyphname = t_f;
layers = (
{
layerId = "E33FAED1-6CF3-4816-84CB-8FA701D54EAB";
shapes = (
{
closed = 1;
nodes = (
(773,0,l),
(872,810,l),
(473,810,l),
(408,277,ls),
(400,216,o),
(425,181,o),
(472,181,cs),
(523,181,o),
(543,213,o),
(565,213,cs),
(580,213,o),
(587,206,o),
(595,190,cs),
(655,72,l),
(579,15,o),
(484,-15,o),
(391,-15,cs),
(222,-15,o),
(141,89,o),
(162,261,cs),
(228,810,l),
(138,810,ls),
(111,810,o),
(93,827,o),
(96,862,c),
(108,958,l),
(262,986,l),
(347,1253,ls),
(356,1280,o),
(375,1293,o),
(406,1293,cs),
(532,1293,l),
(494,984,l),
(893,984,l),
(902,1056,ls),
(929,1283,o),
(1086,1422,o),
(1309,1422,cs),
(1353,1422,o),
(1391,1416,o),
(1430,1404,c),
(1410,1282,ls),
(1403,1243,o),
(1366,1238,o),
(1329,1238,cs),
(1223,1238,o),
(1158,1195,o),
(1139,1048,cs),
(1130,984,l),
(1369,984,l),
(1348,810,l),
(1117,810,l),
(1018,0,l)
);
}
);
width = 1296;
},
{
layerId = "30810D6C-99CD-409A-82EF-98D1F10F6C9D";
shapes = (
{
closed = 1;
nodes = (
(773,0,l),
(875,835,l),
(421,835,l),
(349,245,l),
(338,162,o),
(375,123,o),
(434,123,cs),
(502,123,o),
(533,170,o),
(554,170,cs),
(565,170,o),
(569,165,o),
(576,154,c),
(617,73,l),
(553,17,o),
(463,-15,o),
(378,-15,cs),
(231,-15,o),
(158,73,o),
(178,234,cs),
(251,835,l),
(142,835,ls),
(122,835,o),
(108,849,o),
(111,873,cs),
(119,940,l),
(272,959,l),
(350,1263,ls),
(355,1282,o),
(371,1295,o),
(392,1295,cs),
(478,1295,l),
(436,958,l),
(890,958,l),
(902,1054,ls),
(929,1278,o),
(1070,1403,o),
(1266,1403,cs),
(1307,1403,o),
(1345,1396,o),
(1380,1384,c),
(1365,1299,ls),
(1360,1268,o),
(1329,1273,o),
(1278,1273,cs),
(1166,1273,o),
(1087,1216,o),
(1066,1048,cs),
(1054,958,l),
(1320,958,l),
(1305,835,l),
(1045,835,l),
(942,0,l)
);
}
);
width = 1254;
}
);
leftKerningGroup = t2;
rightKerningGroup = f;
},
{
glyphname = t_iogonek;
layers = (
{
layerId = "E33FAED1-6CF3-4816-84CB-8FA701D54EAB";
shapes = (
{
closed = 1;
nodes = (
(1042,-178,o),
(1050,-183,o),
(1053,-194,cs),
(1078,-284,l),
(1034,-313,o),
(965,-333,o),
(897,-333,cs),
(782,-333,o),
(722,-281,o),
(722,-206,cs),
(722,-131,o),
(775,-60,o),
(875,0,c),
(799,0,l),
(898,810,l),
(472,810,l),
(407,277,ls),
(400,216,o),
(424,181,o),
(471,181,cs),
(522,181,o),
(542,213,o),
(564,213,cs),
(579,213,o),
(586,206,o),
(595,190,c),
(654,72,l),
(578,15,o),
(483,-15,o),
(390,-15,cs),
(221,-15,o),
(140,88,o),
(161,261,cs),
(228,810,l),
(138,810,ls),
(111,810,o),
(92,827,o),
(96,862,cs),
(108,958,l),
(262,986,l),
(347,1253,ls),
(356,1280,o),
(375,1293,o),
(406,1293,cs),
(532,1293,l),
(494,984,l),
(1164,984,l),
(1144,810,l),
(1143,810,l),
(1044,0,l),
(1023,0,l),
(967,-29,o),
(912,-78,o),
(912,-139,cs),
(912,-171,o),
(930,-192,o),
(965,-192,cs),
(1009,-192,o),
(1019,-178,o),
(1031,-178,cs)
);
},
{
closed = 1;
nodes = (
(1233,1203,o),
(1149,1127,o),
(1058,1127,cs),
(981,1127,o),
(924,1189,o),
(924,1264,cs),
(924,1356,o),
(1007,1436,o),
(1095,1436,cs),
(1174,1436,o),
(1233,1370,o),
(1233,1294,cs)
);
}
);
width = 1199;
},
{
layerId = "30810D6C-99CD-409A-82EF-98D1F10F6C9D";
shapes = (
{
closed = 1;
nodes = (
(987,-205,o),
(992,-209,o),
(994,-217,c),
(1014,-279,l),
(971,-310,o),
(909,-329,o),
(846,-329,cs),
(746,-329,o),
(688,-282,o),
(688,-207,cs),
(688,-124,o),
(752,-52,o),
(840,0,c),
(791,0,l),
(894,835,l),
(421,835,l),
(349,245,l),
(338,161,o),
(374,123,o),
(433,123,cs),
(501,123,o),
(532,170,o),
(553,170,cs),
(564,170,o),
(568,165,o),
(575,154,c),
(615,73,l),
(551,17,o),
(462,-15,o),
(377,-15,cs),
(232,-15,o),
(158,73,o),
(177,234,c),
(251,835,l),
(141,835,ls),
(122,835,o),
(108,849,o),
(111,873,cs),
(119,940,l),
(272,959,l),
(350,1263,ls),
(355,1282,o),
(371,1295,o),
(392,1295,cs),
(478,1295,l),
(436,958,l),
(1079,958,l),
(1064,835,l),
(962,0,l),
(947,0,l),
(892,-29,o),
(821,-88,o),
(821,-160,cs),
(821,-203,o),
(849,-228,o),
(894,-228,cs),
(948,-228,o),
(965,-205,o),
(978,-205,cs)
);
},
{
closed = 1;
nodes = (
(1154,1226,o),
(1087,1165,o),
(1018,1165,cs),
(959,1165,o),
(914,1214,o),
(914,1273,cs),
(914,1345,o),
(979,1408,o),
(1048,1408,cs),
(1107,1408,o),
(1154,1357,o),
(1154,1298,cs)
);
}
);
width = 1141;
}
);
leftKerningGroup = t2;
},
{
glyphname = t_dotlessi;
layers = (
{
layerId = "E33FAED1-6CF3-4816-84CB-8FA701D54EAB";
shapes = (
{
closed = 1;
nodes = (
(1164,984,l),
(1144,810,l),
(1143,810,l),
(1044,0,l),
(799,0,l),
(898,810,l),
(472,810,l),
(407,277,ls),
(400,216,o),
(424,181,o),
(471,181,cs),
(522,181,o),
(542,213,o),
(564,213,cs),
(579,213,o),
(586,206,o),
(595,190,c),
(654,72,l),
(578,15,o),
(483,-15,o),
(390,-15,cs),
(221,-15,o),
(140,88,o),
(161,261,cs),
(228,810,l),
(138,810,ls),
(111,810,o),
(92,827,o),
(96,862,cs),
(108,958,l),
(262,986,l),
(347,1253,ls),
(356,1280,o),
(375,1293,o),
(406,1293,cs),
(532,1293,l),
(494,984,l)
);
}
);
width = 1199;
},
{
layerId = "30810D6C-99CD-409A-82EF-98D1F10F6C9D";
shapes = (
{
closed = 1;
nodes = (
(1079,958,l),
(1064,835,l),
(962,0,l),
(791,0,l),
(894,835,l),
(421,835,l),
(349,245,l),
(338,161,o),
(374,123,o),
(433,123,cs),
(501,123,o),
(532,170,o),
(553,170,cs),
(564,170,o),
(568,165,o),
(575,154,c),
(615,73,l),
(551,17,o),
(462,-15,o),
(377,-15,cs),
(232,-15,o),
(158,73,o),
(177,234,c),
(251,835,l),
(141,835,ls),
(122,835,o),
(108,849,o),
(111,873,cs),
(119,940,l),
(272,959,l),
(350,1263,ls),
(355,1282,o),
(371,1295,o),
(392,1295,cs),
(478,1295,l),
(436,958,l)
);
}
);
width = 1141;
}
);
leftKerningGroup = t2;
},
{
glyphname = t_t;
layers = (
{
layerId = "E33FAED1-6CF3-4816-84CB-8FA701D54EAB";
shapes = (
{
closed = 1;
nodes = (
(227,-15,o),
(145,88,o),
(165,261,c),
(232,810,l),
(139,810,ls),
(112,810,o),
(93,827,o),
(97,862,cs),
(108,958,l),
(266,986,l),
(352,1253,l),
(359,1278,o),
(380,1293,o),
(411,1293,cs),
(536,1293,l),
(498,984,l),
(891,984,l),
(976,1253,ls),
(985,1280,o),
(1005,1293,o),
(1036,1293,cs),
(1162,1293,l),
(1124,984,l),
(1378,984,l),
(1357,810,l),
(1102,810,l),
(1037,277,ls),
(1030,217,o),
(1055,181,o),
(1103,181,cs),
(1159,181,o),
(1177,213,o),
(1201,213,cs),
(1216,213,o),
(1223,206,o),
(1231,190,cs),
(1291,72,l),
(1215,15,o),
(1119,-15,o),
(1023,-15,cs),
(851,-15,o),
(770,88,o),
(790,261,c),
(858,810,l),
(476,810,l),
(411,277,ls),
(404,216,o),
(430,181,o),
(479,181,cs),
(533,181,o),
(553,213,o),
(576,213,cs),
(591,213,o),
(598,206,o),
(606,190,cs),
(666,72,l),
(590,15,o),
(494,-15,o),
(398,-15,cs)
);
}
);
width = 1344;
},
{
layerId = "30810D6C-99CD-409A-82EF-98D1F10F6C9D";
shapes = (
{
closed = 1;
nodes = (
(238,-15,o),
(163,73,o),
(183,234,cs),
(256,835,l),
(143,835,ls),
(124,835,o),
(109,849,o),
(112,873,cs),
(120,940,l),
(278,959,l),
(356,1263,ls),
(361,1282,o),
(377,1295,o),
(398,1295,cs),
(483,1295,l),
(441,958,l),
(889,958,l),
(966,1263,ls),
(971,1283,o),
(988,1295,o),
(1009,1295,cs),
(1095,1295,l),
(1053,958,l),
(1327,958,l),
(1313,835,l),
(1038,835,l),
(965,245,l),
(954,162,o),
(993,123,o),
(1053,123,cs),
(1125,123,o),
(1158,170,o),
(1179,170,cs),
(1190,170,o),
(1193,165,o),
(1200,154,c),
(1242,73,l),
(1177,17,o),
(1087,-15,o),
(999,-15,cs),
(848,-15,o),
(774,73,o),
(794,234,cs),
(868,835,l),
(426,835,l),
(354,245,l),
(343,161,o),
(382,123,o),
(442,123,cs),
(514,123,o),
(547,170,o),
(568,170,cs),
(579,170,o),
(583,165,o),
(590,154,c),
(630,73,l),
(565,17,o),
(475,-15,o),
(387,-15,cs)
);
}
);
width = 1299;
}
);
leftKerningGroup = t2;
rightKerningGroup = t;
},
{
glyphname = t_t_f;
layers = (
{
layerId = "E33FAED1-6CF3-4816-84CB-8FA701D54EAB";
shapes = (
{
closed = 1;
nodes = (
(1402,0,l),
(1501,810,l),
(1095,810,l),
(1030,277,ls),
(1023,217,o),
(1047,181,o),
(1095,181,cs),
(1148,181,o),
(1167,213,o),
(1191,213,cs),
(1206,213,o),
(1213,206,o),
(1221,190,cs),
(1281,72,l),
(1205,15,o),
(1110,-15,o),
(1015,-15,cs),
(843,-15,o),
(763,88,o),
(783,261,c),
(851,810,l),
(475,810,l),
(410,277,ls),
(402,216,o),
(428,181,o),
(475,181,cs),
(528,181,o),
(547,213,o),
(571,213,cs),
(586,213,o),
(593,206,o),
(601,190,cs),
(661,72,l),
(585,15,o),
(490,-15,o),
(395,-15,cs),
(224,-15,o),
(143,88,o),
(164,261,cs),
(230,810,l),
(138,810,ls),
(111,810,o),
(93,827,o),
(97,862,cs),
(108,958,l),
(264,986,l),
(350,1253,l),
(357,1278,o),
(380,1293,o),
(409,1293,cs),
(534,1293,l),
(496,984,l),
(884,984,l),
(969,1253,ls),
(978,1280,o),
(998,1293,o),
(1028,1293,cs),
(1155,1293,l),
(1117,984,l),
(1522,984,l),
(1531,1056,ls),
(1558,1283,o),
(1714,1422,o),
(1941,1422,cs),
(1986,1422,o),
(2024,1416,o),
(2063,1404,c),
(2042,1282,ls),
(2035,1243,o),
(2000,1238,o),
(1961,1238,cs),
(1854,1238,o),
(1787,1195,o),
(1768,1048,cs),
(1759,984,l),
(2001,984,l),
(1981,810,l),
(1746,810,l),
(1646,0,l)
);
}
);
width = 1930;
},
{
layerId = "30810D6C-99CD-409A-82EF-98D1F10F6C9D";
shapes = (
{
closed = 1;
nodes = (
(1382,0,l),
(1484,835,l),
(1025,835,l),
(953,245,l),
(942,162,o),
(978,123,o),
(1038,123,cs),
(1109,123,o),
(1141,170,o),
(1161,170,cs),
(1172,170,o),
(1175,165,o),
(1182,154,c),
(1224,73,l),
(1159,17,o),
(1069,-15,o),
(984,-15,cs),
(835,-15,o),
(762,73,o),
(782,234,cs),
(855,835,l),
(423,835,l),
(351,245,l),
(340,161,o),
(377,123,o),
(437,123,cs),
(507,123,o),
(537,170,o),
(559,170,cs),
(570,170,o),
(574,165,o),
(581,154,c),
(622,73,l),
(557,17,o),
(467,-15,o),
(382,-15,cs),
(234,-15,o),
(160,73,o),
(180,234,cs),
(253,835,l),
(142,835,ls),
(123,835,o),
(109,849,o),
(112,873,cs),
(119,940,l),
(274,959,l),
(352,1263,ls),
(357,1282,o),
(373,1295,o),
(394,1295,cs),
(480,1295,l),
(438,958,l),
(876,958,l),
(953,1263,ls),
(958,1283,o),
(974,1295,o),
(997,1295,cs),
(1082,1295,l),
(1040,958,l),
(1499,958,l),
(1511,1054,ls),
(1538,1278,o),
(1679,1403,o),
(1877,1403,cs),
(1920,1403,o),
(1956,1396,o),
(1991,1384,c),
(1977,1299,l),
(1970,1268,o),
(1941,1273,o),
(1890,1273,cs),
(1777,1273,o),
(1696,1216,o),
(1675,1048,cs),
(1663,958,l),
(1931,958,l),
(1917,835,l),
(1654,835,l),
(1551,0,l)
);
}
);
width = 1867;
}
);
leftKerningGroup = t2;
rightKerningGroup = f;
},
{
glyphname = t_t_iogonek;
layers = (
{
layerId = "E33FAED1-6CF3-4816-84CB-8FA701D54EAB";
shapes = (
{
closed = 1;
nodes = (
(1634,-178,o),
(1641,-183,o),
(1644,-194,cs),
(1668,-285,l),
(1625,-313,o),
(1560,-334,o),
(1492,-334,cs),
(1379,-334,o),
(1322,-280,o),
(1322,-207,cs),
(1322,-131,o),
(1372,-60,o),
(1472,0,c),
(1427,0,l),
(1526,810,l),
(1104,810,l),
(1039,277,ls),
(1032,217,o),
(1057,181,o),
(1106,181,cs),
(1159,181,o),
(1181,213,o),
(1204,213,cs),
(1219,213,o),
(1226,206,o),
(1234,190,cs),
(1294,72,l),
(1218,15,o),
(1121,-15,o),
(1026,-15,cs),
(854,-15,o),
(772,89,o),
(792,261,c),
(860,810,l),
(477,810,l),
(412,277,ls),
(404,216,o),
(430,181,o),
(479,181,cs),
(532,181,o),
(554,213,o),
(577,213,cs),
(592,213,o),
(599,206,o),
(607,190,cs),
(667,72,l),
(591,15,o),
(495,-15,o),
(399,-15,cs),
(227,-15,o),
(145,88,o),
(166,261,cs),
(232,810,l),
(139,810,ls),
(112,810,o),
(94,827,o),
(97,862,c),
(109,958,l),
(266,986,l),
(352,1253,ls),
(361,1280,o),
(380,1293,o),
(411,1293,cs),
(537,1293,l),
(499,984,l),
(893,984,l),
(978,1253,ls),
(987,1280,o),
(1007,1293,o),
(1038,1293,cs),
(1164,1293,l),
(1126,984,l),
(1792,984,l),
(1771,810,l),
(1672,0,l),
(1617,0,l),
(1564,-29,o),
(1511,-78,o),
(1511,-139,cs),
(1511,-170,o),
(1529,-192,o),
(1560,-192,cs),
(1602,-192,o),
(1611,-178,o),
(1623,-178,cs)
);
},
{
closed = 1;
nodes = (
(1862,1203,o),
(1778,1127,o),
(1686,1127,cs),
(1609,1127,o),
(1552,1189,o),
(1552,1264,cs),
(1552,1358,o),
(1634,1436,o),
(1723,1436,cs),
(1802,1436,o),
(1862,1370,o),
(1862,1294,cs)
);
}
);
width = 1832;
},
{
layerId = "30810D6C-99CD-409A-82EF-98D1F10F6C9D";
shapes = (
{
closed = 1;
nodes = (
(1580,-205,o),
(1586,-209,o),
(1588,-217,cs),
(1606,-280,l),
(1566,-309,o),
(1505,-330,o),
(1444,-330,cs),
(1345,-330,o),
(1290,-282,o),
(1290,-207,cs),
(1290,-124,o),
(1352,-52,o),
(1437,0,c),
(1399,0,l),
(1500,835,l),
(1033,835,l),
(961,245,l),
(950,162,o),
(987,123,o),
(1047,123,cs),
(1119,123,o),
(1152,170,o),
(1173,170,cs),
(1184,170,o),
(1187,165,o),
(1194,154,c),
(1235,73,l),
(1171,17,o),
(1081,-15,o),
(993,-15,cs),
(844,-15,o),
(770,73,o),
(790,234,cs),
(863,835,l),
(425,835,l),
(353,245,l),
(342,161,o),
(380,123,o),
(440,123,cs),
(511,123,o),
(544,170,o),
(564,170,cs),
(576,170,o),
(580,165,o),
(587,154,c),
(627,73,l),
(562,17,o),
(473,-15,o),
(385,-15,cs),
(236,-15,o),
(162,73,o),
(182,234,cs),
(255,835,l),
(142,835,ls),
(123,835,o),
(109,849,o),
(112,873,cs),
(119,940,l),
(277,959,l),
(355,1263,l),
(359,1282,o),
(374,1295,o),
(397,1295,cs),
(482,1295,l),
(440,958,l),
(884,958,l),
(962,1263,l),
(966,1283,o),
(984,1295,o),
(1005,1295,cs),
(1090,1295,l),
(1048,958,l),
(1685,958,l),
(1671,835,l),
(1670,835,l),
(1568,0,l),
(1544,0,l),
(1491,-29,o),
(1422,-86,o),
(1422,-160,cs),
(1422,-201,o),
(1449,-228,o),
(1490,-228,cs),
(1544,-228,o),
(1561,-205,o),
(1571,-205,cs)
);
},
{
closed = 1;
nodes = (
(1762,1225,o),
(1695,1165,o),
(1625,1165,cs),
(1566,1165,o),
(1521,1214,o),
(1521,1274,cs),
(1521,1346,o),
(1585,1408,o),
(1654,1408,cs),
(1714,1408,o),
(1762,1357,o),
(1762,1297,cs)
);
}
);
width = 1753;
}
);
leftKerningGroup = t2;
},
{
glyphname = t_t_dotlessi;
layers = (
{
layerId = "E33FAED1-6CF3-4816-84CB-8FA701D54EAB";
shapes = (
{
closed = 1;
nodes = (
(1791,984,l),
(1771,810,l),
(1770,810,l),
(1671,0,l),
(1426,0,l),
(1525,810,l),
(1104,810,l),
(1039,277,l),
(1031,217,o),
(1056,181,o),
(1105,181,cs),
(1161,181,o),
(1179,213,o),
(1203,213,cs),
(1218,213,o),
(1225,206,o),
(1233,190,cs),
(1293,72,l),
(1217,15,o),
(1121,-15,o),
(1025,-15,cs),
(853,-15,o),
(771,89,o),
(792,261,cs),
(859,810,l),
(477,810,l),
(412,277,ls),
(404,216,o),
(430,181,o),
(479,181,cs),
(532,181,o),
(554,213,o),
(577,213,cs),
(592,213,o),
(599,206,o),
(607,190,cs),
(667,72,l),
(591,15,o),
(495,-15,o),
(399,-15,cs),
(227,-15,o),
(145,88,o),
(166,261,cs),
(232,810,l),
(139,810,ls),
(112,810,o),
(94,827,o),
(97,862,c),
(109,958,l),
(266,986,l),
(352,1253,ls),
(361,1280,o),
(380,1293,o),
(411,1293,cs),
(537,1293,l),
(499,984,l),
(892,984,l),
(978,1253,ls),
(987,1280,o),
(1007,1293,o),
(1037,1293,cs),
(1164,1293,l),
(1126,984,l)
);
}
);
width = 1832;
},
{
layerId = "30810D6C-99CD-409A-82EF-98D1F10F6C9D";
shapes = (
{
closed = 1;
nodes = (
(1685,958,l),
(1671,835,l),
(1670,835,l),
(1568,0,l),
(1399,0,l),
(1500,835,l),
(1033,835,l),
(961,245,l),
(950,162,o),
(987,123,o),
(1047,123,cs),
(1119,123,o),
(1152,170,o),
(1173,170,cs),
(1184,170,o),
(1187,165,o),
(1194,154,c),
(1235,73,l),
(1171,17,o),
(1081,-15,o),
(994,-15,cs),
(845,-15,o),
(770,73,o),
(790,234,cs),
(863,835,l),
(425,835,l),
(353,245,l),
(342,161,o),
(380,123,o),
(440,123,cs),
(511,123,o),
(544,170,o),
(565,170,cs),
(576,170,o),
(580,165,o),
(587,154,c),
(627,73,l),
(563,17,o),
(473,-15,o),
(385,-15,cs),
(236,-15,o),
(162,73,o),
(182,234,cs),
(255,835,l),
(142,835,ls),
(123,835,o),
(109,849,o),
(112,873,cs),
(119,940,l),
(277,959,l),
(355,1263,l),
(359,1282,o),
(374,1295,o),
(397,1295,cs),
(482,1295,l),
(440,958,l),
(884,958,l),
(962,1263,l),
(966,1283,o),
(984,1295,o),
(1005,1295,cs),
(1090,1295,l),
(1048,958,l)
);
}
);
width = 1753;
}
);
leftKerningGroup = t2;
},
{
glyphname = u;
layers = (
{
layerId = "E33FAED1-6CF3-4816-84CB-8FA701D54EAB";
shapes = (
{
closed = 1;
nodes = (
(411,993,l),
(336,363,ls),
(321,239,o),
(350,192,o),
(429,192,cs),
(481,192,o),
(537,221,o),
(589,273,cs),
(640,324,o),
(685,398,o),
(713,487,c),
(773,993,l),
(1027,993,l),
(906,0,l),
(779,0,ls),
(716,0,o),
(686,29,o),
(688,87,cs),
(692,191,l),
(589,52,o),
(464,-15,o),
(333,-15,cs),
(246,-15,o),
(177,19,o),
(132,83,cs),
(87,147,o),
(67,242,o),
(82,363,cs),
(157,993,l)
);
}
);
width = 1080;
},
{
layerId = "30810D6C-99CD-409A-82EF-98D1F10F6C9D";
shapes = (
{
closed = 1;
nodes = (
(348,978,l),
(274,356,ls),
(255,204,o),
(294,132,o),
(399,132,cs),
(462,132,o),
(529,165,o),
(590,225,cs),
(651,284,o),
(706,369,o),
(743,473,c),
(803,978,l),
(978,978,l),
(860,0,l),
(773,0,ls),
(728,0,o),
(708,21,o),
(711,63,cs),
(724,242,l),
(617,73,o),
(478,-14,o),
(335,-14,cs),
(250,-14,o),
(183,20,o),
(143,83,cs),
(102,146,o),
(85,239,o),
(100,356,cs),
(173,978,l)
);
}
);
width = 1053;
}
);
leftKerningGroup = u;
unicode = 117;
},
